<?xml version="1.0" encoding="utf-8"?>
<!-- Generator: Adobe Illustrator 19.1.0, SVG Export Plug-In . SVG Version: 6.00 Build 0)  -->
<svg version="1.1" id="page1" xmlns="http://www.w3.org/2000/svg" xmlns:xlink="http://www.w3.org/1999/xlink" x="0px" y="0px"
	 viewBox="0 0 800 600" enable-background="new 0 0 800 600" xml:space="preserve">
<line fill="none" stroke="#000000" stroke-miterlimit="10" x1="147.1" y1="218.4" x2="443.8" y2="55.4"/>
<line fill="none" stroke="#000000" stroke-miterlimit="10" x1="147.5" y1="218.7" x2="147.5" y2="457.7"/>
<line fill="none" stroke="#000000" stroke-miterlimit="10" x1="147.5" y1="218.7" x2="167.6" y2="218.4"/>
<line fill="none" stroke="#000000" stroke-miterlimit="10" x1="167.5" y1="218.7" x2="167.5" y2="463.7"/>
<line fill="none" stroke="#000000" stroke-miterlimit="10" x1="167.5" y1="218.7" x2="463.4" y2="55.4"/>
<polygon fill="none" stroke="#000000" stroke-miterlimit="10" points="454.8,231.1 266.2,330.6 263.7,192.4 452.3,92.9 "/>
<polygon fill="none" stroke="#000000" stroke-miterlimit="10" points="433,234.5 285.6,310.1 285.6,189 433,113.5 "/>
<polygon fill="none" stroke="#000000" stroke-miterlimit="10" points="381.8,347 306.5,338.4 452.1,255.5 527.3,264 "/>
<line fill="none" stroke="#000000" stroke-miterlimit="10" x1="167.6" y1="356.1" x2="383" y2="391.2"/>
<line fill="none" stroke="#000000" stroke-miterlimit="10" x1="382.5" y1="390.7" x2="382.5" y2="513.7"/>
<path fill="none" stroke="#000000" stroke-miterlimit="10" d="M554,280.3c-20.5-9.1-42.3-19.7-53.2-39.3
	c-9.2-16.6-8.9-36.6-8.4-55.6c0.3-10.2-0.2-26.4,7-34.7c6.2-7.2,22.3-12.9,31.3-16c12.9-4.4,26.8-5.4,40.5-5.8
	c18.3-0.5,37.2,0,54,7.3s31.1,22.9,32,41.2"/>
<path fill="none" stroke="#000000" stroke-miterlimit="10" d="M520.8,144.8c9-2.5,18.4-2,27.7-1.2c22.9,1.9,46.7,5.8,65.3,19.2
	c9.4,6.8,17.1,15.9,22.4,26.2"/>
<path fill="none" stroke="#000000" stroke-miterlimit="10" d="M509.3,149.7c15.5-2.6,30.7,5,44.6,12.4c18.1,9.6,36.2,19.1,54.2,28.7
	c7.9,4.2,15.9,8.4,22.2,14.6s11.1,14.7,10.7,23.6"/>
<line fill="none" stroke="#000000" stroke-miterlimit="10" x1="495" y1="178.2" x2="516" y2="178.2"/>
<path fill="none" stroke="#000000" stroke-miterlimit="10" d="M503.2,242.2c5.2,2.5,11.1,2.6,16.9,2.6c13.8,0,27.6,0,41.4,0
	c2,0,4.5-0.2,5.5-2"/>
<path fill="none" stroke="#000000" stroke-miterlimit="10" d="M671.4,412.5c-3-29-8.4-57.8-13.9-86.4c-1.6-8.2-3.2-16.5-6.9-24
	c-3.7-7.4-7.4-14.7-8.6-22.9h-89c-0.6,11.2-9.9,21.9-14.5,32.1c-4.1,9-10.3,21.6-12.7,30.7c-3.4,13,0,31.7,0,45.3"/>
<path fill="none" stroke="#000000" stroke-miterlimit="10" d="M537.4,298.8c-5-1.9-9.9-3.8-14.9-5.7c-7-2.7-14-5.3-21.1-7.4
	c-14.9-4.4-30.4-6.4-45.8-7.4"/>
<path fill="none" stroke="#000000" stroke-miterlimit="10" d="M519.1,384c-2.1-5.4-5-10.5-8.2-15.3c-17.2-26.4-44-46.4-74.3-55.4
	c-9.4-2.8-19.3-4.6-28.9-2.8"/>
<path fill="none" stroke="#000000" stroke-miterlimit="10" d="M526.5,385.7v31c48.3,0,98.5-5.6,146.6-2.4"/>
<path fill="none" stroke="#000000" stroke-miterlimit="10" d="M478.9,435.5c48.3,9.6,98,9.4,147.3,9.2c18.1-0.1,36.4-0.1,54.3-3
	c6.7-1.1,13.6-2.6,19.2-6.5c4.2-3,7.4-7.3,10.3-11.7c18-28.2,21.9-62.8,25.4-96.1c1.8-17.7,3.7-35.3,5.5-53c2.7-0.2,5.4-0.5,8.1-0.7
	c2.7,18.3,4.1,36.9,4,55.4c0,11.6-0.6,23.3-2.9,34.7c-2.4,11.9-6.6,23.4-10.8,34.8c-12.4,33.9-24.8,67.7-37.2,101.6
	c-5.5,14.9-11.9,31-25.7,39c-12.6,7.2-28.2,5.8-42.6,3.8c-52-7.1-103.6-17.8-154.1-32c-6.4-1.8-13.5-4.1-16.9-9.9
	c-3-5-2.5-11.3-1.8-17.1c1.9-16.9,3.8-33.8,5.6-50.7c5.4-2.3,11.9-1.9,17,0.9"/>
<path fill="none" stroke="#000000" stroke-miterlimit="10" d="M527.8,416.5c-18.7,0.1-37.4,0.1-56.1,0.2c-8.2,0-17,0.2-23.8,4.9
	c-7.5,5.2-10.8,14.6-13,23.5c-4.9,19.7-7.2,40-6.7,60.3"/>
</svg>
