<?xml version="1.0" encoding="utf-8"?>
<!-- Generator: Adobe Illustrator 19.1.0, SVG Export Plug-In . SVG Version: 6.00 Build 0)  -->
<svg version="1.1" id="page8" xmlns="http://www.w3.org/2000/svg" xmlns:xlink="http://www.w3.org/1999/xlink" x="0px" y="0px"
	 viewBox="0 0 800 600" enable-background="new 0 0 800 600" xml:space="preserve">
<text transform="matrix(1 0 0 1 132.8991 130.5144)" font-family="'YouYuan'" font-size="36px">一起下班。。。。</text>
<path fill="none" stroke="#000000" stroke-miterlimit="10" d="M219.4,340.9c-4-17,2.4-35,13-48.9c10.6-13.8,25-24.2,39.3-34.2
	c10.5-7.3,21.3-14.7,33.5-18.6c12.9-4.1,26.7-4.2,40.3-4.2c17.1,0,34.1,0.1,51.2,1c9.6,0.5,19.3,1.3,28.6,4
	c22.2,6.3,40.4,22.8,52.8,42.2c12.4,19.4,19.7,41.7,25.7,63.9"/>
<path fill="none" stroke="#000000" stroke-miterlimit="10" d="M218.6,341.9c-16.7-3.2-33.6-6.5-50.5-5.4s-34.2,6.9-45.8,19.3
	c-5.8,6.3-10,14-12.5,22.1c-2.7,8.7-3.5,18.7,1.1,26.6c2,3.4,4.8,6.1,7.9,8.6c20.5,16.5,48.5,19.2,74.8,20.9
	c90,5.7,180.2,6.2,270.4,6.7c40.1,0.2,80.6,0.4,119.8-7.8c5.2-1.1,10.4-2.3,15-4.9c16.6-9.3,19.7-33.7,10.2-50.2
	s-27.8-25.9-46.1-30.9c-18.8-5.1-38.6-6.5-57.9-4"/>
<path fill="none" stroke="#000000" stroke-miterlimit="10" d="M201,435c1,3.6-1.9,7.4-1.2,11.1c0.3,1.9,1.6,3.4,2.8,4.8
	c5,5.4,11.7,9.1,18.8,10.5c6.1,1.2,12.4,0.7,18.7,0.2c5.7-0.5,11.5-0.9,16.9-2.7c8.9-2.8,16.7-9.2,21.3-17.3"/>
<path fill="none" stroke="#000000" stroke-miterlimit="10" d="M444.4,440.1c-0.4,8.1-0.6,17,4.5,23.4c5.2,6.6,14.3,8.5,22.7,8.6
	c9.4,0.1,18.7-1.4,28-2.9c5.9-1,12.5-2.3,16-7.1c4.1-5.6,2.5-13.5,5.1-19.8"/>
<path fill="none" stroke="#000000" stroke-miterlimit="10" d="M216.6,342.6c35.5,19.9,78,22.3,118.7,22c20.6-0.1,41.1-0.8,61.7-2.1
	c11.6-0.7,23,0.8,34.5-1.2c11.4-2,22.6-4.6,33.8-7.2c14-3.2,27.9-6.5,41.9-9.7"/>
<path fill="none" stroke="#000000" stroke-miterlimit="10" d="M268.8,326c0,5.7,1,11.5,2.8,16.9c0.4,1.3,1,2.7,1.9,3.7
	c2.6,2.6,7.4,1.6,9.6-1.3c2.3-2.9,2.5-6.9,2-10.5c-1.2-8.4-5.9-16.3-12.8-21.4c-4.8,7.1-3,13.7-2.1,22.2
	c-12.3,6.6-25.7,11.4-39.4,14.1"/>
<path fill="none" stroke="#000000" stroke-miterlimit="10" d="M307,285.1c-6.2,2.6-6.7,11.1-6.1,17.8c0.4,5.2,0.9,10.3,1.3,15.5
	c0.1,0.9,0.2,1.8,0.7,2.5c0.6,0.7,1.5,1,2.3,1.2c8.8,2.5,19.1,4.7,26.6-0.7c3.2-9.4,4.2-19.6,2.9-29.5c-0.4-3.4-1.2-6.9-3.6-9.3
	c-2.3-2.3-5.8-3.2-9-3.7c-3.5-0.5-7.2-0.8-10.5,0.6s-5.8,5-5,8.4"/>
<path fill="none" stroke="#000000" stroke-miterlimit="10" d="M317.1,324c-0.9,13.3-1.3,26.7-1.1,40"/>
<path fill="none" stroke="#000000" stroke-miterlimit="10" d="M278,347c12.3,0,24.7,0,37,0c3.4,0,8.1-4.8,10.1-7.5s1.6-7-1.1-9
	c-1.2-0.8-2.7-1.2-4.1-1.5c-15.9-3.3-31.8-6.7-47.7-10"/>
<path fill="none" stroke="#000000" stroke-miterlimit="10" d="M300,298c2.3,0,4.7,0,7,0"/>
<path fill="none" stroke="#000000" stroke-miterlimit="10" d="M303,315c4.7,0.5,9.4,0.2,14-0.9"/>
<path fill="none" stroke="#000000" stroke-miterlimit="10" d="M297.4,282.2c0.9,1.2,2,2.3,3.3,3.1c0.3,0.2,0.7,0.4,1,0.7
	c0.2,0.2,0.3,0.3,0.5,0.5c0.4,0.4,0.8,0.7,1.2,1"/>
<path fill="none" stroke="#000000" stroke-miterlimit="10" d="M301.3,278.6c1.9,1.8,3.8,3.6,5.6,5.4"/>
<path fill="none" stroke="#000000" stroke-miterlimit="10" d="M307,274.5c0.3,0.6,0.7,1.1,1.1,1.5c0.2,0.2,0.4,0.4,0.5,0.7
	c0.1,0.2,0.1,0.4,0.2,0.6c0.1,0.2,0.2,0.5,0.3,0.7c0.3,0.6,0.5,1.2,0.8,1.8"/>
<path fill="none" stroke="#000000" stroke-miterlimit="10" d="M313.2,274c-0.1,0.3-0.1,0.5-0.1,0.8c0,0.9,0.3,1.7,0.4,2.6
	c0.1,0.5,0.2,1,0.2,1.5"/>
<path fill="none" stroke="#000000" stroke-miterlimit="10" d="M317.8,274.2c-0.4,1.3-0.5,2.6-0.4,3.9"/>
<path fill="none" stroke="#000000" stroke-miterlimit="10" d="M324.5,274.9c-0.3,0.8-0.8,1.6-1.3,2.4c-0.3,0.4-0.6,0.7-0.8,1.1"/>
<path fill="none" stroke="#000000" stroke-miterlimit="10" d="M329.6,276.9c-0.5,1-1.1,2.1-1.6,3.1"/>
<path fill="none" stroke="#000000" stroke-miterlimit="10" d="M336.1,278.7c-1.5,1.1-2.9,2.2-4.3,3.4c-0.2,0.2-0.4,0.3-0.4,0.5"/>
<path fill="none" stroke="#000000" stroke-miterlimit="10" d="M340.5,284.1c-1.4,0.2-2.8,0.6-4.1,1.1c-0.3,0.1-0.7,0.2-0.9,0.5
	c-0.3,0.2-0.5,0.5-0.5,0.9"/>
<path fill="none" stroke="#000000" stroke-miterlimit="10" d="M622.5,291c36.3-3.3,72.8-4.9,109.3-4.9"/>
<path fill="none" stroke="#000000" stroke-miterlimit="10" d="M663.2,352.9c16.9-1.7,33.9-1.8,50.8-0.3"/>
<path fill="none" stroke="#000000" stroke-miterlimit="10" d="M668.8,385.6c6.3,4.8,14.8,5.5,22.7,5.9c28.9,1.6,57.9,2.1,86.8,1.7"
	/>
<path fill="none" stroke="#000000" stroke-miterlimit="10" d="M628.3,433.2c33.1,1.8,66.2,2.5,99.3,2.2"/>
<path fill="none" stroke="#000000" stroke-miterlimit="10" d="M219.2,434.7c0.9,5.8,3.9,11.3,8.2,15.3c0.8,0.7,1.6,1.4,2.6,1.8
	c0.9,0.4,1.9,0.5,2.8,0.7c5.5,0.7,11.2,0.1,16.1-2.4s8.9-7.1,10-12.5"/>
<path fill="none" stroke="#000000" stroke-miterlimit="10" d="M464,442.6c-2.1,5.2,1.1,11.4,5.9,14.4c4.8,3,10.7,3.4,16.3,3.5
	c3.1,0,6.4,0,9.1-1.6c4.8-2.7,6.2-8.8,7.1-14.2"/>
<path fill="none" stroke="#000000" stroke-miterlimit="10" d="M390.2,298.9c0.3-2.5,2.5-4.4,4.7-5.6c8.2-4.7,18.2-4.6,27.7-4.5
	c2.7,0.1,5.3,0.1,7.9,0.7c4.7,1,9.2,4.1,10.4,8.7c0.6,2.4,0.2,4.8-0.1,7.2c-0.2,1.5-0.4,3-1.1,4.3c-1.6,3-5.1,4.3-8.4,5.1
	c-8.1,2.1-32.1,5.4-38.8-0.5c-2.2-2-5.5-15.7-0.8-15.7c3.1,0,7,0.9,10.1,0.9"/>
<path fill="none" stroke="#000000" stroke-miterlimit="10" d="M395.3,315.9c4.4-0.8,8.7-2.7,12.1-5.6"/>
<path fill="none" stroke="#000000" stroke-miterlimit="10" d="M393.7,293.9c3.4-7.2,11.2-12.1,19.1-12.1"/>
<path fill="none" stroke="#000000" stroke-miterlimit="10" d="M402.3,289.7c1.4-3.1,4.6-5.2,8-6.1s6.8-0.9,10.3-0.9
	c4.1-0.1,8.2-0.2,12.2,0.2c4.1,0.4,8.1,1.5,11.5,3.7"/>
<path fill="none" stroke="#000000" stroke-miterlimit="10" d="M414.4,288.4c4.2-2.1,9-2.1,13.7-2.1c2.1,0,4.1,0,6.2,0.2
	c2.2,0.3,4.4,0.8,6.5,1.4c3.8,1.1,7.4,2.5,11,4.2c1.4,0.6,2.8,1.4,3.5,2.7"/>
<path fill="none" stroke="#000000" stroke-miterlimit="10" d="M427.8,289.6c6.7-0.4,13.3,1.3,19.5,3.9c6.1,2.6,11.9,6.1,17.5,9.6"/>
<path fill="none" stroke="#000000" stroke-miterlimit="10" d="M391.3,294.4c-0.2-1.1,0.1-2.2,0.5-3.3c1.1-2.6,3.2-4.7,5.5-6.3
	c6.7-4.8,15.1-6.6,23.3-7c4.6-0.2,9.5,0.1,13.3,2.7"/>
<path fill="none" stroke="#000000" stroke-miterlimit="10" d="M416.7,319c0.3,14.4,0.1,28.7-0.5,43.1"/>
<path fill="none" stroke="#000000" stroke-miterlimit="10" d="M451.3,357.8c0-2,0.4-4.1,0.8-6.1c1.7-8.8,3.5-17.7,7.6-25.6
	c2.5-4.8,5.8-9.2,9.8-12.9c-3.1,0-6.2,0.1-9.3,0.1c-2,0-6.5-0.8-8.3,0.2c-1.6,1-2.5,4.7-3,6.3c-0.8,2.5-1.3,5.1-1.8,7.7
	c-2,10.5-3.6,21-4.9,31.5"/>
<path fill="none" stroke="#000000" stroke-miterlimit="10" d="M417.8,333.8c0.5-0.5,1.2-0.6,1.9-0.7c3.4-0.4,7-0.7,10.1,0.6
	c3.9,1.5,6.6,5.1,8.1,9c1.5,3.9,1.9,8.1,2.3,12.2"/>
<path fill="none" stroke="#000000" stroke-miterlimit="10" d="M416.2,329.4c-2.2,0.3-4,1.9-5.4,3.6c-3.8,4.5-5.8,10.5-5.5,16.4
	c0.1,1.5,0.3,3.1-0.5,4.3"/>
<path fill="none" stroke="#000000" stroke-miterlimit="10" d="M348.9,313.9c-8.1,7.7-12.7,18.4-17.1,28.7
	c-2.9,6.9-5.9,13.9-6.2,21.3c0.1-1,0.2-2,0.2-2.9"/>
<path fill="none" stroke="#000000" stroke-miterlimit="10" d="M347,313.8c4.2-0.8,8.6,0,12.2,2.2c-5.2,7.3-10.4,14.6-14.4,22.7
	c-4,8-6.6,16.9-6.4,25.8"/>
<path fill="none" stroke="#000000" stroke-miterlimit="10" d="M557.1,222.9c3.1,3.3,8.4,2.8,12.9,2c17.9-3.1,37.6-7.3,48.1-22.1
	c10.1-14.3,8-34.6-1-49.6s-23.6-25.7-38.2-35.3c17.8-1.6,27.3,0,44.8,3.6c2.9,0.6,5.8,1.3,8.4,2.8c2.9,1.7,5.1,4.3,7.3,6.9
	c9.1,10.7,18.3,21.7,23.1,34.9c4.8,13.2,4.1,29.3-5.2,39.8c-7.8,8.7-19.9,12.1-31.4,14c-18.3,3-37,3.6-55.5,1.7"/>
</svg>
