<?xml version="1.0" encoding="utf-8"?>
<!-- Generator: Adobe Illustrator 21.0.0, SVG Export Plug-In . SVG Version: 6.00 Build 0)  -->
<svg version="1.1" id="page12" xmlns="http://www.w3.org/2000/svg" xmlns:xlink="http://www.w3.org/1999/xlink" x="0px" y="0px"
	 viewBox="0 0 800 600" enable-background="new 0 0 800 600" xml:space="preserve">
<path fill="none" d="M161.7,296.4c9,2.4,16.8,6.1,22.4,11.3c17.1,15.9,13.7,45.1-6,57.3c-18.3,11.4-46.7,10.4-66,2.1
	c-8.5-3.6-15.9-10.5-21.6-17.7C54.7,304.6,119.9,285.3,161.7,296.4z"/>
<path fill="none" stroke="#000000" stroke-miterlimit="10" d="M178.7,259.5c16.8-0.2,34,2.1,46.4,14.7c13.4,13.7,16,36.2,12.2,54.3
	c-6.4,30.5-45.7,31.2-71.1,31.7c-17.6,0.4-37.3-2.5-48.3-16.2c-12.1-15-13.6-49.6-3.5-66.5c10.6-17.7,38.9-17.1,56.8-17.9
	C173.5,259.6,176.1,259.5,178.7,259.5z"/>
<path fill="none" stroke="#000000" stroke-miterlimit="10" d="M215.9,295.3c6.3,1.7,13.1,1.4,19.2-1"/>
<path fill="none" stroke="#000000" stroke-miterlimit="10" d="M210.4,332.8c-0.5,3.6,2.5,6.9,6,8s7.2,0.4,10.7-0.2"/>
<path fill="none" stroke="#000000" stroke-miterlimit="10" d="M124.9,272.1c-3.6-3.9-9.4-5.2-14.7-4.7c-5.3,0.5-10.3,2.7-15.1,4.8
	c-13.4,5.8-27.3,12-36.7,23.2"/>
<path fill="none" stroke="#000000" stroke-miterlimit="10" d="M139.5,270.5c-6.4-5.4-15.5-5.7-23.9-5.8c-3.8,0-7.8,0-11.2,1.8
	c-3.1,1.7-5.2,4.6-7.2,7.4c-6.6,9.4-13.6,19.6-13.1,31.1"/>
<path fill="none" stroke="#000000" stroke-miterlimit="10" d="M173.6,261.7c2.1-2.8,0.6-7.1-2.4-9s-6.7-1.8-10.2-1.3
	c-11,1.8-20.9,7.9-29.7,14.7c-10.7,8.3-32.1,17.9-35.5,31.8"/>
<path fill="none" stroke="#000000" stroke-miterlimit="10" d="M193.6,262.8c2-4-0.6-9.1-4.5-11.2s-8.6-2.2-13.1-2.1
	c-5.5,0.1-11,0.1-16.2,1.9c-6.8,2.4-12.3,7.5-16.9,13.1c-10.4,12.6-17.2,27.6-23.9,42.5"/>
<path fill="none" stroke="#000000" stroke-miterlimit="10" d="M77.9,310c9.9-20.2,19.9-40.6,34.4-57.9c6-7.2,13-13.9,21.7-17.5
	c7.7-3.2,16.3-3.6,24.7-2.9c23.5,2.1,47.3,15,56.1,36.9c4.7-7.4,7.1-14.9,1.7-21.8s-13.5-11.2-21.7-14.5c-6.3-2.6-12.9-4.9-19.7-5.1
	c-17.6-0.7-33,11.4-44.6,24.6c-20.6,23.4-34.8,52.4-40.8,83.1"/>
<path fill="none" stroke="#000000" stroke-miterlimit="10" d="M170.3,361c3.8,27.7,7.7,55.4,11.5,83.1"/>
<path fill="none" stroke="#000000" stroke-miterlimit="10" d="M179,399.3c8.8-1.1,17.6-3.3,25.8-6.6"/>
<path fill="none" stroke="#000000" stroke-miterlimit="10" d="M180.1,443.8c-5,0-10.1,0.3-15,1.7c-8.3,2.5-15.6,8.4-19.7,16.1
	c-4.1,7.7-4.9,17-2.2,25.3"/>
<path fill="none" stroke="#000000" stroke-miterlimit="10" d="M185.8,438.6c1.9,3.2,3.8,6.4,5.7,9.7c8,13.6,16.3,29.3,11.9,44.5"/>
<path fill="none" stroke="#000000" stroke-miterlimit="10" d="M172,395.4c-11.7-1-23.4-2.4-35-4.3"/>
<path fill="none" stroke="#000000" stroke-miterlimit="10" d="M304.7,316.4c1.6,3.9,3.7,7.6,6.9,10.4c5.7,5.1,14.1,6.3,21.6,4.9
	c7.5-1.4,14.4-5.1,21-9c3.9-2.2,7.8-4.6,10.1-8.4c2.1-3.4,2.6-7.5,2.9-11.4c1-12.9,0.1-26.3-6.1-37.7s-18.8-19.8-31.5-18.2
	C296,251.4,294.6,292,304.7,316.4z"/>
<path fill="none" stroke="#000000" stroke-miterlimit="10" d="M259.5,319.3c-4.7,3.7-7.4,9.7-7.2,15.7"/>
<path fill="none" stroke="#000000" stroke-miterlimit="10" d="M246.9,324.1c3.4,5.2,7.8,9.7,13,13"/>
<path fill="none" stroke="#000000" stroke-miterlimit="10" d="M269.3,309.2c-2.2,4.2-4.4,8.5-6.6,12.7"/>
<path fill="none" stroke="#000000" stroke-miterlimit="10" d="M282.1,298.9c1.9,1.3,0.9,4.2-0.3,6.2c-2.6,4.3-7.1,11.6-9.7,15.9
	c-4.9-3.7-9.4-8-13.2-12.8"/>
<path fill="none" stroke="#000000" stroke-miterlimit="10" d="M271.1,302.9c3.7,6.4,8.1,12.4,13.1,17.9"/>
<path fill="none" stroke="#000000" stroke-miterlimit="10" d="M278.1,334.3c-2.7,1.2-5.4,2.4-8.2,3.6"/>
<path fill="none" stroke="#000000" stroke-miterlimit="10" d="M267.1,330.9c0.5-1.8,3.2-0.7,4.5,0.7c3.2,3.4,6.4,6.9,9.6,10.3"/>
<path fill="none" stroke="#000000" stroke-miterlimit="10" d="M328.7,335c0.3,15.3,0.6,30.7,1,46"/>
<path fill="none" stroke="#000000" stroke-miterlimit="10" d="M322.3,359.4c-8.2-3.7-17.6-4.6-26.3-2.6"/>
<path fill="none" stroke="#000000" stroke-miterlimit="10" d="M333.2,366.6c8-2.1,15.6-5.5,22.5-10.1"/>
<path fill="none" stroke="#000000" stroke-miterlimit="10" d="M355,447c-3.9-9.2-15.1-50.9-24.5-53.7c-11.8-3.5-21.8,35-24.9,43.5"
	/>
<path fill="none" stroke="#000000" stroke-miterlimit="10" d="M618.1,223c-1.7,23.6,7,51.6,16.3,66.4c5.9,9.4,13.9,18.2,24.4,21.9
	c16.9,6,35.2-2,51.3-9.9c6.5-3.2,13.1-6.5,18-11.8c4.6-5.1,7.3-11.6,9.4-18.1c6.4-19.1,9.3-39.4,8.5-59.5c-0.1-3.2-0.3-6.5-1.6-9.5
	c-1.6-3.7-4.7-6.6-7.8-9.2c-27.7-22.2-77-26.9-105.1-2.3c-5.2,4.5-17.1,22-13.3,29.5c3.9,7.7,34.9,4.7,43.7,4.6"/>
<path fill="none" stroke="#000000" stroke-miterlimit="10" d="M632,284c9.3,0,18.7,0,28,0"/>
<path fill="none" stroke="#000000" stroke-miterlimit="10" d="M603.8,191.9c-0.6,4,3.2,7.3,6.8,9.1c3.6,1.8,7.8,3.1,10.1,6.4"/>
<path fill="none" stroke="#000000" stroke-miterlimit="10" d="M625.1,182.8c2.4,1.2,4.3,3.5,4.9,6.2"/>
<path fill="none" stroke="#000000" stroke-miterlimit="10" d="M636.1,172c1.7,2,3.3,4,5,6"/>
<path fill="none" stroke="#000000" stroke-miterlimit="10" d="M653.1,168.9c2,2.6,3,5.8,2.8,9.1"/>
<path fill="none" stroke="#000000" stroke-miterlimit="10" d="M673,161c0,5.7,0,11.3,0,17"/>
<path fill="none" stroke="#000000" stroke-miterlimit="10" d="M689,171c0,1.3,0,2.7,0,4"/>
<path fill="none" stroke="#000000" stroke-miterlimit="10" d="M710.2,166c-0.8,5-1.5,10-2.3,15"/>
<path fill="none" stroke="#000000" stroke-miterlimit="10" d="M716.3,176.9c0.9,2.2,1.2,4.7,0.6,7.1"/>
<path fill="none" stroke="#000000" stroke-miterlimit="10" d="M734.4,183.9c0.6,3.1,0,6.3-1.5,9"/>
<path fill="none" stroke="#000000" stroke-miterlimit="10" d="M748.7,191.4c-1.7,3.1-3.4,6.3-5.1,9.4"/>
<path fill="none" stroke="#000000" stroke-miterlimit="10" d="M680,314c0,23.7,0,47.3,0,71"/>
<path fill="none" stroke="#000000" stroke-miterlimit="10" d="M677.2,343.4c-2.4-0.2-4.8-0.3-7.2-0.5c-3.7-0.3-7.5-0.5-11,0.4
	c-3.6,1-7,3.4-8.1,6.9c-1.1,3.5,0.8,8,4.4,8.8"/>
<path fill="none" stroke="#000000" stroke-miterlimit="10" d="M684.2,345.6c13,1.9,25.4,8.2,34.7,17.6c1.3,1.4,2.7,3,2.7,4.9
	c-0.1,3-3.4,4.7-6.3,5.5c-5.9,1.6-12.2,2.1-18.2,1.3"/>
<path fill="none" stroke="#000000" stroke-miterlimit="10" d="M677.7,387.9c-6.9,0.7-9.9,8.9-11,15.7c-4.2,25.5-2.5,52,4.9,76.8
	c0.7,2.4,1.9,5.2,4.3,5.7"/>
<path fill="none" stroke="#000000" stroke-miterlimit="10" d="M696,399.8c1,0.1,2.1,0.2,3.1,0.2c5.2,23.3,10.4,46.5,15.6,69.8"/>
<line fill="none" stroke="#000000" stroke-miterlimit="10" x1="383" y1="259.4" x2="603.7" y2="227.1"/>
<line fill="none" stroke="#000000" stroke-miterlimit="10" x1="386" y1="281" x2="608" y2="236"/>
<path fill="none" stroke="#000000" stroke-miterlimit="10" d="M712.8,201.3c-1,2.6-0.1,5.8,2.1,7.4c2.2,1.6,5.6,1.6,7.7-0.2"/>
<path fill="none" stroke="#000000" stroke-miterlimit="10" d="M724.9,217.8c-3.6,1.2-7.2,2.4-10.8,3.5c-0.8,5.6-0.5,9,0,14.6"/>
<path fill="none" stroke="#000000" stroke-miterlimit="10" d="M701.4,203.1c0.6,5.3-3.2,10.8-8.3,12.1"/>
<path fill="none" stroke="#000000" stroke-miterlimit="10" d="M692,225.1c4.5-1.3,9.3-1.6,13.9-0.8c0,3.9,0.1,7.8,0.1,11.7"/>
<text transform="matrix(1 0 0 1 165.8756 118.1579)"><tspan x="0" y="0" font-family="'YouYuan'" font-size="36px">办公室里的男性真TMD多，</tspan><tspan x="0" y="43.2" font-family="'YouYuan'" font-size="36px">我没少吃你的醋</tspan></text>
</svg>
