<?xml version="1.0" encoding="utf-8"?>
<!-- Generator: Adobe Illustrator 19.1.0, SVG Export Plug-In . SVG Version: 6.00 Build 0)  -->
<svg version="1.1" id="page11" xmlns="http://www.w3.org/2000/svg" xmlns:xlink="http://www.w3.org/1999/xlink" x="0px" y="0px"
	 viewBox="0 0 800 600" enable-background="new 0 0 800 600" xml:space="preserve">
<text transform="matrix(1 0 0 1 132.8991 130.5144)" font-family="'YouYuan'" font-size="36px">一起“打怪杀敌”</text>
<path fill="none" stroke="#000000" stroke-miterlimit="10" d="M306.1,237.1c-10.2,5.9-12.5,19.5-13.2,31.3
	c-0.4,7.4-0.7,14.8-0.7,22.3c-0.1,7.9,0.4,16.6,5.6,22.6c4.8,5.6,12.8,7.4,20.2,7c7.4-0.4,14.5-2.7,21.7-4.1
	c4.6-0.9,9.4-1.4,13.8-3.2c8.2-3.4,14.1-11.2,17.1-19.6c3-8.4,3.5-17.5,3.5-26.4c0-8.3-0.3-16.9-4.2-24.3
	c-6-11.3-19.1-16.9-31.7-19.3c-7.7-1.4-15.8-1.9-23.2,0.7c-7.4,2.7-13.8,9-14.6,16.8"/>
<path fill="none" stroke="#000000" stroke-miterlimit="10" d="M330.8,322.3c-2.3,7.3-4.7,14.6-5.5,22.2c-0.6,5.8-0.2,11.6-0.4,17.4
	c-0.2,8.8-1.4,17.6-2.7,26.3"/>
<path fill="none" stroke="#000000" stroke-miterlimit="10" d="M324.2,348.3c-10.6,1.3-21.1-2.6-31.7-2.5c-3.6,0-7.2,0.5-10.7,0
	c-2-0.3-4-0.9-5.9-1.6c-8.8-2.9-18-6.1-23.7-13.3"/>
<path fill="none" stroke="#000000" stroke-miterlimit="10" d="M325,342.7c6.8-1.8,14.3-0.5,20.1,3.4c5.8,3.9,9.8,10.3,10.8,17.3
	c0.2,1.4,0.2,3-0.9,3.9c-0.8,0.6-1.8,0.7-2.8,0.7c-17.9,0.3-35.7,0.1-53.6-0.7"/>
<path fill="none" stroke="#000000" stroke-miterlimit="10" d="M320.4,389.3c-13-1.6-26.3-0.2-38.7,3.9c-3.9,1.3-7.7,2.9-10.9,5.4
	c-8.8,6.8-11.7,18.6-14,29.6"/>
<path fill="none" stroke="#000000" stroke-miterlimit="10" d="M326.8,391c-1.5-1.8-0.4-4.7,1.6-6c2-1.3,4.4-1.3,6.8-1.3
	c3.6,0,7.2,0,10.7,0c3.4,0,6.8,0,10.1,0.7c5.2,1.2,9.8,4.2,14.3,7.2c0.7,0.5,1.4,1,1.8,1.7c0.4,0.7,0.4,1.6,0.3,2.5
	c-0.2,6.6-0.7,13.9-5.5,18.5c-1.6,1.6-3.6,2.6-5.5,3.9c-3.5,2.4-6.5,5.3-9.4,8.3c-2.9,2.9-6,6.9-4.3,10.7"/>
<path fill="none" stroke="#000000" stroke-miterlimit="10" d="M447.7,275c-4.2,8.6-2.5,19.8,4,26.8c3.6,3.9,8.5,6.5,13.4,8.6
	c10.4,4.5,21.5,7.1,32.8,7.7c10.9,0.6,22.2-0.8,31.5-6.5c9.3-5.7,16.1-16.2,15.1-27.1c-1-10.2-8.6-18.8-17.7-23.4
	c-9.1-4.6-19.6-5.7-29.8-5.9c-8.1-0.1-16.3,0.3-24.4,1.2c-3.3,0.4-6.7,0.9-9.7,2.4c-2.5,1.3-4.7,3.2-6.7,5.3
	c-5.6,5.7-10.5,12.1-14.6,19.1"/>
<path fill="none" stroke="#000000" stroke-miterlimit="10" d="M492.8,317.5c1.6,1.8,1.7,4.5,1.6,6.9c-0.2,17.5-0.4,35-0.6,52.6"/>
<path fill="none" stroke="#000000" stroke-miterlimit="10" d="M494.3,350.3c28-2.1,55.9-5.1,83.6-9.1"/>
<path fill="none" stroke="#000000" stroke-miterlimit="10" d="M493.6,343.2c-5.7,0.5-11.4,1.1-16.9,2.4c-2.8,0.7-5.7,1.7-7.9,3.6
	c-3.2,2.9-4.3,7.4-4.7,11.6c-0.1,0.9-0.1,1.8,0.3,2.6c0.5,0.9,1.4,1.4,2.3,1.8c6.6,3.1,14,4.6,21.3,4.6c8.7-0.1,18.4-2.2,25.3,3.1"
	/>
<path fill="none" stroke="#000000" stroke-miterlimit="10" d="M446,414.6c-0.2-9.3,2.8-18.7,8.5-26.1c1.8-2.3,3.9-4.5,6.5-5.8
	c2.5-1.3,5.2-1.7,8-2.1c7.7-1.1,15.4-1.8,23.2-2c9.6-0.3,23.8-0.8,33.5-0.9c1.5,0,3.1,0,4.5,0.6c1.4,0.7,2.5,1.9,3.6,3
	c4.3,4.3,10.1,7.3,13,12.7c4.3,8.2,0,18.5,2.8,27.3"/>
<path fill="none" stroke="#000000" stroke-miterlimit="10" d="M149.4,238.6c2.3,9.5,4.5,19.9,0.1,28.6c-4,8-13.6,12.8-22.4,11.3"/>
<path fill="none" stroke="#000000" stroke-miterlimit="10" d="M175,264.7c-0.9-1.1-1.7-2.2-2.9-3.1c-1.1-0.8-2.6-1.4-4-1.1
	c-1.5,0.3-2.7,1.5-3.6,2.8c-1.5,2.4-2.2,5.3-1.7,8.1c0.1,0.6,0.3,1.2,0.7,1.6c0.6,0.5,1.5,0.5,2.3,0.4c2.4-0.2,4.9-0.5,7.1-1.8
	c2.1-1.2,3.7-3.6,3.3-6c-0.2,1.5-0.3,3-0.2,4.5c0,0.6,0.1,1.2,0.5,1.7c0.3,0.5,1,0.8,1.5,0.5"/>
<path fill="none" stroke="#000000" stroke-miterlimit="10" d="M181,261.4c1.3,2.7,2.6,5.4,3.7,8.2c0.3,0.8,0.7,1.6,1.2,2.3
	c0.6,0.7,1.4,1.2,2.3,1c0.9-0.1,1.6-0.9,2.2-1.7c2.5-3.3,4.2-7.2,4.9-11.3"/>
<path fill="none" stroke="#000000" stroke-miterlimit="10" d="M208.2,261.3c-0.3-1.8-2-3.2-3.9-3.1c-1.4,0.1-2.7,1-3.6,2
	c-2.5,2.5-3.9,6.1-3.8,9.7c0,0.2,0,0.3,0.1,0.4c0.1,0.1,0.3,0.2,0.5,0.2c3.6,0.2,7.1-1.6,10-3.8c0.8-0.6,1.7-1.4,1.8-2.4
	c0.2-1-0.4-2.1,0.2-2.9c-0.2,1.2-0.3,2.6,0.1,3.8c0.4,1.2,1.4,2.3,2.6,2.5"/>
<path fill="none" stroke="#000000" stroke-miterlimit="10" d="M213.5,231.5c-10.5,6.3-19.3,15.1-28.1,23.6
	c-12.6,12.2-25.4,24.1-38.5,35.7"/>
<path fill="none" stroke="#000000" stroke-miterlimit="10" d="M144.1,236.1c20.3,17.3,40.3,35,60,53.1c3.6,3.3,7.1,6.6,10.2,10.2"/>
<path fill="none" stroke="#000000" stroke-miterlimit="10" d="M167.8,401.7c0,0.9,0.1,1.9,0.1,2.8c-7-9.1-13.3-18.7-18.9-28.7
	c0.3-2.3,0.8-6.9,2.7-8.2c4.8-3.2,11.5-2.6,16.2,0.8c4.6,3.4,7.1,9.3,7,15c-6.2,1.1-12.5,1.5-18.8,1.2c-0.3,0-0.6,0-0.7-0.2
	c-0.2-0.2,0-0.6,0.3-0.5"/>
<path fill="none" stroke="#000000" stroke-miterlimit="10" d="M169,358.3c5.8,8.1,10.4,17,13.8,26.3c0.3-0.3,0.4-0.8,0.3-1.2"/>
<path fill="none" stroke="#000000" stroke-miterlimit="10" d="M176.7,370.7c3.5-5.5,7.7-10.6,12.4-15.1"/>
<path fill="none" stroke="#000000" stroke-miterlimit="10" d="M182.1,345.3c4.2,3.5,8.4,7,12,11.1c3.6,4.1,6.5,8.9,7.6,14.2"/>
<path fill="none" stroke="#000000" stroke-miterlimit="10" d="M196.6,340.9c3,8.5,11.6,13.5,18.2,19.7c1.2,1.1,2.3,2.4,2.6,3.9"/>
<path fill="none" stroke="#000000" stroke-miterlimit="10" d="M198.5,336.9c-0.6-2.7,1.2-5.2,2.9-7.3c2-2.4,4.7-5.1,7.9-4.5
	c3.5,0.6,5.1,4.9,5.2,8.4c0,1.7-0.1,3.5-1,5c-0.8,1.2-2,2.1-3.1,2.9c-2.3,1.6-4.5,3.2-6.8,4.9"/>
<path fill="none" stroke="#000000" stroke-miterlimit="10" d="M189,309.3c2.8,32.8-3.1,65.7-11.5,97.5c-0.2,0.9-0.5,1.9-0.2,2.8
	c0.3,0.9,1.4,1.6,2.2,1.1"/>
<path fill="none" stroke="#000000" stroke-miterlimit="10" d="M155.1,336.9c2.1-1.2,4.8,0.2,6.8,1.6c21.2,14.6,41.7,30.2,61.5,46.7"
	/>
<path fill="none" stroke="#000000" stroke-miterlimit="10" d="M613.3,195.3c0.7,6.4,1.1,12.8,1.2,19.3c0,2.2,0,4.4-0.5,6.6
	c-1.2,4.7-4.8,8.5-8.7,11.3c-4.5,3.2-10.1,5.7-15.4,4.2"/>
<path fill="none" stroke="#000000" stroke-miterlimit="10" d="M647.7,195.3c-4.1-1.1-8.4-1.6-12.6-1.3c-2.3,0.2-4.8,0.6-6.2,2.5
	c-1,1.3-1.2,3.1-1.1,4.8c0,2.1,0.3,4.3,1.2,6.3c1.4,3.1,4.1,5.4,7,6.9s6.2,2.4,9.4,3.4c2.5,0.7,5.6,2.2,5.6,4.8c0,2.1-2,3.6-3.9,4.4
	c-6.9,3-14.9,2-22.2,4c2.8-0.2,5.6-0.3,8.4-0.2"/>
<path fill="none" stroke="#000000" stroke-miterlimit="10" d="M651.5,298.7c-0.6-6-4.4-11.4-9.6-14.4s-11.5-3.8-17.4-2.7
	c-1.9,0.4-3.8,0.9-5.4,2.1c-2,1.4-3.2,3.6-4.1,5.9c-2.4,6.3-2.2,13.3-1.9,20.1"/>
<path fill="none" stroke="#000000" stroke-miterlimit="10" d="M657.4,325.5c-1.2-3.5-2.8-6.8-4.8-9.9c-0.8-1.2-1.7-2.5-3-3.2
	c-1.2-0.6-2.7-0.6-4-0.6c-1.9,0-3.8,0.1-5.7,0.1c-1,0-2.1,0-3,0.6c-1.5,0.9-1.7,3-1.7,4.7c0.1,2.2,0.4,4.3,0.2,6.5
	c-0.2,2.2-0.9,4.4-2.6,5.7c-1.6,1.3-3.8,1.5-5.9,1.7c-3.2,0.2-6.4,0.3-9.6,0.2c-0.7,0-1.6-0.1-2-0.7c-0.3-0.4-0.3-0.9-0.4-1.3
	c-0.2-2.1-0.4-4.2-0.6-6.4"/>
<path fill="none" stroke="#000000" stroke-miterlimit="10" d="M661.1,353.9c1.1-3.3-1.3-6.7-4-8.8c-3.3-2.7-7.1-4.5-11.2-5.4
	c-3.9-0.9-8.6-0.5-11,2.7c-2.3,3.3-1.1,7.9-2.2,11.8c-0.4,1.3-1.1,2.5-2.3,3c-0.7,0.3-1.5,0.3-2.3,0.3c-2.5,0-5,0-7.5,0
	c-2.2,0-4.6,0-6.6-0.9c-2-0.9-3.8-3-3.5-5.2"/>
<path fill="none" stroke="#000000" stroke-miterlimit="10" d="M664.4,177c-27.5,26-56.7,50.3-87.2,72.7"/>
<path fill="none" stroke="#000000" stroke-miterlimit="10" d="M590.3,171.2c26.2,26.6,53,52.6,80.3,77.9"/>
<path fill="none" stroke="#000000" stroke-miterlimit="10" d="M671.9,293.6c-30.8,12.7-49.9,43.6-77.5,62.2"/>
<path fill="none" stroke="#000000" stroke-miterlimit="10" d="M596.6,308.6c25.7,27.6,52.1,55.8,85.6,73.3"/>
<path fill="none" stroke="#000000" stroke-miterlimit="10" d="M193.6,473.8c-1.1,19.2-0.4,38.6,1.9,57.7
	c18.1-3.9,16.1-33.4,31.8-43.2"/>
<path fill="none" stroke="#000000" stroke-miterlimit="10" d="M247.4,490.8c-6.2,11.5-8.7,25-7.1,38c9.7-2.4,19.2-5.4,28.5-9
	c9.1-3.5,19.8-10.7,17.6-20.3c-0.8,9.1-1.6,18.2-2.3,27.3"/>
<path fill="none" stroke="#000000" stroke-miterlimit="10" d="M310.4,494.7c15.4-2.5,31.3-2.1,46.6,1.3"/>
<path fill="none" stroke="#000000" stroke-miterlimit="10" d="M317.5,493.6c-2.7-1.1-4.4,2.9-4.5,5.8c-0.4,12.8-0.8,25.7-1.2,38.5"
	/>
<path fill="none" stroke="#000000" stroke-miterlimit="10" d="M321.7,520.2c10.3,0,20.6,0,31,0"/>
<path fill="none" stroke="#000000" stroke-miterlimit="10" d="M310.6,542.3c17.7,0,35.4,0,53.1,0"/>
<path fill="none" stroke="#000000" stroke-miterlimit="10" d="M447.7,467.1c-0.4,12.6-0.9,25.3-1.3,37.9
	c8.1-9.3,17.1-17.9,26.9-25.5c2-1.5,4.4-3.1,6.8-2.4c1.6,0.5,2.8,1.8,3.7,3.2c4.9,7,7.1,15.9,6.1,24.4"/>
<path fill="none" stroke="#000000" stroke-miterlimit="10" d="M532.4,485.1c0.6-6.5-6.3-12-12.8-11.5c-6.5,0.5-11.9,5.5-14.8,11.4
	c-2.9,5.9-3.6,12.5-4.3,19c-0.3,2.4-0.4,5.1,1.2,6.9c1.3,1.5,3.4,1.9,5.3,2.3c6.2,1.1,12.8,2.2,18.7,0c5.9-2.2,10.6-9.1,8.1-14.9
	c0.1,16.6,0.3,33.3,0.4,49.9c0.1,8.3-2.4,19.5-10.8,19.5c-4.6,0-8.5-4.2-9.3-8.7s0.9-9.2,3.3-13.2c12.5-20.6,41.6-23.9,64.9-17.9
	c-2.8-2.5-6.8-3.7-10.6-3.1"/>
<path fill="none" stroke="#000000" stroke-miterlimit="10" d="M347.5,475.3c-25.7,26-50.8,52.5-75.3,79.6"/>
<path fill="none" stroke="#000000" stroke-miterlimit="10" d="M255.4,473.7c24.5,19.1,49.5,37.6,74.9,55.6
	c8.7,6.1,18.5,12.4,29,11.1"/>
<path fill="none" stroke="#000000" stroke-miterlimit="10" d="M537.4,459c-22.2,36.6-55.9,66.2-95.1,83.6c-0.4-3-0.8-6.1-1.2-9.1"/>
<path fill="none" stroke="#000000" stroke-miterlimit="10" d="M445.5,436.2c32.4,42.9,68.7,82.9,108.3,119.3
	c4.5,4.2,9.4,8.4,15.5,9.6"/>
<path fill="none" stroke="#000000" stroke-miterlimit="10" d="M296.6,227.6c1.5,1.2,2.9,2.5,4.4,3.7c0.5,0.4,1,0.8,1.5,1.1
	c1.1,0.6,2.5,1.1,2.8,2.3"/>
<path fill="none" stroke="#000000" stroke-miterlimit="10" d="M304.2,223.2c3.3,1.1,6.2,3.3,8.3,6.1"/>
<path fill="none" stroke="#000000" stroke-miterlimit="10" d="M313.8,218.5c-0.1,2.9-0.1,5.7,0.2,8.6c0.3-0.2,0.5-0.3,0.8-0.5"/>
<path fill="none" stroke="#000000" stroke-miterlimit="10" d="M324,215.1c0,2.5,0,5,0,7.5c0,0.3,0,0.5,0.2,0.7
	c0.1,0.2,0.5,0.3,0.6,0.1"/>
<path fill="none" stroke="#000000" stroke-miterlimit="10" d="M334.4,214.1c0.3,3.7,0.2,7.5-0.3,11.2"/>
<path fill="none" stroke="#000000" stroke-miterlimit="10" d="M345.2,215.6c-0.4,3.1-0.9,6.1-1.5,9.2"/>
<path fill="none" stroke="#000000" stroke-miterlimit="10" d="M357.1,218.1c-1.6,3.9-3.4,7.8-5.3,11.6"/>
<path fill="none" stroke="#000000" stroke-miterlimit="10" d="M360.4,222.4c0.1,4.1-0.4,8.3-1.4,12.3"/>
<path fill="none" stroke="#000000" stroke-miterlimit="10" d="M373.1,231.3c0.5,1.1-0.3,2.3-1.1,3.2c-0.9,1-1.8,2.1-2.7,3.1
	c-1.1,1.3-2.3,2.7-4,2.8"/>
<path fill="none" stroke="#000000" stroke-miterlimit="10" d="M293.9,255.7c5.4,0.1,10.8,0.2,16.2,0.3"/>
<path fill="none" stroke="#000000" stroke-miterlimit="10" d="M291.3,287.3c1.3,1.8,3.2,2.9,5.3,3.5c2.1,0.6,4.2,0.8,6.4,1
	c5.2,0.4,10.4,0.8,15.6,1.2"/>
<path fill="none" stroke="#000000" stroke-miterlimit="10" d="M479.9,260.6c-3.7-1.3-6.9-3.6-10.5-5.3c-3.5-1.7-7.7-2.7-11.4-1.3
	c-2,0.8-3.7,2.3-5.3,3.7c-5,4.5-10,9-14.6,13.9c-3.4,3.7-6.6,7.7-9.4,11.9"/>
<path fill="none" stroke="#000000" stroke-miterlimit="10" d="M479.8,248.7c-3.2-1.2-6.7-2.3-9.9-1.4c-2,0.5-3.7,1.8-5.3,3.2
	c-3.9,3.2-7.5,7-10.9,10.8c-6.9,7.7-13.4,15.9-19.4,24.4"/>
<path fill="none" stroke="#000000" stroke-miterlimit="10" d="M507.4,254c-6.6-3.3-11.9-10-19.3-10.4c-6.6-0.4-12.3,4.5-16.8,9.5
	c-5.6,6.1-10.6,12.8-14.1,20.2"/>
<path fill="none" stroke="#000000" stroke-miterlimit="10" d="M518.4,258.3c0.5-6.3-4.9-12.1-11.1-13.5c-6.2-1.5-12.7,0.5-18.3,3.6
	s-10.4,7.3-15.8,10.7"/>
<path fill="none" stroke="#000000" stroke-miterlimit="10" d="M513.5,267.2c-0.2-5,2.8-9.5,5.7-13.6c1.1-1.6,2.4-3.4,4.3-4
	c0.9-0.3,1.8-0.3,2.8-0.3c2,0,3.9,0.1,5.8,0.5c5.6,1.2,10.6,5.4,12.6,10.8"/>
<path fill="none" stroke="#000000" stroke-miterlimit="10" d="M524.8,260.8c3.6-2.9,9-2.5,13.3-0.6c5.1,2.2,9.4,6.3,11.9,11.2"/>
<path fill="none" stroke="#000000" stroke-miterlimit="10" d="M511.3,262.4c-1.5-5.8-4.7-11.6-10.1-14.2c-2.7-1.3-5.7-1.7-8.6-2
	c-7.9-0.8-15.8-0.9-23.7-1c-4.8,0-9.6,0-14.3,1.2c-8.1,2.1-15,7.9-20,14.6c-5,6.8-8.5,14.5-11.9,22.2"/>
<path fill="none" stroke="#000000" stroke-miterlimit="10" d="M522,279.7c4.3,0,8.6,0,13,0.1c2.7,0,5.3,0,7.9,0.7"/>
<path fill="none" stroke="#000000" stroke-miterlimit="10" d="M506.6,300.3c4.1,2.9,9.3,3.9,14.4,4.2c5.1,0.3,10.2,0,15.2,0.7"/>
</svg>
