<?xml version="1.0" encoding="utf-8"?>
<!-- Generator: Adobe Illustrator 19.1.0, SVG Export Plug-In . SVG Version: 6.00 Build 0)  -->
<svg version="1.1" id="page10" xmlns="http://www.w3.org/2000/svg" xmlns:xlink="http://www.w3.org/1999/xlink" x="0px" y="0px"
	 viewBox="0 0 800 600" enable-background="new 0 0 800 600" xml:space="preserve">
<path fill="none" stroke="#000000" stroke-miterlimit="10" d="M457.5,183.7c2.1-4,6.6-6.6,11.2-6.4c3.1,0.1,6,1.4,8.7,2.8
	c1.9,1,3.8,2.1,4.7,4c0.9,1.9,0.3,4.6-1.7,5.3c4.9,2.8,7.5,9.1,5.9,14.6c-4.3-1.8-9.3-2-13.8-0.7c-4.4,1.3-9.1,4.1-13.4,2.4
	c-0.5-3.1-0.9-6.1-1.4-9.2c-0.1-0.8-0.2-1.9,0.6-2.3c-3,0.6-5.9,1.2-8.9,1.8c-0.8,0.2-1.6,0.3-2.4,0.1c-0.8-0.2-1.4-0.8-1.9-1.5
	c-2.2-2.8-3-7.2-0.8-10c2.3-2.8,7.8-2.3,8.7,1.2"/>
<path fill="none" stroke="#000000" stroke-miterlimit="10" d="M501.4,243c2.5-4.5,8.5-5.7,13.6-5.1c2.9,0.3,6.1,1.2,7.7,3.6
	c1.7,2.4,0.7,6.6-2.3,7c5.3,1.2,9.1,7.2,7.8,12.5c-1.2,5.3-7.2,9-12.5,7.8c-2.6-0.6-5.3-3-4.5-5.6c-4.1,1.3-8.1,2.5-12.2,3.8
	c-2.4,0.7-4.9,1.5-7.4,1.2s-5-1.9-5.5-4.4c-0.6-3,1.8-5.7,2.7-8.7c1.4-4.5-0.9-9.4,0.3-14c2.3-0.6,4.9,0.6,6.4,2.5
	c1.6,1.9,2.3,4.2,3.1,6.6"/>
<path fill="none" stroke="#000000" stroke-miterlimit="10" d="M345.9,215.2c10.6-6.3,21.6-12.5,33.6-14.9
	c19.1-3.8,39.5,2.6,54.8,14.6s26.1,29.2,33.2,47.4"/>
<path fill="none" stroke="#000000" stroke-miterlimit="10" d="M294.3,236.3c-7.2-0.3-14.4-3.9-21.5-2.3c-3.9,0.9-7.2,3.2-10.4,5.5
	c-6.4,4.7-12.6,9.8-17.6,15.9c-5,6.2-8.6,13.6-9.2,21.6c-0.5,6.5,1.9,14,8,16.3"/>
<path fill="none" stroke="#000000" stroke-miterlimit="10" d="M281.7,354c-2,7-2.8,14.4-2.3,21.7c0.2,4.2,0.9,8.5,3.3,11.9
	c1.8,2.6,4.4,4.4,7,6.1c20.1,13.2,44.4,20,68.4,19.1"/>
<path fill="none" stroke="#000000" stroke-miterlimit="10" d="M485.5,339.8c15.5,9.2,25.4,27,25.1,45c0,2.1-0.2,4.2-0.9,6.1
	c-1.7,4.5-6.2,7.4-10.5,9.5c-17.2,8.5-37.4,10.7-56.1,6.1"/>
<path fill="none" stroke="#000000" stroke-miterlimit="10" d="M339.3,339.4c1.2,8.3,7.2,15.1,13.6,20.5c2.7,2.3,5.6,4.5,9,5.6
	c3,0.9,6.1,0.9,9.2,0.9c11,0,22,0,33-0.1c1.1,0,2.8-1,2-1.8"/>
<path fill="none" stroke="#000000" stroke-miterlimit="10" d="M411.2,274c6.2,9.1,12.2,18.4,17.8,27.8c1,1.6,2,3.3,2.5,5.1
	c1.7,6.1-3.3,13.1-9.6,13.6"/>
<path fill="none" stroke="#000000" stroke-miterlimit="10" d="M301.3,192.6c4-2.1,9.2-1.7,12.8,1.1c2.2,1.7,3.8,4.4,3.5,7.1
	s-3,5.2-5.7,4.6c1.8,1.7,3.6,3.4,4.5,5.7c0.9,2.3,0.7,5.2-1.2,6.7c-0.8,0.7-1.9,1-2.9,1.3c-5.8,1.6-11.9,2.1-17.9,1.5
	c-0.6-0.1-1.3-0.2-1.7-0.6c-0.5-0.4-0.6-1.1-0.8-1.7c-0.5-2.3-1-4.6-1.5-6.8c-0.5-2.3-0.4-5.4,1.8-5.9c-5.7,2-11.7,3.1-17.7,3.2
	c-1-3.2-1.7-6.5-2.3-9.8c-0.1-0.8-0.3-1.7,0.2-2.5c0.5-0.9,1.5-1.2,2.5-1.5c3-0.8,5.9-1.7,8.9-2.5c0.8-4,2.7-8.1,6.4-9.8
	c3.7-1.7,9.1,0.4,9.3,4.5c0.1,2-0.9,4.4,0.5,5.8"/>
<path fill="none" stroke="#000000" stroke-miterlimit="10" d="M216.5,230.8c-3.2-3.9-9-5.5-13.7-3.6c-4.7,1.9-7.9,7-7.4,12
	c0.1,0.6,0.2,1.3,0.7,1.7c0.4,0.3,1,0.4,1.6,0.4c3.2,0.1,6.4,0.1,9.6,0.2c-6.2,1.7-11,7.7-11.5,14.1c-0.1,0.9,0,1.9,0.5,2.6
	c0.7,1.1,2.2,1.3,3.5,1.5c5.5,0.8,11.2,1.5,16.4-0.3s9.6-7.3,8.4-12.7c5.7,1.1,11.5,1.4,17.2,1c0.3-3,0.5-6,0.8-9.1
	c0.1-1.2,0.2-2.6-0.6-3.5c-1.7-2.1-5.5-0.5-7.3-2.4c-1.3-1.4-0.7-3.6-0.9-5.5c-0.6-4.1-6-6.1-9.8-4.5s-6.1,5.6-7.4,9.5"/>
<path fill="none" stroke="#000000" stroke-miterlimit="10" d="M209.3,334.5c-3.9,1.3-7.5-3.7-6.6-7.7c0.9-4,4.4-6.8,7.7-9.3
	c-1.1-4.3,0.6-9.5,4.3-12c1.2-0.8,2.7-1.4,4.2-1.4c2.8,0.1,5.1,2.3,6.2,4.9c1.1,2.6,1.1,5.4,1.1,8.2c4.3-0.9,8.5-1.8,12.8-2.7
	c2.4,4.2,4.5,10.1,0.9,13.4c-2.1,1.9-5.6,2.1-7.2,4.5c1.6,2.7,1.5,6.3-0.3,9s-4.9,4.2-8,4.2c-1.9,0-4.1-0.7-4.9-2.5
	c-0.4-0.9-0.4-1.8-0.5-2.8c-0.7-4.8-5.8-8.4-10.5-7.5"/>
<path fill="none" stroke="#000000" stroke-miterlimit="10" d="M349.1,195.5c-0.9,1.1-1.8,2.2-2.7,3.3c-8.1-16.4-14.3-33.8-18.4-51.6
	"/>
<path fill="none" stroke="#000000" stroke-miterlimit="10" d="M376.1,191.4c32.4-18.8,64.9-37.6,97.3-56.4"/>
<path fill="none" stroke="#000000" stroke-miterlimit="10" d="M522.6,314.3c4.6-1.1,9.6-1.1,13.9,0.9c4.3,2,7.8,6.2,8,10.9
	c0,0.9-0.1,2-0.9,2.5c-0.5,0.3-1.2,0.3-1.8,0.3c-2.7,0-5.4-0.1-8.1-0.1c1,3.2,1.4,6.6,1.2,9.9c0,0.9-0.2,1.8-0.8,2.4
	c-0.5,0.5-1.3,0.6-2.1,0.7c-3.2,0.4-6.3,0.9-9.5,1.3c-3.7,0.5-8,0.8-10.5-1.8c-2.9-3-2-7.8-0.9-11.8c-3-1.1-6.3-1.1-9.3-0.1
	c-2.3-3.2-3.9-6.9-4.6-10.8c-0.4-2-0.4-4.4,1.1-5.7c0.8-0.8,1.9-1.1,3-1.4c4-1.2,7.7-3.2,11-5.8c1.1-0.9,2.3-1.9,3.7-2.2
	c2.4-0.4,4.8,1.6,5.5,3.9c0.8,2.4,0.4,4.9,0,7.3"/>
<path fill="none" stroke="#000000" stroke-miterlimit="10" d="M409.8,415.1c8.2-2.7,17.9,0.9,22.5,8.1c1.3,2.1,2.2,4.5,1.7,6.9
	c-0.6,2.7-3,4.7-5.5,6c-4.3,2.2-9.4,2.9-14.2,2c1.3,4.8-1.4,10.4-6,12.4c-4.1,1.8-8.8,0.8-13.3,0.5c-2.2-4.4-3.7-9.2-4.3-14.1
	c-4.5,6-14.9,6.1-19.5,0.2c-4.6-6-1.7-16.1,5.4-18.6c2.1-0.8,4.6-0.9,6.5,0.4c1.9,1.2,2.8,4,1.6,5.9c-0.9-3.5-1.4-7-1.5-10.6
	c0-1.7,0.1-3.6,1.3-4.8c0.6-0.6,1.5-1,2.3-1.4c2.6-1.1,5.3-2.3,7.9-3.4c2.2,1.1,2.5,4,3.1,6.4c0.6,2.4,2.9,5.1,5,3.9
	c1-0.5,3.3,2.1,4.4,2.1"/>
<path fill="none" stroke="#000000" stroke-miterlimit="10" d="M252.2,429.5c1.3-3.6,5.6-5.5,9.3-4.5c3.6,1.1,6.2,4.7,6.5,8.5
	c0.1,0.8,0,1.6-0.4,2.2c-0.5,0.9-1.5,1.4-2.4,1.8c-3.6,1.6-7.1,3.3-10.7,4.9c3.5,3,1.4,9.4-2.8,11.4s-9.2,0.8-13.5-0.9
	c-1.2-0.4-2.4-1.1-2.7-2.3c-0.3-1.1,0.4-2.4,0-3.5c-0.7-1.7-3.1-1.5-5-1.3c-3.3,0.3-6.8-0.7-9.4-2.8c-1.1-3.7-1.1-7.9,1.2-11.1
	c2.2-3.1,7-4.5,10.1-2.3c1.2-4.6,6.7-6.4,11.5-6.9c2.6-0.2,5.3-0.2,7.5,1.2c2.2,1.4,3.3,4.6,1.7,6.7"/>
<path fill="none" stroke="#000000" stroke-miterlimit="10" d="M436.5,409.8c19.5,20.1,38.9,40.1,58.4,60.2"/>
<path fill="none" stroke="#000000" stroke-miterlimit="10" d="M350.7,424.3c-26.2,20.2-46.2,48.2-56.9,79.5"/>
<path fill="none" stroke="#000000" stroke-miterlimit="10" d="M267.3,324.7c-21,26.2-42,52.3-63,78.5"/>
<path fill="none" stroke="#000000" stroke-miterlimit="10" d="M272.8,334.2c-28.6,29.2-52.8,62.6-71.6,98.9"/>
<path fill="none" stroke="#000000" stroke-miterlimit="10" d="M463.6,287.9c39.3-8.2,78.5-16.4,117.8-24.5"/>
<path fill="none" stroke="#000000" stroke-miterlimit="10" d="M467.7,296.7c50.4,0.9,100.9,0.6,151.3-0.9"/>
<path fill="none" stroke="#000000" stroke-miterlimit="10" d="M249.4,303.9c-37.9-4.6-75.8-9.3-113.7-13.9"/>
<path fill="none" stroke="#000000" stroke-miterlimit="10" d="M313,229.9c-35.6-13.9-72.5-24.5-110.1-31.5"/>
<path fill="none" stroke="#000000" stroke-miterlimit="10" d="M347.7,426.8c15.9-13.2,33.8-23.8,52.9-31.4"/>
<path fill="none" stroke="#000000" stroke-miterlimit="10" d="M439.7,412.9c-11-11.4-23-21.9-35.7-31.4"/>
<path fill="none" stroke="#000000" stroke-miterlimit="10" d="M348.3,296c6,1.3,11.6,4.3,16.1,8.5c-0.5,2.7-2.9,4.9-5.6,5.2
	c-1.1,0.1-2.2,0-3.1,0.5c-2.6,1.5-0.9,5.5-1.4,8.4c-0.7,3.8-5.2,5.5-9,5.4c-2.9,0-5.9-0.7-8-2.7s-3-5.4-1.5-7.8
	c-0.6,4.2-5.9,6.3-10,5.1c-4.4-1.2-7.9-5.4-8.1-10c-0.2-4.6,3.2-9.1,7.8-10c3.1-0.6,6.7,0.9,7.7,3.8c0.3-5.1,1.4-11.4,6.3-12.9
	c2.4-0.8,5.1,0,7.5,0.8c1.6,0.5,3.3,1.1,4.2,2.5c0.9,1.4,0.3,3.8-1.4,3.9"/>
<text transform="matrix(1 0 0 1 235.6226 105.2195)" font-family="'YouYuan'" font-size="36px">甚至打作一团</text>
</svg>
