<?xml version="1.0" encoding="utf-8"?>
<!-- Generator: Adobe Illustrator 21.0.0, SVG Export Plug-In . SVG Version: 6.00 Build 0)  -->
<svg version="1.1" id="page12" xmlns="http://www.w3.org/2000/svg" xmlns:xlink="http://www.w3.org/1999/xlink" x="0px" y="0px"
	 viewBox="0 0 800 600" enable-background="new 0 0 800 600" xml:space="preserve">
<line fill="none" stroke="#000000" stroke-miterlimit="10" x1="395" y1="73" x2="395" y2="431.8"/>
<path fill="none" stroke="#000000" stroke-miterlimit="10" d="M141.7,193.4c6.5,4.9,14.4,7.5,22.2,9.4c29.7,7.2,62.8,4.9,88.4-11.8
	c8.8-5.7,17-14,17.9-24.5c1.2-15-13.1-26.5-26.9-32.5c-24.9-10.9-52.8-13.3-80-12.7C128.8,122.2,114,172.5,141.7,193.4z"/>
<path fill="none" stroke="#000000" stroke-miterlimit="10" d="M180,187.3c8,0.9,16,1.1,24,0.6"/>
<path fill="none" stroke="#000000" stroke-miterlimit="10" d="M153.4,158c0.3-4.4,4.2-8.3,8.6-8.5c4.4-0.3,8.7,3.1,9.5,7.4"/>
<path fill="none" stroke="#000000" stroke-miterlimit="10" d="M202.5,159.2c3.1-4.3,7.6-7.6,12.6-9.4c1.8-0.6,3.8-1.1,5.7-0.5
	c4.4,1.3,5.5,7,5.8,11.7"/>
<path fill="none" stroke="#000000" stroke-miterlimit="10" d="M146.9,127.3c-4.4-4.3-8.7-8.5-13.1-12.8c-4.8-4.7-11.1-9.7-17.4-7.6
	c-3.1,1.1-5.4,3.7-7.3,6.3c-9.4,12.9-11,26.2-14,41.3c-1.9,9.6-6,18.4-7.4,28.2"/>
<path fill="none" stroke="#000000" stroke-miterlimit="10" d="M176.7,129.4c-4.5-12.3-15.7-21.8-28.5-24.2c-2.8-0.5-5.8-0.7-8.4,0.3
	c-5.8,2.2-8.2,8.9-10,14.8c-3.9,13.4-7.8,26.7-11.8,40.1"/>
<path fill="none" stroke="#000000" stroke-miterlimit="10" d="M191.3,130.3c-1-2.5-1.9-5.1-2.9-7.6c-3-7.8-6.5-16.2-13.8-20.3
	c-9.8-5.4-21.9-0.8-32,4.2c-6.5,3.3-13.1,6.7-18.6,11.4s-10.1,11-11.6,18.1"/>
<path fill="none" stroke="#000000" stroke-miterlimit="10" d="M197.8,129c-2.1-3.5,1.1-7.7,4.1-10.4c13.3-11.8,29.5-21.5,47.3-22.3
	c17.8-0.7,36.8,9.9,41,27.2c1.6,6.6,1,13.6,0.4,20.3"/>
<path fill="none" stroke="#000000" stroke-miterlimit="10" d="M210.1,128.7c12.7-1.7,25.5-3.4,38.2-5.1c6.1-0.8,12.4-1.6,18.2,0.3
	c9.4,3.1,15.2,12.4,20.1,21c2,3.4,3.9,6.8,5.9,10.2"/>
<path fill="none" stroke="#000000" stroke-miterlimit="10" d="M200.4,125.8c11.5-5.2,23.4-9.6,35.6-13.2c7.6-2.3,15.8-4.2,23.4-1.8
	c5.3,1.7,9.7,5.4,13.9,9c10.5,8.9,21.4,18.3,26.1,31.2"/>
<path fill="none" stroke="#000000" stroke-miterlimit="10" d="M233.8,137.5c10.7,0.8,21.5,1.6,32.2,2.3c3.4,0.2,6.8,0.5,9.9,1.8
	c4,1.6,7.1,4.8,10.1,7.9c4.8,4.9,9.7,10,12.2,16.4"/>
<path fill="none" stroke="#000000" stroke-miterlimit="10" d="M191.4,120.1c2.1-1.7,4.2-3.4,6.3-5.1c8.9-7.3,18.2-14.7,29.3-17.6
	c12.7-3.3,26.4,0,37.8,6.5c11.3,6.6,20.6,16.2,28.8,26.4"/>
<path fill="none" stroke="#000000" stroke-miterlimit="10" d="M197.9,128c-3.3-8.5-8.2-16.3-14.4-22.9c-1.8-1.9-3.7-3.7-6.1-4.8
	c-2.3-1-4.8-1.3-7.3-1.8c-7.5-1.5-14.6-4.8-22.2-5c-11.6-0.3-22.9,7.6-26.6,18.6"/>
<path fill="none" stroke="#000000" stroke-miterlimit="10" d="M156,204.1c-31.5,10.8-61.7,25.3-89.9,43.2c-5.2,3.3-11,8-10.5,14.1
	c10.1,4.8,20.2,9.5,30.3,14.3c3.5,1.6,7.2,3.3,11.1,2.9c3.5-0.4,6.4-2.6,9.3-4.5c18.9-13.1,40.2-22.9,62.4-28.7
	c-1.7,21.4-5.6,42.6-11.5,63.2c28.1,1.2,56.2,1,84.2-0.3c2.3-0.1,4.9-0.3,6.5-2c2-2.1,1.6-5.5,1.1-8.4c-3.7-18.2-9.5-35.9-17.3-52.7
	c30.2,11.1,60.4,22.3,90.5,33.4c5.7-10.5,9.6-22,11.4-33.8c-36-5.9-70.4-21.4-98.5-44.7"/>
<path fill="none" stroke="#000000" stroke-miterlimit="10" d="M156,307c10.9,40.6,13.5,83.4,7.6,125c10.5,0,21.1,0,31.6,0
	c1.8,0,3.9-0.1,5.2-1.4c1.3-1.4,1.2-3.5,1.1-5.4c-2.1-27.4,0.1-55.1,6.4-81.8c6.4,28.9,9.2,58.6,8.5,88.2c14.2-6,29.4-9.7,44.8-10.9
	c-1.5-36.9-16.6-72.7-14.4-109.6"/>
<path fill="none" stroke="#000000" stroke-miterlimit="10" d="M164,431.8c-7.1,0-14.1,3-19.2,8c16.8,0.3,33.7,0.4,50.5,0.2
	c1.3,0,2.6,0,3.6-0.7c1.1-0.7,1.6-2.3,0.8-3.2"/>
<path fill="none" stroke="#000000" stroke-miterlimit="10" d="M258.3,422.7c6.1-3.1,14.6-0.2,17.5,6c0.3,0.6,0.5,1.3,0.3,1.9
	c-0.4,0.9-1.5,1.1-2.4,1.2c-19.5,2.3-39.2,3-58.8,1.9"/>
<text transform="matrix(1 0 0 1 166 502)"><tspan x="0" y="0" font-family="'YouYuan'" font-size="36px">你为了我穿得保守，为了我，</tspan><tspan x="0" y="43.2" font-family="'YouYuan'" font-size="36px">不再与别的男性嬉笑</tspan></text>
<path fill="none" stroke="#000000" stroke-miterlimit="10" d="M458,234c1.1,16.8,1.4,33.7,0.8,50.6c12.1-14.8,19.2-34.5,35.8-43.9
	c2.1-1.2,4.8-2.2,6.9-0.8c1.3,0.9,1.9,2.5,2.4,4c4.5,13.6,6.6,28,6.3,42.3c2.4-8.9,4.7-17.7,7.1-26.6c1.2-4.5,2.5-9.3,5.6-12.8
	c4.3-5.1,12.1-6.9,18.3-4.3c2.2,15.1,2.7,30.4,1.7,45.6"/>
<path fill="none" stroke="#000000" stroke-miterlimit="10" d="M607.2,255.6c2.5-5.4-1.6-12.1-7-14.5s-11.7-1.8-17.7-1.1
	c-1.5,0.2-3.1,0.4-4.4,1.2c-1,0.6-1.7,1.6-2.3,2.5c-9.1,13-13.6,29.1-12.6,44.9c0.1,1.1,0.2,2.3,0.8,3.3c1,1.5,3,2,4.8,2.4
	c6.9,1.3,14.4,1.5,20.7-1.6c5.8-2.9,9.9-8.5,12.4-14.5c2.5-6,3.5-12.5,4.5-18.9c-2,11.1,0,22.8,5.4,32.7"/>
<path fill="none" stroke="#000000" stroke-miterlimit="10" d="M638.1,236.9c-2.1-0.6-3.2,2.5-3.2,4.7c0,19.3,0.1,38.7,0.1,58
	c-1.8-12,3-24.1,8.4-34.9c1.8-3.7,3.9-7.5,7.3-9.8c4-2.7,9.4-2.9,13-6.1c1.8-1.6,3.6-4.1,6-3.7c2.5,0.4,3.3,3.5,3.6,5.9
	c2.3,17.9,3.3,35.9,3.1,54"/>
<path fill="none" stroke="#000000" stroke-miterlimit="10" d="M669.5,169.5c-66.6,61.7-139.2,117-216.3,164.8"/>
<path fill="none" stroke="#000000" stroke-miterlimit="10" d="M459.6,158.2c56.1,55.5,115.1,108,176.8,157.2
	c9.4,7.5,19.5,15.8,22,27.6"/>
</svg>
