<?xml version="1.0" encoding="utf-8"?>
<!-- Generator: Adobe Illustrator 21.0.0, SVG Export Plug-In . SVG Version: 6.00 Build 0)  -->
<svg version="1.1" id="page8" xmlns="http://www.w3.org/2000/svg" xmlns:xlink="http://www.w3.org/1999/xlink" x="0px" y="0px"
	 viewBox="0 0 800 600" enable-background="new 0 0 800 600" xml:space="preserve">
<path fill="none" stroke="#000000" stroke-miterlimit="10" d="M268.2,206.6c-9.8,11.8-17.4,25.7-20,40.8
	c-2.6,15.1,0.1,31.5,9.1,43.8c1.8,2.4,3.8,4.7,6.5,6.1c3.2,1.7,7,2,10.7,2c20.1-0.2,40.5-9.1,52.1-25.5
	c11.6-16.3,12.9-40.2,0.9-56.3c-3.3-4.5-7.6-8.3-12.8-10.3c-5-1.9-10.4-2-15.7-2.1c-8.4-0.1-16.8-0.3-25.2-0.4
	c-3.5-0.1-7.6,0.3-9.3,3.3c-1.1,2.1-2.7,5.6-4.4,4"/>
<path fill="none" stroke="#000000" stroke-miterlimit="10" d="M318.1,243.4c5.5,0,10.9,0,16.4,0"/>
<path fill="none" stroke="#000000" stroke-miterlimit="10" d="M292.7,277.8c9.8,0,19.6,0,29.4,0"/>
<path fill="none" stroke="#000000" stroke-miterlimit="10" d="M359.9,264.1c-3.2,2.5-6.3,5.1-9.5,7.6"/>
<path fill="none" stroke="#000000" stroke-miterlimit="10" d="M350.8,262.2c2,3.8,4.8,7.2,8,9.9"/>
<path fill="none" stroke="#000000" stroke-miterlimit="10" d="M388.4,246.4c-5,0.9-9.9,2.4-14.6,4.5"/>
<path fill="none" stroke="#000000" stroke-miterlimit="10" d="M373.4,241.1c3.4,4.8,6.8,9.6,10.2,14.4"/>
<path fill="none" stroke="#000000" stroke-miterlimit="10" d="M413.8,242.6c-4.6,3.8-9.3,7.6-13.9,11.4"/>
<path fill="none" stroke="#000000" stroke-miterlimit="10" d="M394.5,236.5c5.8,5.7,11.3,11.7,16.4,18"/>
<path fill="none" stroke="#000000" stroke-miterlimit="10" d="M403.1,269.6c-6.5,2.2-13.1,4.4-19.6,6.5"/>
<path fill="none" stroke="#000000" stroke-miterlimit="10" d="M385.2,265.5c2.3,3.5,4.6,6.9,6.9,10.4c1.2,1.8,3.5,3.8,5.2,2.5"/>
<path fill="none" stroke="#000000" stroke-miterlimit="10" d="M419.6,275.4c-3.6,4.2-8.5,7.3-13.9,8.5c0-0.7,0-1.4,0-2.1"/>
<path fill="none" stroke="#000000" stroke-miterlimit="10" d="M405.6,276.1c3.4,5.4,7.5,10.4,12.1,14.9"/>
<path fill="none" stroke="#000000" stroke-miterlimit="10" d="M382.1,301.4c-2.2-4.6-5.7-8.6-10.1-11.2"/>
<path fill="none" stroke="#000000" stroke-miterlimit="10" d="M381.9,290.9c-4.6,5.2-9.3,10.4-13.9,15.5"/>
<path fill="none" stroke="#000000" stroke-miterlimit="10" d="M408,294.9c-4.4,1.6-8.7,3.3-13.1,4.9"/>
<path fill="none" stroke="#000000" stroke-miterlimit="10" d="M395.4,292.9c4.9,4.9,9.8,9.8,14.7,14.8"/>
<path fill="none" stroke="#000000" stroke-miterlimit="10" d="M433.5,297c-2.7,6.9-7.5,12.9-13.7,17c-0.6,0.4-1.3,0.8-2,0.6
	c-0.7-0.2-1.1-1.2-0.5-1.6"/>
<path fill="none" stroke="#000000" stroke-miterlimit="10" d="M417.2,302c5.5,4.4,11.1,8.7,16.7,12.8"/>
<path fill="none" stroke="#000000" stroke-miterlimit="10" d="M478.4,272.1c-0.6,7.7-1.3,15.4-1.9,23.1c-0.6,6.9-0.9,14.6,3.4,20.1
	c5,6.3,14.1,7.1,22.1,6.7c20.7-0.9,41.2-6.3,59.7-15.6c1.6-0.8,3.3-1.7,4.4-3.2c1.3-1.8,1.6-4.1,1.8-6.3c0.7-7.3,1.4-14.7-0.1-21.8
	c-1.5-7.1-5.7-14.1-12.3-17.2c-6.3-3-13.6-2-20.5-2.2c-14.2-0.3-29.5-5-41.9,1.9c-8.2,4.6-13.1,13.4-17.4,21.9
	c5.5-0.6,15.3-0.9,20.7-1.5"/>
<path fill="none" stroke="#000000" stroke-miterlimit="10" d="M476.8,302.2c7.7,3.6,16,5.9,24.5,6.8"/>
<path fill="none" stroke="#000000" stroke-miterlimit="10" d="M270.6,300.6c1.5,20.9-5.5,41.4-6.9,62.3
	c-19.7,25.1-38.5,54.4-54.1,82.2"/>
<path fill="none" stroke="#000000" stroke-miterlimit="10" d="M265.1,365.5c5-2.3,10.5,1.7,14.5,5.5c3.5,3.3,7,6.5,10.5,9.8
	c5.7,5.3,11.6,11.1,13.1,18.8c1.1,5.5-0.5,11.3,0.4,16.9c1.1,7.3,5.9,13.5,7.8,20.6"/>
<path fill="none" stroke="#000000" stroke-miterlimit="10" d="M268.1,331.1c24.4,0.8,47.8-8.4,72-11.5c-1,3,0.4,1.8-0.6,4.9
	c3.1-0.1,6.4-0.3,9.1-1.9c2.7-1.7,4.3-5.4,2.7-8.1c-2-3.4-7.7-2.6-10.1,0.6s-2.5,7.5-2.5,11.4c3.6-1.7,6.4-4.8,7.8-8.4
	c0.2-0.6,0.4-1.2,0.3-1.8c-0.3-1.6-2.6-1.9-3.9-1s-1.8,2.6-2.3,4.1c2.8-0.7,5.6-1,8.5-1c-1.6,1.5-3.5,2.7-5.6,3.5
	c-0.3-2.2,1.9-4.4,4.1-4.2"/>
<path fill="none" stroke="#000000" stroke-miterlimit="10" d="M347.5,314.6c4.6,0,9.3,0,13.9,0"/>
<path fill="none" stroke="#000000" stroke-miterlimit="10" d="M508.4,322.8c0.5,17.6-1.2,35.2-4.9,52.5"/>
<path fill="none" stroke="#000000" stroke-miterlimit="10" d="M431.3,335.1c-0.5,1.8,1.5,3.5,3.3,3.3s3.2-1.8,3.7-3.6
	s0.4-3.6,0.2-5.4c-0.2-1.7-0.7-3.8-2.4-4c-1.1-0.1-2,0.6-2.8,1.4c-2,1.9-4,4-4.6,6.6s1,6,3.7,6.3c3.4,0.4,5.6-4.3,3.9-7.3
	s-5.7-3.9-9-3.3c-3.1,0.5-6.4,2.5-6.8,5.6c-0.5,4.1,3.9,7,7.8,8.3c2.4,0.8,5,1.5,7.5,1c2.5-0.4,4.9-2.3,5.4-4.8s-2-5.3-4.5-4.7
	c-2.5,0.6-3.3,3.6-3.6,6.2c3.2,0.5,6-3.4,4.8-6.4s-5.3-4.2-8.1-2.6c-4.1,2.4-3.5,9.7,0.9,11.3c-1.2-2.1-1.9-4.5-2-6.9
	c1.8-1.3,4.5-0.9,5.9,0.8c1.3,1.7,3.8,1.5,2.1,2.9c23-0.1,45.9,1.3,68.7,4.3"/>
<path fill="none" stroke="#000000" stroke-miterlimit="10" d="M408,328.6c8.8-1,17.9,0.9,25.5,5.4"/>
<path fill="none" stroke="#000000" stroke-miterlimit="10" d="M501.2,375.9c-5.1,9.9-12.2,18.7-17.9,28.3s-10.1,20.6-9,31.7
	c1.9-2,3.8-4,5.7-6"/>
<path fill="none" stroke="#000000" stroke-miterlimit="10" d="M511.1,371c20.2,20.2,40.3,40.3,60.5,60.5"/>
<path fill="none" stroke="#000000" stroke-miterlimit="10" d="M240.4,223.8c3.5,1.9,7.1,3.8,10.6,5.7"/>
<path fill="none" stroke="#000000" stroke-miterlimit="10" d="M251.2,216.2c2.4,1.7,4.7,3.5,7.1,5.2"/>
<path fill="none" stroke="#000000" stroke-miterlimit="10" d="M258.4,211.5c0.7,1.8,2.2,3.4,4,4.1"/>
<path fill="none" stroke="#000000" stroke-miterlimit="10" d="M262.5,201.7c1.1,1.4,2.2,2.7,3.3,4.1"/>
<path fill="none" stroke="#000000" stroke-miterlimit="10" d="M274,200.9c0.7,1.8,2.2,3.4,4,4.1"/>
<path fill="none" stroke="#000000" stroke-miterlimit="10" d="M285.4,199.3c-0.3,2.2,0,4.5,0.8,6.5"/>
<path fill="none" stroke="#000000" stroke-miterlimit="10" d="M299.3,203.4c0,1.1,0,2.2,0,3.3"/>
<path fill="none" stroke="#000000" stroke-miterlimit="10" d="M308.3,199.3c0,1.6,0,3.3,0,4.9"/>
<path fill="none" stroke="#000000" stroke-miterlimit="10" d="M319.7,204.2c0,2.2,0,4.4,0,6.5"/>
<path fill="none" stroke="#000000" stroke-miterlimit="10" d="M333.6,213.2c-0.8,2.2-2.2,4.3-4.1,5.7"/>
<path fill="none" stroke="#000000" stroke-miterlimit="10" d="M334.4,227.1c0,1.1,0,2.2,0,3.3"/>
<path fill="none" stroke="#000000" stroke-miterlimit="10" d="M484.4,267.4c3.8-7.9,7.8-16.1,14.6-21.7s17.1-7.9,24.3-3"/>
<path fill="none" stroke="#000000" stroke-miterlimit="10" d="M497.1,256.1c28-5.4,56.6-8.2,85.1-8.3"/>
<path fill="none" stroke="#000000" stroke-miterlimit="10" d="M509.4,251.6c6.1-5.6,15.3-5.9,23.6-5.8c8.1,0,16.3,0.1,24.4,0.1
	c1.5,0,3,0,4.4,0.6c10.8,4.1,11.3,22.3,15.9,31.1"/>
<path fill="none" stroke="#000000" stroke-miterlimit="10" d="M538.1,255.1c14.1-0.9,29.4-1.5,40.9,6.7c5.4,3.8,9.5,9.5,11.5,15.8"
	/>
<path fill="none" stroke="#000000" stroke-miterlimit="10" d="M480.1,264.7c-1.3-8.8,2.1-18.1,8.7-24s16.2-8.3,24.8-6
	c7.7,2,14.9,7.5,22.8,6.3"/>
<path fill="none" stroke="#000000" stroke-miterlimit="10" d="M479.9,269.5c-2.7,2.4-5.5,4.9-8.2,7.3"/>
<path fill="none" stroke="#000000" stroke-miterlimit="10" d="M480.8,264.4c-2.8-0.8-5.8-1.6-8.6-0.8c-2.8,0.9-5,4.2-3.6,6.8"/>
<path fill="none" stroke="#000000" stroke-miterlimit="10" d="M491.4,259c-6.9-0.1-13.9-0.1-20.8-0.2c-2.9,0-6.3,0.2-7.9,2.6"/>
<path fill="none" stroke="#000000" stroke-miterlimit="10" d="M293.5,278.6c7.9,0.8,15.7,3,22.9,6.4"/>
<path fill="none" stroke="#000000" stroke-miterlimit="10" d="M500.4,310.6c-7.1-0.5-14.2-0.3-21.3,0.5"/>
<path fill="none" stroke="#000000" stroke-miterlimit="10" d="M267.3,326.1c-7.2-1.9-12.7-7.3-19-11.3c-13.4-8.4-30.3-9.9-43.3-18.8
	"/>
<path fill="none" stroke="#000000" stroke-miterlimit="10" d="M506.9,355.3c21-5.9,40.9-15.8,58.4-28.9"/>
<path fill="none" stroke="#000000" stroke-miterlimit="10" d="M424.5,266.3c2.8,3.9,5.6,7.7,8.4,11.6c0.7,1,3.5,0.5,4.6-0.1
	c-5.7,1.9-11.4,3.8-17.2,5.7"/>
<path fill="none" stroke="#000000" stroke-miterlimit="10" d="M456,294.3c-1.5-3.1-2.9-6.2-4.4-9.2"/>
<path fill="none" stroke="#000000" stroke-miterlimit="10" d="M440.7,286.8c-4.4,1.6-8.7,3.3-13.1,4.9"/>
<path fill="none" stroke="#000000" stroke-miterlimit="10" d="M431.7,282.7c3.2,4.1,6.5,8.2,9.7,12.3"/>
<path fill="none" stroke="#000000" stroke-miterlimit="10" d="M454.6,259.8c-1.1,3.2-3,6.1-5.6,8.3"/>
<path fill="none" stroke="#000000" stroke-miterlimit="10" d="M444,262.2c4.1,2.4,8.5,4.3,13.1,5.7"/>
<path fill="none" stroke="#000000" stroke-miterlimit="10" d="M455.5,245.1c-2.2,2.7-4.4,5.5-6.5,8.2"/>
<path fill="none" stroke="#000000" stroke-miterlimit="10" d="M446.4,245.1c4.4,2.1,8.6,4.8,12.5,7.9"/>
<text transform="matrix(1 0 0 1 152.4101 144.4734)" font-family="'YouYuan'" font-size="36px">当然，我们也免不了经常的争吵</text>
</svg>
