<?xml version="1.0" encoding="utf-8"?>
<!-- Generator: Adobe Illustrator 19.1.0, SVG Export Plug-In . SVG Version: 6.00 Build 0)  -->
<svg version="1.1" id="page11" xmlns="http://www.w3.org/2000/svg" xmlns:xlink="http://www.w3.org/1999/xlink" x="0px" y="0px"
	 viewBox="0 0 800 600" enable-background="new 0 0 800 600" xml:space="preserve">
<text transform="matrix(1 0 0 1 154.0371 143.1311)" font-family="'YouYuan'" font-size="36px">一起笑，一起烦烦</text>
<path fill="none" stroke="#000000" stroke-miterlimit="10" d="M168.1,201.3c-17.1,23.9-18.8,57.9-4.2,83.4c1.9,3.4,4.2,6.6,7.2,9.1
	c3.6,2.9,8.1,4.6,12.7,5.5c16.3,3.3,34.3-2.5,45.5-14.9c14.2-15.7,16.4-39.7,10.2-60c-2.1-6.8-5.2-13.6-10.1-18.7
	c-3.8-4-8.5-6.9-13.5-9.3c-9.6-4.7-20.6-7.6-31.1-5.4c-10.5,2.3-20.1,10.8-21,21.4"/>
<path fill="none" stroke="#000000" stroke-miterlimit="10" d="M282.3,242.2c-5.1,5.6-9.2,12.3-10.6,19.8c-1.4,7.4,0,15.6,4.9,21.4
	c3.4,4,8.1,6.7,13,8.6c10.3,4.1,21.5,5.5,32.6,5.5c12.1,0,24.8-1.7,34.4-9c9.6-7.3,14.9-21.4,9-32c-5.2-9.3-16.7-12.8-27.2-14.7
	c-22.1-3.9-45.7-4-66.2,5.3"/>
<path fill="none" stroke="#000000" stroke-miterlimit="10" d="M168.3,233.2c1.4,4.9,5.2,9.2,10.1,10.3c4.9,1.1,10.7-1.9,11.8-6.9"/>
<path fill="none" stroke="#000000" stroke-miterlimit="10" d="M203,231.6c-0.5,5.4,5.2,10.1,10.7,9.7c5.5-0.4,10-4.6,12.4-9.5"/>
<path fill="none" stroke="#000000" stroke-miterlimit="10" d="M290.9,258.3c-0.6,4.7,2.6,9.6,7.1,11c4.5,1.4,9.9-0.9,12-5.2"/>
<path fill="none" stroke="#000000" stroke-miterlimit="10" d="M324.6,259.1c0.3,3.9,2.7,7.6,6.2,9.4c3.5,1.8,8,1.6,11.3-0.5
	c1.9-1.2,3.5-3.5,2.4-5.4"/>
<path fill="none" stroke="#000000" stroke-miterlimit="10" d="M185.9,282.7c4-3.1,8.2-6.2,13.2-7c5-0.8,10.9,1.6,12.2,6.4"/>
<path fill="none" stroke="#000000" stroke-miterlimit="10" d="M309.4,287c3.3-3.3,7.8-6,12.4-5.5s9,5.1,7.7,9.6"/>
<path fill="none" stroke="#000000" stroke-miterlimit="10" d="M473.3,373.6c-17.1,23.9-18.8,57.9-4.2,83.4c1.9,3.4,4.2,6.6,7.2,9.1
	c3.6,2.9,8.1,4.6,12.7,5.5c16.3,3.3,34.3-2.5,45.5-14.9c14.2-15.7,16.4-39.7,10.2-60c-2.1-6.8-5.2-13.6-10.1-18.7
	c-3.8-4-8.5-6.9-13.5-9.3c-9.6-4.7-20.6-7.6-31.1-5.4c-10.5,2.3-20.1,10.8-21,21.4"/>
<path fill="none" stroke="#000000" stroke-miterlimit="10" d="M587.4,414.5c-5.1,5.6-9.2,12.3-10.6,19.8c-1.4,7.4,0,15.6,4.9,21.4
	c3.4,4,8.1,6.7,13,8.6c10.3,4.1,21.5,5.5,32.6,5.5c12.1,0,24.8-1.7,34.4-9c9.6-7.3,14.9-21.4,9-32c-5.2-9.3-16.7-12.8-27.2-14.7
	c-22.1-3.9-45.7-4-66.2,5.3"/>
<path fill="none" stroke="#000000" stroke-miterlimit="10" d="M476.8,413.3c1.8-2,3.6-4.1,5.9-5.5s5.3-1.9,7.7-0.7
	c3,1.5,4.7,5.3,8,6"/>
<path fill="none" stroke="#000000" stroke-miterlimit="10" d="M510.1,416.8c2.4-6.9,8.8-12.3,16-13.5c1.1-0.2,2.4-0.2,3.1,0.6
	c0.4,0.5,0.6,1.1,0.7,1.7c0.8,3.7,1.6,7.3,2.5,11"/>
<path fill="none" stroke="#000000" stroke-miterlimit="10" d="M493.7,448.7c4.5,6.5,15.7,6.6,20.3,0.1"/>
<path fill="none" stroke="#000000" stroke-miterlimit="10" d="M596.5,433.5c4.6-0.2,8.3-3.7,12.4-5.6c4.1-2,10.5-1.6,11.7,2.8"/>
<path fill="none" stroke="#000000" stroke-miterlimit="10" d="M634.2,430.1c1.6-2.7,3.7-5.7,6.8-6c2.5-0.3,4.9,1.2,6.4,3.2
	s2.2,4.5,2.8,6.9"/>
<path fill="none" stroke="#000000" stroke-miterlimit="10" d="M619.7,452.3c-1,3.1,2.4,6,5.6,6.8c6.5,1.4,13.7-2.1,16.6-8.2"/>
<path fill="none" stroke="#000000" stroke-miterlimit="10" d="M587.4,250.8c-5.1,5.6-9.2,12.3-10.6,19.8c-1.4,7.4,0,15.6,4.9,21.4
	c3.4,4,8.1,6.7,13,8.6c10.3,4.1,21.5,5.5,32.6,5.5c12.1,0,24.8-1.7,34.4-9c9.6-7.3,14.9-21.4,9-32c-5.2-9.3-16.7-12.8-27.2-14.7
	c-22.1-3.9-45.7-4-66.2,5.3"/>
<path fill="none" stroke="#000000" stroke-miterlimit="10" d="M596,266.9c-0.6,4.7,2.6,9.6,7.1,11s9.9-0.9,12-5.2"/>
<path fill="none" stroke="#000000" stroke-miterlimit="10" d="M629.8,267.7c0.3,3.9,2.7,7.6,6.2,9.4c3.5,1.8,8,1.6,11.3-0.5
	c1.9-1.2,3.5-3.5,2.4-5.4"/>
<path fill="none" stroke="#000000" stroke-miterlimit="10" d="M614.5,295.6c3.3-3.3,7.8-6,12.4-5.5s9,5.1,7.7,9.6"/>
<path fill="none" stroke="#000000" stroke-miterlimit="10" d="M466.3,205.2c-17.1,23.9-18.8,57.9-4.2,83.4c1.9,3.4,4.2,6.6,7.2,9.1
	c3.6,2.9,8.1,4.6,12.7,5.5c16.3,3.3,34.3-2.5,45.5-14.9c14.2-15.7,16.4-39.7,10.2-60c-2.1-6.8-5.2-13.6-10.1-18.7
	c-3.8-4-8.5-6.9-13.5-9.3c-9.6-4.7-20.6-7.6-31.1-5.4c-10.5,2.3-20.1,10.8-21,21.4"/>
<path fill="none" stroke="#000000" stroke-miterlimit="10" d="M469.8,244.8c1.8-2,3.6-4.1,5.9-5.5c2.3-1.4,5.3-1.9,7.7-0.7
	c3,1.5,4.7,5.3,8,6"/>
<path fill="none" stroke="#000000" stroke-miterlimit="10" d="M503.1,248.3c2.4-6.9,8.8-12.3,16-13.5c1.1-0.2,2.4-0.2,3.1,0.6
	c0.4,0.5,0.6,1.1,0.7,1.7c0.8,3.7,1.6,7.3,2.5,11"/>
<path fill="none" stroke="#000000" stroke-miterlimit="10" d="M486.8,280.2c4.5,6.5,15.7,6.6,20.3,0.1"/>
<path fill="none" stroke="#000000" stroke-miterlimit="10" d="M282.3,412.1c-5.1,5.6-9.2,12.3-10.6,19.8c-1.4,7.4,0,15.6,4.9,21.4
	c3.4,4,8.1,6.7,13,8.6c10.3,4.1,21.5,5.5,32.6,5.5c12.1,0,24.8-1.7,34.4-9c9.6-7.3,14.9-21.4,9-32c-5.2-9.3-16.7-12.8-27.2-14.7
	c-22.1-3.9-45.7-4-66.2,5.3"/>
<path fill="none" stroke="#000000" stroke-miterlimit="10" d="M291.4,431.1c4.6-0.2,8.3-3.7,12.4-5.6c4.1-2,10.5-1.6,11.7,2.8"/>
<path fill="none" stroke="#000000" stroke-miterlimit="10" d="M329.1,427.7c1.6-2.7,3.7-5.7,6.8-6c2.5-0.3,4.9,1.2,6.4,3.2
	c1.5,2,2.2,4.5,2.8,6.9"/>
<path fill="none" stroke="#000000" stroke-miterlimit="10" d="M314.6,449.9c-1,3.1,2.4,6,5.6,6.8c6.5,1.4,13.7-2.1,16.6-8.2"/>
<path fill="none" stroke="#000000" stroke-miterlimit="10" d="M163.4,377.1c-17.1,23.9-18.8,57.9-4.2,83.4c1.9,3.4,4.2,6.6,7.2,9.1
	c3.6,2.9,8.1,4.6,12.7,5.5c16.3,3.3,34.3-2.5,45.5-14.9c14.2-15.7,16.4-39.7,10.2-60c-2.1-6.8-5.2-13.6-10.1-18.7
	c-3.8-4-8.5-6.9-13.5-9.3c-9.6-4.7-20.6-7.6-31.1-5.4s-20.1,10.8-21,21.4"/>
<path fill="none" stroke="#000000" stroke-miterlimit="10" d="M163.5,408.9c1.4,4.9,5.2,9.2,10.1,10.3c4.9,1.1,10.7-1.9,11.8-6.9"/>
<path fill="none" stroke="#000000" stroke-miterlimit="10" d="M198.2,407.3c-0.5,5.4,5.2,10.1,10.7,9.7c5.5-0.4,10-4.6,12.4-9.5"/>
<path fill="none" stroke="#000000" stroke-miterlimit="10" d="M181.2,458.5c4-3.1,8.2-6.2,13.2-7c5-0.8,10.9,1.6,12.2,6.4"/>
<path fill="none" stroke="#000000" stroke-miterlimit="10" d="M276.2,323.6c-7.5,4.9-14.2,11.2-19.4,18.5"/>
<path fill="none" stroke="#000000" stroke-miterlimit="10" d="M357.6,329.9c-7.8,10.3-16.9,19.7-27,27.6"/>
<path fill="none" stroke="#000000" stroke-miterlimit="10" d="M390.4,334.1c-9,11.8-17.9,23.6-26.9,35.3"/>
<path fill="none" stroke="#000000" stroke-miterlimit="10" d="M412.2,341.6c-9.2,9.6-18.4,19.2-27.6,28.8"/>
<path fill="none" stroke="#000000" stroke-miterlimit="10" d="M456.8,339.1c-7.3,10.2-15.2,20.1-23.5,29.5"/>
<path fill="none" stroke="#000000" stroke-miterlimit="10" d="M490.4,326.5c-1.8,6.6-4.7,12.8-8.4,18.5"/>
<path fill="none" stroke="#000000" stroke-miterlimit="10" d="M562,324.8c0.8,3.9-1.5,7.6-3.6,11c-5.5,8.5-10.9,16.9-16.4,25.4"/>
<path fill="none" stroke="#000000" stroke-miterlimit="10" d="M600.5,341.6c-3.9,7-7.9,14-11.8,21"/>
<path fill="none" stroke="#000000" stroke-miterlimit="10" d="M667,333.1c-5.5,2.7-9.1,8.1-12.6,13.2c-9.4,13.5-20.4,25.8-32.7,36.7
	"/>
</svg>
