<?xml version="1.0" encoding="utf-8"?>
<!-- Generator: Adobe Illustrator 21.0.0, SVG Export Plug-In . SVG Version: 6.00 Build 0)  -->
<svg version="1.1" id="page12" xmlns="http://www.w3.org/2000/svg" xmlns:xlink="http://www.w3.org/1999/xlink" x="0px" y="0px"
	 viewBox="0 0 800 600" enable-background="new 0 0 800 600" xml:space="preserve">
<line fill="none" stroke="#000000" stroke-miterlimit="10" x1="95.3" y1="331.3" x2="695.3" y2="331.3"/>
<line fill="none" stroke="#000000" stroke-miterlimit="10" x1="395.3" y1="137.3" x2="395.3" y2="523.3"/>
<path fill="none" stroke="#000000" stroke-miterlimit="10" d="M211.7,170c-6.8-5.6-15.4-8.3-24-9.3c-11.4-1.2-24.7,1.8-30.1,12.2
	c-3,5.7-3.1,12.5-2.6,18.9c3.3,46.3,33.1,89.9,74.3,108.6c-1.6-14.6-6.6-28.8-14.5-41.1c5.8-1.7,12.1-1.6,17.8,0.3
	c-7.2-9.7-14.4-19.4-21.6-29.2c6.7-1.6,13.8-1.4,20.4,0.5c-5.5-6.2-12.1-11.3-19.3-15c3.9,2,18-1.6,22.2-2.5
	c-1.3-7.2-7.2-14.2-9.8-21.3C221.5,183.7,219,175.9,211.7,170z"/>
<path fill="none" stroke="#000000" stroke-miterlimit="10" d="M241.9,177.9c5.5-4.2,12.2-6.4,18.9-8.1c6.4-1.6,12.8-2.9,19.3-3.9
	c4.2-0.6,8.5-1.1,12.6-0.1c11.1,2.8,17,15.6,18.7,27.3c5,35.5-16.1,70.2-44,90.9c-7.4,5.5-15.4,10.3-24.3,12.3
	c-1.3,0.3-2.8,0.5-3.9-0.2c-1.3-0.8-1.8-2.4-2.2-3.9c-2.5-9.3-5-18.7-7.6-28c5.4-1.8,11.1-2.7,16.8-2.9c1.3-5.5-1.5-11.4-5.6-15.3
	s-9.3-6.1-14.4-8.2c4.3-0.7,9-1.6,12-4.9c3-3.3,2.8-9.9-1.4-11.5c2.8-3.2,8.7-3,10-7.1c0.8-2.6-0.9-5.2-2.6-7.3
	C235.2,196.3,227.3,189.2,241.9,177.9z"/>
<path fill="none" stroke="#000000" stroke-miterlimit="10" d="M459.3,421.6c0.3,1.6,0.6,3.3,1.5,4.7c1.5,2.5,4.3,3.8,7,4.9
	c12.2,4.9,25.2,8,38.3,9.3c5.2,0.5,10.8,0.6,15-2.4c5.8-4,6.9-12.1,7.3-19.1c0.4-6.1,0.4-12.9-3.4-17.7c-6.8-8.8-36-15.4-47.3-14.2
	C460.3,388.8,459.3,408,459.3,421.6z"/>
<path fill="none" stroke="#000000" stroke-miterlimit="10" d="M595.9,419.1c0,2.7,0.2,5.4,1.1,7.9c1.9,5.3,7.1,8.8,12.5,10.3
	c5.4,1.5,11.1,1.2,16.7,0.9c1.9-0.1,4-0.3,5.4-1.6c1.2-1.2,1.5-2.9,1.8-4.5c1.5-8.1,2.9-16.3,2.2-24.5c-0.7-8.2-3.7-16.5-9.8-22
	C600.1,362.3,595.8,403.1,595.9,419.1z"/>
<path fill="none" stroke="#000000" stroke-miterlimit="10" d="M473.1,386.9c-12.4,4.3-23.2,13.1-29.8,24.4"/>
<path fill="none" stroke="#000000" stroke-miterlimit="10" d="M484.2,397c-12.4,3.1-23.4,11.3-29.7,22.4"/>
<path fill="none" stroke="#000000" stroke-miterlimit="10" d="M496.2,393.8c6.4-0.8,10.2,6.5,15,10.9c6.3,5.8,15.6,6.6,24.1,7.2"/>
<path fill="none" stroke="#000000" stroke-miterlimit="10" d="M511.3,394.3c13.3,1.5,26.3,5.6,38,12.1"/>
<path fill="none" stroke="#000000" stroke-miterlimit="10" d="M470.2,417.1c2.9-1,6.1-1.2,9.1-0.6"/>
<path fill="none" stroke="#000000" stroke-miterlimit="10" d="M504.3,417.3c3.3,0,6.7,0,10,0"/>
<path fill="none" stroke="#000000" stroke-miterlimit="10" d="M488.2,433.7c5.8,1.9,12,2.4,18.1,1.6"/>
<path fill="none" stroke="#000000" stroke-miterlimit="10" d="M602.3,382.3c0-1.3-0.8-2.5-2-3C602.7,380.2,602.8,379.8,602.3,382.3z
	"/>
<path fill="none" stroke="#000000" stroke-miterlimit="10" d="M628.3,378.3c-0.7-0.7-1.8-1.2-2.8-1.1c-1.7,3.4-6.5,0.7-8.2,4.1
	c0-2,0-4,0-6"/>
<path fill="none" stroke="#000000" stroke-miterlimit="10" d="M607.3,375.3c0,3,0,6,0,9"/>
<path fill="none" stroke="#000000" stroke-miterlimit="10" d="M601.3,404.3c3.7,0,7.3,0,11,0"/>
<path fill="none" stroke="#000000" stroke-miterlimit="10" d="M619.2,404.2c3.2-1,6.7-1.3,10-0.7"/>
<path fill="none" stroke="#000000" stroke-miterlimit="10" d="M596.3,427.4c-0.8-0.2-1.6,0.1-2.2,0.6"/>
<path fill="none" stroke="#000000" stroke-miterlimit="10" d="M599.9,430.3c0.1,0.3-0.1,0.7-0.3,0.9c-0.6,0.8-1.2,1.5-1.8,2.3"/>
<path fill="none" stroke="#000000" stroke-miterlimit="10" d="M601,434c-0.5,1-0.9,2.2-1,3.3"/>
<path fill="none" stroke="#000000" stroke-miterlimit="10" d="M604.3,436.4c-0.3,1.3-0.4,2.7-0.1,4"/>
<path fill="none" stroke="#000000" stroke-miterlimit="10" d="M608.4,437.8c-0.3,1.3-0.4,2.6-0.3,3.9c0.1,0,0.3,0,0.4,0"/>
<path fill="none" stroke="#000000" stroke-miterlimit="10" d="M612.4,438.6c-0.1,1,0.1,2,0.4,2.9c0.1,0.2,0.2,0.4,0.4,0.6
	c0.2,0.1,0.4,0.2,0.6,0"/>
<path fill="none" stroke="#000000" stroke-miterlimit="10" d="M617.2,438.8c0.2,0,0.3,0.2,0.3,0.3c0.5,1.5,1.1,3.1,2.2,4.4
	c0.2,0.3,0.6,0.6,0.9,0.5"/>
<path fill="none" stroke="#000000" stroke-miterlimit="10" d="M622.7,439.4c1,1.3,2.3,2.5,3.6,3.5c0.2,0.2,0.5,0.3,0.7,0.3
	c0.3,0,0.5-0.3,0.4-0.5"/>
<path fill="none" stroke="#000000" stroke-miterlimit="10" d="M627.4,440.3c0-0.1,0.2-0.1,0.3,0c0.5,0.6,1,1.2,1.6,1.9"/>
<path fill="none" stroke="#000000" stroke-miterlimit="10" d="M629.6,437.2c0.3,0,0.5,0.2,0.8,0.5c1,1.1,2.1,2.2,3.1,3.2"/>
<path fill="none" stroke="#000000" stroke-miterlimit="10" d="M634,434.7c0.8,0.9,1.5,1.8,2.1,2.8"/>
<path fill="none" stroke="#000000" stroke-miterlimit="10" d="M632.9,429.5c1.5,1.3,3.1,2.6,4.8,3.7c0-0.4,0-0.7,0-1.1"/>
<path fill="none" stroke="#000000" stroke-miterlimit="10" d="M635,425.2c0.2,0.9,0.9,1.6,1.8,1.8"/>
<path fill="none" stroke="#000000" stroke-miterlimit="10" d="M611.9,428.2c3.3,0,6.7,0,10,0"/>
<path fill="none" stroke="#000000" stroke-miterlimit="10" d="M491.2,473.7c-3.3-0.2-6.6,0.5-9.5,2c-8,4.1-13,15.4-10.3,24
	c1.6,5.1,6,8.9,11,10.9c4.9,2,10.4,2.4,15.7,2.5c4.9,0.1,10.4,0.1,15-1.7c3.5-1.4,8-3.1,10.4-6c2.8-3.4,3-8.2,3.2-12.6
	c0-1.7,0.1-3.5-0.4-5.1c-0.4-1.6-1.3-3-2.3-4.2c-2.7-3.6-6.4-6.3-10.6-7.9c-8.3-3.1-17.5-1.5-26.3-2"/>
<path fill="none" stroke="#000000" stroke-miterlimit="10" d="M455,486.6c-0.1-3.3,0.5-6.5,1.8-9.5c0.7-1.6,1.6-3.1,3.1-3.9
	c1.1-0.6,2.4-0.7,3.7-0.8c7-0.3,14,0.7,20.6,2.9c-5.8-2-11.3-2.6-16.6,0.5s-9.3,8.5-10.5,14.6"/>
<path fill="none" stroke="#000000" stroke-miterlimit="10" d="M550.4,491.1c-0.7-5.4-1.6-11.2-5.5-14.9c-3.6-3.4-8.9-4.2-13.9-4.6
	c-8.2-0.7-16.5-0.8-24.8-0.3c-2.5,0.1-5.9,1.4-8.4,1.1c-1.9-0.3-3.8-1.9-5.9-2.3c-3-0.6-6.1-1.1-9.3-1.2c-2.1-0.1-4.2-0.1-6.2,0.5
	c-3.7,1.1-6.5,3.9-9,6.8c-4,4.9-7.4,10.7-7.8,17"/>
<path fill="none" stroke="#000000" stroke-miterlimit="10" d="M511.6,473.9c7.4-1.6,15.1-2,22.6-1c1.9,0.2,3.9,0.6,5.6,1.4
	c3.8,1.9,6.1,5.8,7.5,9.8c1.3,3.7,2.1,7.5,2.3,11.4"/>
<path fill="none" stroke="#000000" stroke-miterlimit="10" d="M510.5,476.6c8.3-1,16.9-0.2,24.3,3.6c7.4,3.8,13.4,10.8,14.8,19"/>
<path fill="none" stroke="#000000" stroke-miterlimit="10" d="M480.7,490.7c3,0,6,0,8.9-0.2"/>
<path fill="none" stroke="#000000" stroke-miterlimit="10" d="M504.6,490.2c2.2,0.1,4.4,0.2,6.6,0.3"/>
<path fill="none" stroke="#000000" stroke-miterlimit="10" d="M492.8,505.3c-0.2,0.9,0.9,1.4,1.8,1.5c4.5,0.7,9,1.1,13.5,1
	c0.7,0,1.6-0.4,1.4-1"/>
<path fill="none" stroke="#000000" stroke-miterlimit="10" d="M598.8,495.1c-0.2,2.9-0.2,6,1.2,8.6c2.2,4.2,7.3,5.8,11.9,6.7
	c5.4,1.1,11.1,1.6,16.2-0.3c3.8-1.5,7-4.2,9.7-7.3c4-4.6,7.1-10.2,8.1-16.3c1-6.1-0.1-12.6-3.7-17.6s-9.7-8.2-15.9-7.6
	c-4.6,0.4-9,2.8-12.9,5c-2.5,1.5-6.1,2.4-8.4,4.1c-2.9,2.2-3.5,7.3-4.3,10.5C599.7,485.7,599.1,490.4,598.8,495.1z"/>
<path fill="none" stroke="#000000" stroke-miterlimit="10" d="M601.1,463.7c-0.2,2.7,1.9,5.1,3.8,7"/>
<path fill="none" stroke="#000000" stroke-miterlimit="10" d="M609.3,460.9c0.8,2.6,1.8,5.2,3,7.7"/>
<path fill="none" stroke="#000000" stroke-miterlimit="10" d="M615.4,459c1.3,1.8,2,4.1,2,6.3"/>
<path fill="none" stroke="#000000" stroke-miterlimit="10" d="M626,458.7c0.3,1.8,0.7,3.5,1,5.3"/>
<path fill="none" stroke="#000000" stroke-miterlimit="10" d="M634,455.4c0,1.6,0,3.1,0,4.7"/>
<path fill="none" stroke="#000000" stroke-miterlimit="10" d="M637.6,457.7c0,2.5,0,5.1,0,7.6"/>
<path fill="none" stroke="#000000" stroke-miterlimit="10" d="M643,463.4c-1.1,1.7-1.8,3.8-1.8,5.8"/>
<path fill="none" stroke="#000000" stroke-miterlimit="10" d="M610.9,481.1c1.5,0,3,0,4.5,0"/>
<path fill="none" stroke="#000000" stroke-miterlimit="10" d="M625,481.7c3.2-0.1,6.5-0.2,9.7-0.1"/>
<path fill="none" stroke="#000000" stroke-miterlimit="10" d="M606.9,480.8c1.8-0.2,3.5,0,5.2,0.6"/>
<path fill="none" stroke="#000000" stroke-miterlimit="10" d="M614.3,499.7c3.8-0.3,7.5-0.4,11.3-0.3"/>
<path fill="none" stroke="#000000" stroke-miterlimit="10" d="M605.1,508.6c0,1.6,0.2,3.1,0.7,4.6c0.4,0,0.7-0.3,0.9-0.7"/>
<path fill="none" stroke="#000000" stroke-miterlimit="10" d="M607.4,510.7c0.2,0.9,0.6,1.7,1.3,2.2"/>
<path fill="none" stroke="#000000" stroke-miterlimit="10" d="M610.4,510.7c0.6,1.4,1.1,2.8,1.7,4.3"/>
<path fill="none" stroke="#000000" stroke-miterlimit="10" d="M614.7,513.1c0,0.9,0.3,1.7,0.9,2.4"/>
<path fill="none" stroke="#000000" stroke-miterlimit="10" d="M617.6,510.9c0.6,1.3,1.2,2.5,1.8,3.8"/>
<path fill="none" stroke="#000000" stroke-miterlimit="10" d="M622,512.6c-0.3,1,0.1,2.1,0.9,2.7"/>
<path fill="none" stroke="#000000" stroke-miterlimit="10" d="M625.5,511.5c0.4,1.3,1,2.5,1.8,3.6"/>
<path fill="none" stroke="#000000" stroke-miterlimit="10" d="M630.3,511.5c0.2,1.1,0.4,2.1,0.6,3.2"/>
<path fill="none" stroke="#000000" stroke-miterlimit="10" d="M632.9,507.6c0.8,2.2,1.8,4.3,2.9,6.3"/>
<text transform="matrix(1 0 0 1 64.4659 96.5019)" font-family="'YouYuan'" font-size="36px">我们吵架的原因有很多，爱情，工作，父母</text>
<path fill="none" stroke="#000000" stroke-miterlimit="10" d="M134.2,431.7c-1.9,6-6.6,10.8-9.1,16.6c-1.7,3.9-2.3,8.3-1.8,12.5
	c0.2,1.8,0.6,3.5,1.7,5c2.5,3.5,7.6,3.8,11.9,3.8c2.5,0,4.9-0.1,7.4-0.1c1.1,0,2.2,0,3.2-0.3c2.3-0.7,4-2.9,4.8-5.2s0.8-4.8,0.8-7.2
	c0-3.4,0-6.9-0.8-10.3c-0.8-3.4-2.4-6.6-4-9.7c-2.6-5.2-6.2-17.9-12.5-19C134.7,422.1,135.4,427.1,134.2,431.7z"/>
<path fill="none" stroke="#000000" stroke-miterlimit="10" d="M184.1,427.8c-0.8,0.6-1.7,1.1-2.5,1.7c13.9,0.6,27.7,2.2,41.4,4.6"/>
<path fill="none" stroke="#000000" stroke-miterlimit="10" d="M183.4,441.9c15.2,1.1,30.4,1.4,45.6,0.8"/>
<path fill="none" stroke="#000000" stroke-miterlimit="10" d="M211.3,414.4c8.5,5.8,16.6,12.3,24,19.5c1.8,1.7,3.7,3.8,3.6,6.3
	c-0.1,2.8-2.7,4.9-5.4,5.9c-2.6,1-5.6,1.3-8,2.7c-3.6,2.1-6.6,6.7-10.7,6"/>
<path fill="none" stroke="#000000" stroke-miterlimit="10" d="M268.5,511.4c6.9,0.9,14.4,0.2,20.2-3.6c11.9-7.7,12.6-28.4,12-40.9
	c-0.2-3.7-0.4-7.6-2.1-10.9c-3-6-9.9-8.8-16.4-10.3c-6.5-1.6-13.4-2.5-18.8-6.6c-8.8-6.6-11.6-21.6-10.1-32
	c1.8-12.3,7.6-20.1,21.4-18.6c1.9-4.3,6.3-11,11-11.9c4.7-0.9,10.1,2.4,10.4,7.1c3.5-1.5,6.6-4,10-5.6s7.9-2.2,11,0.2
	c3.1,2.3,3,8.2-0.6,9.3c4.2-4.5,10.2-8.2,16.3-7.1c6.1,1.1,10.6,9,6.9,13.9c3.6-0.8,7.4-0.7,11,0.1c1.9,3.8,2.9,8.1,2.8,12.3
	c4,2.2,8.2,3.9,12.6,5.3c-0.2,4.9-4.4,9.4-9.3,9.9c2.3,3.7,0.2,8.9-3.4,11.5c-3.5,2.6-8,3.5-12.2,4.8c-5,1.5-9.8,3.8-14.2,6.6
	c-2.2,1.4-4.3,3-5.8,5.1c-2.7,3.6-3.2,8.3-3.7,12.8c-1.3,11.8-7.6,26.9-2,38.3c4.6,9.4,20.5,7.6,29.3,6.2"/>
<path fill="none" stroke="#000000" stroke-miterlimit="10" d="M263.8,376.8c0.7-3.4,3.9-5.9,7.3-6.7s6.9-0.3,10.4,0.2"/>
<path fill="none" stroke="#000000" stroke-miterlimit="10" d="M299.8,372c5.9-2.7,12.4-4.2,19-4.3c1.2,0,2.5,0,3.5,0.8
	s1.3,2.4,0.3,3.2"/>
<path fill="none" stroke="#000000" stroke-miterlimit="10" d="M347.5,374.7c7.8,2.5,14.2,9.1,16.4,17"/>
<path fill="none" stroke="#000000" stroke-miterlimit="10" d="M370.9,429.9c0.5,4.5,0.6,9.1,0.3,13.6c-1.8,0-3.6,0-5.3,0"/>
<path fill="none" stroke="#000000" stroke-miterlimit="10" d="M348.8,457.8c-6,2.4-12.6,3.4-19,2.7"/>
<path fill="none" stroke="#000000" stroke-miterlimit="10" d="M281.3,454.5c-0.8,2.7-1.5,5.6-0.6,8.2c0.9,2.6,4.3,4.6,6.6,3"/>
<path fill="none" stroke="#000000" stroke-miterlimit="10" d="M251.2,430.3c-1.3,5.4-1.6,11.1-0.8,16.6c1.4,0.1,2.6-1.3,2.3-2.7"/>
<path fill="none" stroke="#000000" stroke-miterlimit="10" d="M238.6,399.9c0,4.5,0,9,1.2,13.4s3.6,8.5,7.5,10.8"/>
<path fill="none" stroke="#000000" stroke-miterlimit="10" d="M260,449.9c-1.8,1.9-1.8,5.1-0.3,7.3c1.4,2.2,4,3.5,6.6,3.8
	c1.9,0.2,4,0,5.4-1.3c1.4-1.3,1.9-3.7,0.6-5.1"/>
<path fill="none" stroke="#000000" stroke-miterlimit="10" d="M247,388.2c1.6-4.2,5.6-7.3,10-7.9"/>
<rect x="458.2" y="137.3" fill="none" stroke="#000000" stroke-miterlimit="10" width="207.3" height="116.4"/>
<rect x="474.7" y="149.6" fill="none" stroke="#000000" stroke-miterlimit="10" width="174.5" height="91.9"/>
<rect x="493.9" y="268.7" fill="none" stroke="#000000" stroke-miterlimit="10" width="142.2" height="41.5"/>
<rect x="504.6" y="276.9" fill="none" stroke="#000000" stroke-miterlimit="10" width="120.9" height="27.9"/>
<line fill="none" stroke="#000000" stroke-miterlimit="10" x1="506.3" y1="289.5" x2="627.4" y2="289.5"/>
<line fill="none" stroke="#000000" stroke-miterlimit="10" x1="518.5" y1="276.9" x2="518.5" y2="304.8"/>
<line fill="none" stroke="#000000" stroke-miterlimit="10" x1="530.6" y1="276.9" x2="530.6" y2="304.8"/>
<line fill="none" stroke="#000000" stroke-miterlimit="10" x1="544.4" y1="276.9" x2="543.7" y2="304.8"/>
<line fill="none" stroke="#000000" stroke-miterlimit="10" x1="561.9" y1="276.9" x2="562" y2="304.8"/>
<line fill="none" stroke="#000000" stroke-miterlimit="10" x1="573.6" y1="276.9" x2="573.6" y2="304.8"/>
<line fill="none" stroke="#000000" stroke-miterlimit="10" x1="587.9" y1="276.9" x2="587.9" y2="304.8"/>
<line fill="none" stroke="#000000" stroke-miterlimit="10" x1="601.4" y1="276.9" x2="601" y2="304.8"/>
<line fill="none" stroke="#000000" stroke-miterlimit="10" x1="611.9" y1="276.9" x2="612.4" y2="304.8"/>
<path fill="none" stroke="#000000" stroke-miterlimit="10" d="M495.1,170.7c0.8,5.9,1.7,11.8,2.5,17.7c0.1,0.4,0.1,0.9,0.5,1.1
	c0.5,0.4,1.2,0.1,1.7-0.2c3.3-1.9,6.2-4.4,8.6-7.4c1.4,3.6,1.8,7.5,1.1,11.3"/>
<path fill="none" stroke="#000000" stroke-miterlimit="10" d="M521.8,188.5c1.9,0.3,3-2,3.1-3.9c0.2-2.4-1.1-5.5-3.5-5.4
	c-1.8,0.1-3,2-3.4,3.8c-0.6,2.9,0.3,6.1,2.5,8.1c2.2,2,5.7,2.4,8.2,0.7s3.3-5.4,1.6-7.7"/>
<path fill="none" stroke="#000000" stroke-miterlimit="10" d="M531.7,169.3c0.2,3.4,0.4,6.8,0.6,10.2c0.3,5.1,0.6,10.3,2.2,15.2
	c0.1,0.5,0.3,0.9,0.8,1.1c0.4,0.2,1.1-0.3,0.8-0.7"/>
<path fill="none" stroke="#000000" stroke-miterlimit="10" d="M541.8,164.6c-0.7,10.2-0.4,20.5,0.8,30.7"/>
<path fill="none" stroke="#000000" stroke-miterlimit="10" d="M551.2,181.6c0,3.7-0.1,7.3-0.1,11c0,1.5,0,3.1,1,4.2
	c2,2.2,5.8,0.2,7-2.5c1.3-2.9,0.9-6.5-1.2-8.9c-2.1-2.4-5.8-3.3-8.6-1.8c-0.1,0.5-0.2,1-0.4,1.4"/>
<path fill="none" stroke="#000000" stroke-miterlimit="10" d="M574.1,183.1c0.9,4.7,2.6,9.1,5.1,13.1c0.4,0.7,0.9,1.3,1.5,1.8
	c2,1.6,5.2,0.6,6.8-1.4c1.6-2,2.1-4.6,2.5-7.1c-1.1,3.1,2.4,6.5,5.6,5.8c3.2-0.7,5.2-4.3,4.9-7.6"/>
<path fill="none" stroke="#000000" stroke-miterlimit="10" d="M605.7,186.2c-1.8,1-2.8,3.2-2.5,5.2s2,3.7,4,4.1
	c0.8,0.2,1.7,0.1,2.5-0.3c1.2-0.7,1.6-2.2,1.9-3.5c0.4-1.7,0.6-3.5-0.1-5c-0.7-1.5-2.9-2.5-4.2-1.4"/>
<path fill="none" stroke="#000000" stroke-miterlimit="10" d="M617.2,189.8c0,1.8,0,3.5,0,5.3c2.1-4,4.5-7.8,7.2-11.4
	c0.1,0.9,0.2,1.8,0.3,2.7"/>
<path fill="none" stroke="#000000" stroke-miterlimit="10" d="M630.1,172.7c0,5.7,0,11.3,0,17"/>
<path fill="none" stroke="#000000" stroke-miterlimit="10" d="M639.9,189.8c0.5-2,0.9-4.1,0.4-6.1s-2.3-3.8-4.3-3.7
	c-1.8,0.1-3.1,1.7-3.9,3.3c-1.2,2.4-1.4,5.2-1.6,7.8c-0.2,2.9,0.3,6.7,3.1,7.3c1.6,0.3,3.2-0.7,4-2.1s1.1-3,1.3-4.6
	c1.1-8.3,1.8-16.7,2-25.1c0,8.2,0,16.4,0,24.5"/>
</svg>
