<?xml version="1.0" encoding="utf-8"?>
<!-- Generator: Adobe Illustrator 21.0.0, SVG Export Plug-In . SVG Version: 6.00 Build 0)  -->
<svg version="1.1" id="page17" xmlns="http://www.w3.org/2000/svg" xmlns:xlink="http://www.w3.org/1999/xlink" x="0px" y="0px"
	 viewBox="0 0 800 600" enable-background="new 0 0 800 600" xml:space="preserve">
<path fill="none" stroke="#000000" stroke-miterlimit="10" d="M294.4,225.6c-5.7,1.9-8.2,8.4-9.8,14.2c-3.1,11.5-5.3,24.4,0.3,34.9
	c6.1,11.4,19.6,16.7,32.2,19.6c18.9,4.4,40.4,5.1,56-6.3c15.9-11.6,21.8-33.1,20.4-52.7c-0.2-2.9-0.5-5.8-1.7-8.4
	c-1.4-3.2-3.9-5.8-6.6-8.1c-11.6-10.3-26.3-17.1-41.6-19.3c-12.3-1.8-25.8-0.3-35.5,7.5c-7.5,6-12.1,15.1-20,20.5"/>
<path fill="none" stroke="#000000" stroke-miterlimit="10" d="M421.8,225.2c-4.7,3.3-6.1,9.4-7.1,15c-2.9,15.6-5.6,32.9,2.9,46.4
	c7.9,12.5,23.3,18.1,38,20.3c14.6,2.3,29.8,2.1,43.8-2.6c6.1-2.1,12.4-5.3,15.3-11.1c1.9-3.7,2.2-7.9,2.4-12
	c0.6-10.9,0.6-22.5-5.1-31.9c-6.8-11.1-20-16.4-32.6-19.8c-20.3-5.5-43.7-8-62.7,1"/>
<path fill="none" stroke="#000000" stroke-miterlimit="10" d="M266.6,228.6c5.9,3,12.2,4.9,18.8,5.7"/>
<path fill="none" stroke="#000000" stroke-miterlimit="10" d="M280.5,219c3.8-0.9,8,0.4,10.6,3.2"/>
<path fill="none" stroke="#000000" stroke-miterlimit="10" d="M290.3,204.8c6.3,0,12.2,4.8,13.7,10.9"/>
<path fill="none" stroke="#000000" stroke-miterlimit="10" d="M306.6,196c1.9,2.3,3,5.2,3.2,8.2"/>
<path fill="none" stroke="#000000" stroke-miterlimit="10" d="M319.7,191.1c0,3.5,0,7.1,0,10.6"/>
<path fill="none" stroke="#000000" stroke-miterlimit="10" d="M331.5,193.7c-1.2,3-1,6.5,0.7,9.2"/>
<path fill="none" stroke="#000000" stroke-miterlimit="10" d="M342.6,193.5c0,2.2,0,4.4,0,6.5"/>
<path fill="none" stroke="#000000" stroke-miterlimit="10" d="M360.6,192.7c-0.8,4.6-1.6,9.3-2.5,13.9"/>
<path fill="none" stroke="#000000" stroke-miterlimit="10" d="M370.4,203.4c0,3,0,6,0,9"/>
<path fill="none" stroke="#000000" stroke-miterlimit="10" d="M381.7,209c-1,1.9-2.1,3.9-3.1,5.8"/>
<path fill="none" stroke="#000000" stroke-miterlimit="10" d="M392.5,214c0,2.3-0.6,4.6-1.7,6.5"/>
<path fill="none" stroke="#000000" stroke-miterlimit="10" d="M267.4,243.4c4.9,3.5,9.8,7.1,14.7,10.6"/>
<path fill="none" stroke="#000000" stroke-miterlimit="10" d="M393.3,240.7c-5-1.1-10.1-2.3-15.2-1.6s-10.2,3.7-11.9,8.5"/>
<path fill="none" stroke="#000000" stroke-miterlimit="10" d="M529.2,244.8c-3.6-3.6-4.8-8.8-6.7-13.5c-1.8-4.4-4.4-8.6-7.5-12.2
	c-2.9-3.3-6.3-6.2-10.5-7.5c-3-0.9-6.1-0.9-9.2-0.9c-6.7,0-13.4,0-20.1,0c-6.6,0-13.3,0-19.6,1.9s-12.3,6.1-14.7,12.3
	c4.8-6,17.9-7.6,25.6-7.6c14,0,27.9,0.1,41.9,0.1c7.5,0,15.1,0.1,22.2,2.5c10.7,3.7,18.8,12.4,25.9,21.2"/>
<path fill="none" stroke="#000000" stroke-miterlimit="10" d="M457.4,225.5c13.7-1.7,27.6-2.3,41.4-2.2c17.7,0.1,36.4,1.6,51,11.7
	c6.7,4.6,12.5,11.8,12.2,19.9"/>
<path fill="none" stroke="#000000" stroke-miterlimit="10" d="M482.9,235.2c10.4-0.7,20.8-0.9,31.2-0.8c4.5,0.1,9.1,0.3,13,2.4
	c2.8,1.6,5,4.1,7.3,6.4c6.3,6.6,13.6,12.2,21.6,16.6"/>
<path fill="none" stroke="#000000" stroke-miterlimit="10" d="M430.7,229.6c1.3-10.6,11.3-17.8,21.1-22.1c9.5-4.2,19.7-6.9,30-8
	c5.1-0.6,10.4-0.7,15.1,1.1"/>
<path fill="none" stroke="#000000" stroke-miterlimit="10" d="M529,207.4c-20.6-14.5-47.6-19.6-72.1-13.8
	c-6.5,1.5-12.9,3.9-18.2,7.8c-9.6,7.1-18.7,20.1-22.1,31.5c-6-1.6-8.7-8.2-14.7-9.8"/>
<path fill="none" stroke="#000000" stroke-miterlimit="10" d="M411.7,247.4c5.4-1.1,10.9-1.6,16.5-1.5c1.1,0,2.4,0.1,3.2,0.9
	c0.7,0.6,0.9,1.5,1.2,2.4c0.6,2.2,1.2,4.3,1.8,6.5"/>
<path fill="none" stroke="#000000" stroke-miterlimit="10" d="M409.4,216.5c3.8,4.4,6.4,9.9,7.3,15.6"/>
<path fill="none" stroke="#000000" stroke-miterlimit="10" d="M415.9,209.9c3,5.7,6.1,11.4,9.1,17.1"/>
<path fill="none" stroke="#000000" stroke-miterlimit="10" d="M423.8,202.7c4.2,7.2,6.6,15.3,7,23.6"/>
<path fill="none" stroke="#000000" stroke-miterlimit="10" d="M388.8,271.8c3.1-2.1,8.2,0.1,8.6,3.9c0.4,3.7-4,7.1-7.5,5.6
	c1.6,2.3,0.8,5.7-1.3,7.6c-2.1,1.9-5,2.5-7.9,2.5c-2.7,0-5.3-0.5-7.8-1.4"/>
<path fill="none" stroke="#000000" stroke-miterlimit="10" d="M409.9,271c-2.9-1.6-6.8-1.1-9.3,1s-3.6,5.9-2.5,9.1
	c4.5,0,9.1,0,13.6,0c-1.3,2-3.2,3.6-5.4,4.5c-1.1,2.4-0.4,5.5,1.7,7.2c2.1,1.6,5.3,1.6,7.4,0c1.7,0.9,3.8,1.5,4.7-0.1"/>
<path fill="none" stroke="#000000" stroke-miterlimit="10" d="M333.5,300.7c-1.3,13.7-8.2,27-6.3,40.6c0.3,2.3,0.9,4.6,1.5,6.9
	c1.9,7.6,3.8,15.2,5.8,22.8"/>
<path fill="none" stroke="#000000" stroke-miterlimit="10" d="M465.2,308.9c0.4,23.4,0.3,46.9-0.4,70.3"/>
<path fill="none" stroke="#000000" stroke-miterlimit="10" d="M329.6,369.9c-9.5,13.4-10.4,30.8-11.1,47.2
	c-0.4,9.2-0.7,18.4-1.1,27.5"/>
<path fill="none" stroke="#000000" stroke-miterlimit="10" d="M335.1,373.6c9.7,8.4,18.6,17.6,26.7,27.5c1.1,1.4,2.3,2.8,2.9,4.5
	c0.8,2.1,0.8,4.3,0.8,6.5c-0.1,13.6-0.1,27.1-0.2,40.7"/>
<path fill="none" stroke="#000000" stroke-miterlimit="10" d="M328.6,338.4c15,13.9,33.5,23.9,53.3,28.9c16.8,4.2,34.2,4.8,51.5,5.4
	c16.5,0.5,33.1,0.9,49.2-2.6"/>
<path fill="none" stroke="#000000" stroke-miterlimit="10" d="M463.6,329.7c-38.6-8.8-78.8-10.8-118.2-5.8
	c-11.5,1.5-23.5,3.7-32.8,10.7"/>
<path fill="none" stroke="#000000" stroke-miterlimit="10" d="M464.5,337.4c3,2.1,7.6,0.9,10.4,3.3c1.2,1,1.8,2.5,2.4,3.9
	c2.1,5,4.2,10,6.2,15c1.3,3,2.3,7-0.2,9"/>
<path fill="none" stroke="#000000" stroke-miterlimit="10" d="M462.2,379.4c-8.5,7.6-17.2,15.4-21.8,25.9
	c-4.6,10.4-4.3,22.9,0.6,33.1c0.7,1.4,3,2.8,3.5,1.3"/>
<path fill="none" stroke="#000000" stroke-miterlimit="10" d="M465.3,373.5c8,6.5,16,12.9,23.9,19.4c2.7,2.1,5.3,4.3,7.2,7.2
	c2.4,3.7,3.3,8.2,3.8,12.7c1.9,15.2,1,30.5,0.1,45.8"/>
<text transform="matrix(1 0 0 1 247 128)" font-family="'YouYuan'" font-size="36px">因为我们彼此不舍</text>
<path fill="none" stroke="#000000" stroke-miterlimit="10" d="M157.3,265.9c-4.8,12.2-6.4,25.4-8,38.4c-3.2,27-5.9,55.2,3.1,80.9
	c5,14.3,13.5,27.2,22.3,39.5c11.1,15.6,23.1,30.7,37.7,43.1c36.9,31.4,87,42.1,135.3,46.3c38.8,3.4,77.9,3.2,116.8,3
	c12.3-0.1,24.7-0.1,36.8-2.5c14.7-2.8,28.5-8.9,42.1-14.9c22.8-10,45.6-20.1,67.4-32.1c19.4-10.7,38.5-23.3,51-41.6
	c6.9-10,11.5-21.5,14.8-33.2c13.8-49.5,2.8-104.4-25.2-147.6c-6.6-10.2-14.2-20-23.8-27.5c-8-6.3-17.3-10.9-26.6-15.1
	c-61.1-27.8-128.3-41.9-195.4-42.3c-60-0.3-123.2,7.6-175.2,38.5C201.5,216.5,170.5,232.3,157.3,265.9z"/>
<path fill="none" stroke="#000000" stroke-miterlimit="10" d="M152.5,168.8c-4.5-8.8-9-17.6-13.5-26.4c-0.6-1.1-1.1-2.3-1-3.5
	c0.3-2.1,2.5-3.4,4.6-3.5c3.8-0.2,7.2,2.4,9.1,5.7c1.9,3.2,2.6,7.1,3.2,10.8c1,6.2,1.8,12.7-0.3,18.5"/>
<path fill="none" stroke="#000000" stroke-miterlimit="10" d="M165.1,166.3c-5.7,1.8-11.5,3.6-17.2,5.4c2.4,9.4,8.8,18.8,13.6,27.2
	c5.8,10,13.3,19.4,15.5,30.6c0.1,0.6,0.3,1.3,0.7,1.8c1.2,1.3,3.5,0,4.4-1.6c1.4-2.5,1.7-5.5,1.9-8.4c0.9-15.5-1.1-31.1-5.7-45.9
	C176.5,169.8,170.8,164.6,165.1,166.3z"/>
<path fill="none" stroke="#000000" stroke-miterlimit="10" d="M89.2,262.2c7.3-5.8,16-9.7,25.2-11.4c1.1,3.5,1.9,8-1.1,10.1
	c-1,0.7-2.2,0.9-3.3,1.2c-7,1.5-14,2.9-21,4.4"/>
<path fill="none" stroke="#000000" stroke-miterlimit="10" d="M86.5,281.5c-2.7,1.1-5.6,1.1-8.5,1.3c-12,0.7-23.9,3.6-34.9,8.4
	c-1.5-1.6-1.3-4.3,0-6.1s3.2-3,5.2-4c8.5-4.6,21.6-13.4,31.4-14C87.8,266.5,98.2,276.7,86.5,281.5z"/>
<path fill="none" stroke="#000000" stroke-miterlimit="10" d="M131.7,258.7c3.7-3.1,8.5-4.8,13.3-4.6"/>
<path fill="none" stroke="#000000" stroke-miterlimit="10" d="M123,274c7.1-0.3,14.1-1.3,21-3"/>
<path fill="none" stroke="#000000" stroke-miterlimit="10" d="M670,169.4c8.4-5.7,17.1-11.6,27.1-13c3.4,3.8,5,8.6,5,13.7
	c0,0.7,0,1.5-0.5,2c-0.6,0.7-1.5,0.8-2.4,0.9C688.4,173.6,680.3,172.7,670,169.4z"/>
<path fill="none" stroke="#000000" stroke-miterlimit="10" d="M678.5,183.4c-2.1-7.7-11.8-11.6-13.2-19.5
	c-6.8,4.6-14.5,8.2-21.2,12.9c-13.4,9.3-26.8,18.7-40.2,28c12.3-0.9,24.7-1.8,36.7-4.8C652.5,196.9,669.7,192,678.5,183.4z"/>
</svg>
