<?xml version="1.0" encoding="utf-8"?>
<!-- Generator: Adobe Illustrator 19.1.0, SVG Export Plug-In . SVG Version: 6.00 Build 0)  -->
<svg version="1.1" id="page8" xmlns="http://www.w3.org/2000/svg" xmlns:xlink="http://www.w3.org/1999/xlink" x="0px" y="0px"
	 viewBox="0 0 800 600" enable-background="new 0 0 800 600" xml:space="preserve">
<text transform="matrix(1 0 0 1 186.9077 187.8831)" font-family="'YouYuan'" font-size="72px">将来</text>
<line fill="none" stroke="#000000" stroke-miterlimit="10" x1="521.7" y1="164.1" x2="620.4" y2="138.3"/>
<line fill="none" stroke="#000000" stroke-miterlimit="10" x1="620.4" y1="138.3" x2="550.4" y2="171.6"/>
<line fill="none" stroke="#000000" stroke-miterlimit="10" x1="521.7" y1="164.1" x2="550.4" y2="171.6"/>
<line fill="none" stroke="#000000" stroke-miterlimit="10" x1="550.4" y1="171.6" x2="561.1" y2="191.1"/>
<line fill="none" stroke="#000000" stroke-miterlimit="10" x1="561.1" y1="191.1" x2="562.3" y2="177"/>
<line fill="none" stroke="#000000" stroke-miterlimit="10" x1="562.3" y1="177" x2="591" y2="202.3"/>
<line fill="none" stroke="#000000" stroke-miterlimit="10" x1="591" y1="202.3" x2="620.4" y2="138.3"/>
<line fill="none" stroke="#000000" stroke-miterlimit="10" x1="620.4" y1="138.3" x2="562.3" y2="177"/>
<path fill="none" stroke="#000000" stroke-miterlimit="10" d="M159.9,453.8c12.2-32.1,17.3-68.5,40.6-93.7c8.3-9,18.5-16,28.7-23
	c14.9-10.2,30.2-20.6,47.6-25.5c14.1-3.9,29-4.1,43.3-7.2c13.7-3,26.6-8.7,39.5-14.3c21-9.3,42-18.5,63-27.8
	c25.7-11.4,51.7-23.2,72.8-41.7c11.6-10.2,22-22.6,36.3-28.5"/>
<path fill="none" stroke="#000000" stroke-miterlimit="10" d="M347,488.8c-0.3-23.7,4.2-47.4,13.1-69.3c3.9-9.6,8.6-18.8,15-27
	c6.7-8.6,15.2-15.6,23.5-22.6c46.5-38.9,93-77.9,143.2-112c29.7-20.2,62.2-40.4,77.3-73"/>
</svg>
