<?xml version="1.0" encoding="utf-8"?>
<!-- Generator: Adobe Illustrator 19.1.0, SVG Export Plug-In . SVG Version: 6.00 Build 0)  -->
<svg version="1.1" id="page8" xmlns="http://www.w3.org/2000/svg" xmlns:xlink="http://www.w3.org/1999/xlink" x="0px" y="0px"
	 viewBox="0 0 800 600" enable-background="new 0 0 800 600" xml:space="preserve">
<line fill="none" stroke="#000000" stroke-miterlimit="10" x1="352.4" y1="134.2" x2="152.5" y2="264.4"/>
<line fill="none" stroke="#000000" stroke-miterlimit="10" x1="152.5" y1="264.4" x2="542.3" y2="264.4"/>
<line fill="none" stroke="#000000" stroke-miterlimit="10" x1="542.3" y1="264.4" x2="352.4" y2="134.2"/>
<line fill="none" stroke="#000000" stroke-miterlimit="10" x1="170.3" y1="264.4" x2="170.3" y2="504.9"/>
<line fill="none" stroke="#000000" stroke-miterlimit="10" x1="170.3" y1="504.9" x2="524.5" y2="504.9"/>
<line fill="none" stroke="#000000" stroke-miterlimit="10" x1="524.5" y1="504.9" x2="524.5" y2="264.4"/>
<path fill="none" stroke="#000000" stroke-miterlimit="10" d="M191.9,502.4c0-20.5,0-40.9,0-61.4c3.6,0,9.7,0,13.4,0.1
	c-0.1,11.3-0.1,22.7-0.2,34c0,0.7,0,1.4,0.4,2c0.5,0.8,1.6,1.1,2.6,1.2c14.2,2.1,28.7,2.5,43,1.4c3.6-0.3,8.5,0.3,9,3.8
	c0.5,3.6-4,5.5-7.3,7.1c-4.7,2.3-8.4,6.8-9.7,11.9"/>
<path fill="none" stroke="#000000" stroke-miterlimit="10" d="M221.6,418.7c-2.1,9.8-2.9,20-2.3,30c0.1,1.1,0.2,2.4,1,3.1
	c0.8,0.8,1.9,0.9,3,1c5.9,0.4,12.4-0.6,16.7-4.7c4-3.9,5.5-9.7,5.5-15.3c0.1-6.8-2.2-14.4-8.1-17.8c-3.2-1.8-7.2-2.1-10.6-0.8
	c-0.8,0.3-1.5,0.7-2,1.3c-0.6,0.8-0.7,1.9-0.9,2.9c-0.7,3.2-3,6-6.1,7.2"/>
<path fill="none" stroke="#000000" stroke-miterlimit="10" d="M228.2,453.5c0.9,9.1,0.6,18.4-0.8,27.4"/>
<path fill="none" stroke="#000000" stroke-miterlimit="10" d="M231.7,473.6c7.6-0.8,15.2-1.5,22.8-2c2.7-0.2,5.6-0.3,7.7,1.4
	c2.5,2,2.7,5.8,2.7,9c0,7.1-0.1,14.1-0.1,21.2"/>
<path fill="none" stroke="#000000" stroke-miterlimit="10" d="M228.4,465.8c11.9-1.5,23.7-3,35.6-4.5"/>
<path fill="none" stroke="#000000" stroke-miterlimit="10" d="M267.4,427c0,5.8-1.6,13.4-1.6,19.2c2.1-3.3,7.8-1.5,9.3,2.2
	c1.4,3.6,0,7.7-1.5,11.3c-1.2,2.8-3.7,6.2-6.5,4.9c-2-0.9-2.3-3.6-2.3-5.8c0-4.8,0-9.6,0.1-14.5"/>
<path fill="none" stroke="#000000" stroke-miterlimit="10" d="M328.5,339c0.1,54.2,0.3,108.4,0.4,162.5"/>
<path fill="none" stroke="#000000" stroke-miterlimit="10" d="M447.7,466.1c-0.6,12.5-0.9,25-0.7,37.6"/>
<path fill="none" stroke="#000000" stroke-miterlimit="10" d="M448.9,466.7c25-0.6,50-0.5,75,0.3"/>
<path fill="none" stroke="#000000" stroke-miterlimit="10" d="M523.9,394c-15.8,0.3-31.7,0.1-47.5-0.4c-9.2,11.9-23,19.2-35.4,27.8
	c27.5-0.9,55-1.2,82.5-0.7"/>
<path fill="none" stroke="#000000" stroke-miterlimit="10" d="M463.3,460.8c-0.1,1.8,0.6,3.6,1.9,4.8"/>
<path fill="none" stroke="#000000" stroke-miterlimit="10" d="M465.9,460.6c0.1,1.2,0.2,2.5,0.8,3.6c0.7,1.1,2,1.8,3.2,1.2"/>
<path fill="none" stroke="#000000" stroke-miterlimit="10" d="M470.7,461.4c0,1.2,0,2.4,0,3.5c0,0.1,0,0.2,0.1,0.3
	c0.1,0.1,0.3,0,0.2-0.1"/>
<path fill="none" stroke="#000000" stroke-miterlimit="10" d="M473.7,461.4c0,1.4,0,2.9,0,4.3"/>
<path fill="none" stroke="#000000" stroke-miterlimit="10" d="M477.8,462.3c-0.1,1.2-0.2,2.3-0.3,3.5"/>
<path fill="none" stroke="#000000" stroke-miterlimit="10" d="M483.5,461.6c-0.4,1.2-0.9,2.4-1.3,3.7"/>
<path fill="none" stroke="#000000" stroke-miterlimit="10" d="M486.1,461.4c0.3,1.8-0.3,3.7-1.5,5"/>
<path fill="none" stroke="#000000" stroke-miterlimit="10" d="M490,456.1c0.3,1.4-0.8,2.8-2.1,3.4c-1.3,0.6-2.8,0.6-4.3,0.6
	c-4.8,0-9.6,0-14.4-0.1c-1.9,0-3.8,0-5.6-0.6c-1.8-0.6-3.4-1.9-4-3.7c10.2,0.3,19.8-0.5,30-0.2"/>
<path fill="none" stroke="#000000" stroke-miterlimit="10" d="M460.3,457.3c-7.4-0.4-14.8-0.3-22.2-0.1c-0.7,0-1.6,0.1-1.8,0.8
	c-0.2,0.5,0.2,1.1,0.7,1.4c0.5,0.3,1.1,0.3,1.6,0.3c7.6-0.1,15.1-0.3,22.7-0.7"/>
<path fill="none" stroke="#000000" stroke-miterlimit="10" d="M392.9,431.4c-1.6,2.1-1.6,5-1.7,7.6c0,1.2,0,2.4,0.4,3.5
	c0.5,1.2,1.4,2,2.4,2.8c7.4,5.9,24,9.5,30.5,0.2c6.8-9.8-5.5-13.9-12.9-14.9c-6.5-0.9-13-0.6-19.2,1.5"/>
<path fill="none" stroke="#000000" stroke-miterlimit="10" d="M419.6,438.3c1.7,0,3.5,0,5.2-0.2"/>
<path fill="none" stroke="#000000" stroke-miterlimit="10" d="M415.7,444.5c0.1,1,0.2,2.1,1,2.6c0.4,0.3,0.8,0.4,1.3,0.4
	c1.3,0.2,2.7,0.3,4.1,0.2"/>
<path fill="none" stroke="#000000" stroke-miterlimit="10" d="M410,430.7c1.1-1.7,0.6-4.2-1-5.3c-0.7-0.5-1.5-0.8-2.3-1
	c-9.1-2.3-19.1,1.9-24.8,9.3c-2.6,3.3-4.4,7.4-3.8,11.6c0.1,0.4,0.4,1.1,0.3,0.7c2.7-4.9,6-9.5,9.8-13.7c1.5-1.6,3-3.2,5.1-4.1
	c1.8-0.8,3.8-0.9,5.8-0.8c2.5,0,5.2,0.3,7.2,1.8"/>
<path fill="none" stroke="#000000" stroke-miterlimit="10" d="M416.8,432.7c-0.8-3.9-3.8-7-7.3-8.9c-2-1.1-4.4-1.9-6.5-1.1
	c-1.6,0.6-2.6,2.1-3.6,3.4c-3.3,4.7-6.2,9.7-8.7,15"/>
<path fill="none" stroke="#000000" stroke-miterlimit="10" d="M420.4,433c1-2.3,0.5-5.1-1.2-6.9c-1.7-1.8-4.6-2.4-6.8-1.5
	c-1.6,0.6-2.8,1.8-3.9,3.1c-3.5,3.9-6.3,8.4-8.3,13.2c-0.8,1.8-1.4,3.7-2.3,5.5"/>
<path fill="none" stroke="#000000" stroke-miterlimit="10" d="M423.1,434.6c1-1.9,1.7-3.9,1.8-6c0-0.3,0-0.7-0.1-1
	c-0.1-0.3-0.4-0.5-0.6-0.7c-1.9-1.3-4.4-1.7-6.5-1c-2.2,0.7-4,2.4-5.5,4.3c-2.7,3.3-4.9,7-6.3,11.1"/>
<path fill="none" stroke="#000000" stroke-miterlimit="10" d="M407.6,451.2c0.4,9.6,0.5,19.3,0.4,28.9"/>
<path fill="none" stroke="#000000" stroke-miterlimit="10" d="M406.8,466.6c5.2-1.1,10.3-2.8,15.3-4.8c2.4-1,4.9-2.2,7.4-2.9
	c2.2-0.6,4.5-0.9,6.8-1"/>
<path fill="none" stroke="#000000" stroke-miterlimit="10" d="M407.5,480.5c-1.4,3.7-5.3,5.8-7.4,9.1c-1.5,2.5-1.9,5.6-2.2,8.5
	c-0.2,2.1-0.4,4.2-0.6,6.3"/>
<path fill="none" stroke="#000000" stroke-miterlimit="10" d="M408.8,480.6c2,2.8,3.9,5.7,5.9,8.5c0.9,1.4,1.9,2.8,2.6,4.3
	c1.6,3.4,2.1,7.2,1.6,10.9"/>
<path fill="none" stroke="#000000" stroke-miterlimit="10" d="M407.3,472.1c-3.5-2.1-7.1-4-10.8-5.8c-3.4-1.7-7-3.4-9.4-6.4"/>
<path fill="none" stroke="#000000" stroke-miterlimit="10" d="M384.9,453.9c1.6,4.4,2.7,9.1,3.2,13.8"/>
<path fill="none" stroke="#000000" stroke-miterlimit="10" d="M380.4,448.6c0.3,2.2,1.5,4.2,3.2,5.5c0.3,0.2,0.5,0.4,0.8,0.4
	c0.6,0.1,1.2-0.3,1.5-0.8s0.4-1.1,0.5-1.7c0.1-1.4,0.1-2.8-0.1-4.2c-0.1-0.6-0.3-1.2-0.9-1.3"/>
<path fill="none" stroke="#000000" stroke-miterlimit="10" d="M381.5,448.6c0.7-0.1,1.2,0.7,1.5,1.4c0.4,0.9,0.7,1.8,1.1,2.7"/>
<path fill="none" stroke="#000000" stroke-miterlimit="10" d="M384.4,447.9c0.7,1.3,1,2.8,0.9,4.3"/>
<text transform="matrix(1 0 0 1 651.7455 82.8587)" font-family="'YouYuan'" font-size="48px" glyph-orientation-vertical="0" writing-mode="tb">我们会有自己的房子</text>
<path fill="none" stroke="#000000" stroke-miterlimit="10" d="M219.5,411.8c0.2,1,1,1.7,1.7,2.4c1.1,1.3,2,2.8,2.5,4.4"/>
<path fill="none" stroke="#000000" stroke-miterlimit="10" d="M223.9,410.2c1,0.7,1.7,1.7,2.2,2.8c0.1,0.3,0.2,0.7,0.5,1
	c0.2,0.3,0.6,0.4,0.9,0.3"/>
<path fill="none" stroke="#000000" stroke-miterlimit="10" d="M228.5,408.1c0.6,2,1.4,4.1,2.2,6c0.3-0.2,0.6-0.4,0.8-0.7"/>
<path fill="none" stroke="#000000" stroke-miterlimit="10" d="M236.7,409.2c0.2,1.7,0.6,3.4,1.3,5"/>
<path fill="none" stroke="#000000" stroke-miterlimit="10" d="M244.2,409c-0.1,2.6-0.5,5.2-1,7.8"/>
<path fill="none" stroke="#000000" stroke-miterlimit="10" d="M238.4,426.9c1.1,0,2.2,0,3.3,0c0.3,0,0.7,0,0.9,0.2
	c0.4,0.2,0.7,0.7,1.1,0.5"/>
<path fill="none" stroke="#000000" stroke-miterlimit="10" d="M233.4,443.3c0.7,1.1,1.5,2.2,2.5,3.1c0.5-0.2,1.1,0.1,1.6,0.3
	c0.8,0.3,1.7,0.4,2.5,0.2"/>
</svg>
