<?xml version="1.0" encoding="utf-8"?>
<!-- Generator: Adobe Illustrator 19.1.0, SVG Export Plug-In . SVG Version: 6.00 Build 0)  -->
<svg version="1.1" id="page2" xmlns="http://www.w3.org/2000/svg" xmlns:xlink="http://www.w3.org/1999/xlink" x="0px" y="0px"
	 viewBox="0 0 800 600" enable-background="new 0 0 800 600" xml:space="preserve">
<line fill="none" stroke="#040000" stroke-miterlimit="10" x1="147.1" y1="218.4" x2="443.8" y2="55.4"/>
<line fill="none" stroke="#040000" stroke-miterlimit="10" x1="147.5" y1="219.2" x2="147.5" y2="458.2"/>
<line fill="none" stroke="#040000" stroke-miterlimit="10" x1="147.5" y1="218.7" x2="167.6" y2="218.4"/>
<line fill="none" stroke="#040000" stroke-miterlimit="10" x1="167.5" y1="219.2" x2="167.5" y2="464.2"/>
<line fill="none" stroke="#040000" stroke-miterlimit="10" x1="167.5" y1="218.7" x2="463.4" y2="55.4"/>
<polygon fill="none" stroke="#040000" stroke-miterlimit="10" points="454.8,231.1 266.2,330.6 263.7,192.5 452.3,92.9 "/>
<polygon fill="none" stroke="#040000" stroke-miterlimit="10" points="433,234.5 285.6,310.1 285.6,189 433,113.5 "/>
<polygon fill="none" stroke="#040000" stroke-miterlimit="10" points="381.8,347 306.5,338.4 452.1,255.5 527.3,264 "/>
<line fill="none" stroke="#040000" stroke-miterlimit="10" x1="167.6" y1="356.1" x2="383" y2="391.2"/>
<line fill="none" stroke="#040000" stroke-miterlimit="10" x1="382.5" y1="391.2" x2="382.5" y2="514.2"/>
<path fill="none" stroke="#040000" stroke-miterlimit="10" d="M671.4,412.6c-3-29-8.4-57.8-13.9-86.4c-1.6-8.2-3.2-16.3-6.9-23.7
	c-3.7-7.4-7.4-14.7-8.6-22.7h-89c-0.6,11-9.9,21.7-14.5,31.9c-4.1,9-10.3,21.4-12.7,30.6c-3.4,13,0,31.7,0,45.2"/>
<path fill="none" stroke="#040000" stroke-miterlimit="10" d="M537.4,298.8c-5-1.9-9.9-3.8-14.9-5.7c-7-2.7-14-5.3-21.1-7.4
	c-14.9-4.4-30.4-6.4-45.8-7.4"/>
<path fill="none" stroke="#040000" stroke-miterlimit="10" d="M519.1,384c-2.1-5.4-5-10.5-8.2-15.3c-17.2-26.4-44-46.4-74.3-55.4
	c-9.4-2.8-19.3-4.6-28.9-2.8"/>
<path fill="none" stroke="#040000" stroke-miterlimit="10" d="M526.5,386.2v30.5c48.3,0,98.5-5.4,146.6-2.1"/>
<path fill="none" stroke="#040000" stroke-miterlimit="10" d="M478.9,435.5c48.3,9.6,98,9.4,147.3,9.2c18.1-0.1,36.4-0.1,54.3-3
	c6.7-1.1,13.6-2.6,19.2-6.5c4.2-3,7.4-7.3,10.3-11.7c18-28.2,21.9-62.8,25.4-96.1c1.8-17.7,3.7-35.3,5.5-53c2.7-0.2,5.4-0.5,8.1-0.7
	c2.7,18.3,4.1,36.9,4,55.4c0,11.6-0.6,23.3-2.9,34.7c-2.4,11.9-6.6,23.4-10.8,34.8c-12.4,33.9-24.8,67.7-37.2,101.6
	c-5.5,14.9-11.9,31-25.7,39c-12.6,7.2-28.2,5.8-42.6,3.8c-52-7.1-103.6-17.8-154.1-32c-6.4-1.8-13.5-4.1-16.9-9.9
	c-3-5-2.5-11.3-1.8-17.1c1.9-16.9,3.8-33.8,5.6-50.7c5.4-2.3,11.9-1.9,17,0.9"/>
<path fill="none" stroke="#040000" stroke-miterlimit="10" d="M527.8,416.5c-18.7,0.1-37.4,0.1-56.1,0.2c-8.2,0-17,0.2-23.8,4.9
	c-7.5,5.2-10.8,14.6-13,23.5c-4.9,19.7-7.2,40-6.7,60.3"/>
<path fill="none" stroke="#040000" stroke-miterlimit="10" d="M556.1,279.2c-1.8,0-3.6,0-5.4,0c-6.7-15.4-20.8-26.9-26.3-42.8
	c-3.4-10-3.1-20.9-2.8-31.5c0.1-4,0.3-8.3,2.5-11.7c1.4-2.3,3.7-4,5.9-5.6c21-14.8,47.6-21.3,73.1-17.9c8.3,1.1,16.6,3.3,23.8,7.5
	c7.5,4.4,13.7,10.8,18.5,18c11.9,17.8,15.4,41.3,7.7,61.2c-3,7.7-7.4,14.7-10.4,22.4"/>
<path fill="none" stroke="#040000" stroke-miterlimit="10" d="M594.2,218.2c1.7-0.6,3.1-1.9,4.5-2.9c5.2-3.7,12.1-4.3,18.3-3.1
	c6.2,1.3,12,4.2,17.7,7.1"/>
<path fill="none" stroke="#040000" stroke-miterlimit="10" d="M565.9,258c2.3,2.6,6.2,2.7,9.7,3c5.8,0.5,11.6,2,17.4,1.4
	s11.9-4,13.1-9.7"/>
<path fill="none" stroke="#040000" stroke-miterlimit="10" d="M536.8,225.7c6.1-4.4,12.5-8.9,19.9-10.1c6.4-1,13.3,0.7,18.5,4.6"/>
<path fill="none" stroke="#040000" stroke-miterlimit="10" d="M530.1,174c-2.1,4-4.5,7.8-7.2,11.4c-2.7,3.6-5.8,7.1-7.4,11.3
	c-1.3,3.6-1.5,7.6-1.6,11.5c-0.2,12.6,0.2,25.3,1.2,37.9"/>
<path fill="none" stroke="#040000" stroke-miterlimit="10" d="M547.3,171c-2.3-0.9-4.9,0.5-6.2,2.5s-1.7,4.5-2,6.9
	c-2.4,17.3-4.8,34.5-7.3,51.8"/>
<path fill="none" stroke="#040000" stroke-miterlimit="10" d="M550.4,162.1c-1.1,15.9-1.4,31.9-0.8,47.8"/>
<path fill="none" stroke="#040000" stroke-miterlimit="10" d="M551.2,156.2c4.1,16.4,11.6,32,21.8,45.4"/>
<path fill="none" stroke="#040000" stroke-miterlimit="10" d="M567.5,162.2c4.5,14.9,13.2,28.5,24.8,38.9"/>
<path fill="none" stroke="#040000" stroke-miterlimit="10" d="M582.6,158.2c-0.4,16.6,9.7,33,24.6,40.1"/>
<path fill="none" stroke="#040000" stroke-miterlimit="10" d="M601,166c4.9,11.7,9.8,23.4,14.6,35.1"/>
<path fill="none" stroke="#040000" stroke-miterlimit="10" d="M612.3,164.3c8.5,12.2,13.5,26.9,14.1,41.7"/>
<path fill="none" stroke="#040000" stroke-miterlimit="10" d="M624.7,166.4c2.1-1.3,4.9-0.9,7.1,0.4s3.6,3.4,5,5.4
	c10.9,16.1,17.7,35,19.4,54.4"/>
<path fill="none" stroke="#040000" stroke-miterlimit="10" d="M535,174.1c7-8.9,17.7-14.4,28.8-17.1s22.5-3,33.9-3.1
	c10.2-0.1,20.8,0,29.7,5c8.3,4.7,13.7,9.2,19.9,16.6c11.4,13.7,18.9,30.5,21.5,48"/>
</svg>
