<?xml version="1.0" encoding="utf-8"?>
<!-- Generator: Adobe Illustrator 19.1.0, SVG Export Plug-In . SVG Version: 6.00 Build 0)  -->
<svg version="1.1" id="page8" xmlns="http://www.w3.org/2000/svg" xmlns:xlink="http://www.w3.org/1999/xlink" x="0px" y="0px"
	 viewBox="0 0 800 600" enable-background="new 0 0 800 600" xml:space="preserve">
<path fill="none" stroke="#000000" stroke-miterlimit="10" d="M268.3,186.7c-22.4,1.5-44,13.3-57.3,31.4
	c-13.4,18.1-18.3,42.1-13.1,64c0.9,3.9,2.2,7.9,4.6,11.1c3,4.2,7.7,7,12.5,9c24,10,52.3,1.7,73.4-13.5
	c22.5-16.3,39.7-41.9,39.9-69.7c0-7.7-1.4-15.7-6.4-21.5c-3.8-4.3-9.2-6.9-14.6-8.8c-15.4-5.4-32.3-6.6-48.3-3.4"/>
<path fill="none" stroke="#000000" stroke-miterlimit="10" d="M460.9,291c-9.2,8.4-11.5,22.8-7.3,34.6s14.1,20.9,25.3,26.3
	c11.2,5.4,23.8,7.6,36.2,8.5c12.1,1,24.5,0.8,36.1-2.6s22.5-10.7,28.4-21.3c4-7.3,5.5-15.7,5.9-24c0.2-4,0-8.3-2.2-11.7
	c-2.1-3.2-5.8-5-9.3-6.6c-27.2-12-57.2-17.5-86.8-15.9c-11.7,0.6-25,3.5-30.5,13.8"/>
<path fill="none" stroke="#000000" stroke-miterlimit="10" d="M347.3,331.9c-6.2,7.8-5.2,19.3-10.1,28c-4.7,8.3-13.9,12.8-22.1,17.6
	c-8.2,4.8-16.7,11.5-18,20.9c-1.2,8.8,4.5,17.4,12.1,22c7.5,4.6,16.6,6.1,25.4,7c18.5,1.9,37.3,1.9,55.8,0c4.3-0.4,8.9-1.1,11.9-4.2
	c1.5-1.5,2.5-3.6,3.3-5.6c3.5-9.8,2.1-21.2-3.9-29.8c-3.6-5.2-8.8-9.4-11-15.3c-1.1-3-1.5-6.2-2-9.3c-1.9-12-7.1-24.2-17.4-30.7
	c-10.3-6.4-26.2-4.3-31.6,6.6"/>
<path fill="none" stroke="#000000" stroke-miterlimit="10" d="M353.9,431.5c-0.3,17.7-2.1,35.3-5.1,52.7"/>
<path fill="none" stroke="#000000" stroke-miterlimit="10" d="M350.2,468.8c-15.8-10.9-32.6-20.4-50.1-28.2"/>
<path fill="none" stroke="#000000" stroke-miterlimit="10" d="M353,462.6c15.5-0.2,30.9-5.7,43.1-15.3"/>
<path fill="none" stroke="#000000" stroke-miterlimit="10" d="M309.9,523.2c0.5,0.3-0.3,1-0.7,0.7s-0.3-1-0.2-1.5
	c4.4-18,20.2-32.6,38.4-35.6c7,12.2,16.9,23.8,19.1,37.7"/>
<path fill="none" stroke="#000000" stroke-miterlimit="10" d="M236.3,311.4c-2.4,13.6-4.8,27.2-5.6,41c-1.3,21.1,1,42.8-5.4,63"/>
<path fill="none" stroke="#000000" stroke-miterlimit="10" d="M230.9,363.2c18.5,22,34.7,45.9,48.4,71.1c0.8,1.4,1.6,2.9,3,3.8
	c3.1,1.9,7.6-0.4,10.6,1.6c3.3,2.1,4.4,4.2,3.6,8.1c-0.1,0.6-0.3,1.3-0.8,1.7c-1.7,1.5-3.8-1.3-4.2-3.5c-0.4-2.6-0.6-5.2-0.5-7.8
	c0.1-2.4,1.5-5.7,3.9-5.1c1.1,0.3,1.8,1.3,2.4,2.3c1,1.6,1.9,3.2,2.9,4.8c1,1.7,2,3.6,1.3,5.4c-0.7,1.8-4,2-4.2,0.1
	c-1.5-3.2-1.6-7.3,0.8-10c2.4-2.6,7.6-2.3,8.7,1.1c0.9,2.6-1.1,5.5-3.7,6.5c-2.6,1-5.4,0.7-8.1,0.2c-0.6-0.1-1.3-0.3-1.7-0.7
	c-0.4-0.5-0.4-1.2-0.4-1.9c0.1-2,0.2-4.1,1.1-5.9c0.9-1.8,2.8-3.2,4.8-2.9c1.9,3.5,3.3,7.3,4,11.2c0.2,1,0.3,2.1-0.1,3.1
	c-0.9,2.2-4.1,2.5-6,1c-1.8-1.5-2.4-4-2.3-6.3c0.1-2.3,0.7-4.6,0.7-7c1.5-1.1,3.3,0.8,4.2,2.4c1.4,2.7,2.9,5.6,2.7,8.6
	c-0.2,3.1-2.6,6.2-5.6,6c-4-0.3-5.4-6.1-3.1-9.4c2.2-3.3,6.4-4.6,10.2-5.7c1.3,2.1,2.3,4.6,1.8,7s-2.7,4.7-5.1,4.3
	c-2.1-0.3-3.6-2.3-4-4.4c-0.4-2.1,0.1-4.2,0.5-6.3c0.4-1.9,1.6-4.2,3.5-3.8"/>
<path fill="none" stroke="#000000" stroke-miterlimit="10" d="M224.5,359.4c-12,5.3-23.1,12.7-32.6,21.8
	c-5.9,5.6-11.3,11.9-17.4,17.3c-3.3,2.9-6.8,5.5-10.4,7.8"/>
<path fill="none" stroke="#000000" stroke-miterlimit="10" d="M166.1,517.1c-1.7-17.6,8.5-33.9,18.9-48.2
	c12.1-16.7,25.1-32.9,38.8-48.3c6.4,10.6,14.4,23.9,20.8,34.5c4.7,7.8,9.4,15.7,11.6,24.5c3.4,14-0.1,28.6,1.4,42.9"/>
<path fill="none" stroke="#000000" stroke-miterlimit="10" d="M512.4,363.2c0.6,26.1-0.6,52.3-3.6,78.2"/>
<path fill="none" stroke="#000000" stroke-miterlimit="10" d="M508.7,397.9c-20.1,0.3-40.2,2.8-59.7,7.6c-5.4,1.3-10.8,2.8-15.7,5.6
	c-10.3,5.9-19.6,18.5-24.4,29.2c-2.5,5.6-12.9,28.5-16.1,8.5c-0.4-2.8-0.9-5.7-0.1-8.4s2.9-5.3,5.7-5.5c2.9-0.2,5.4,2,6.5,4.7
	c1.1,2.6,1.1,5.6,1,8.5c0,1-0.1,2.1-0.7,3c-0.6,0.8-1.6,1.2-2.5,1.4c-2.8,0.8-5.9,1-8.6-0.1c-2.7-1.1-4.8-3.8-4.6-6.7
	c0.3-2.9,3.5-5.3,6.2-4.2c3.1,1.3,3.4,5.5,3.1,8.8c-0.2,2.1-1.7,5-3.5,3.9c-2.7-4-0.5-10.4,4.2-11.8c4.6-1.5,10.1,2.5,10.2,7.3
	c0,1.3-0.3,2.6-1.1,3.6c-1.5,1.8-4.4,2-6.5,0.8s-3.4-3.3-4.3-5.5c-0.6-1.6-1-3.3-0.5-4.9c0.5-1.6,2.4-2.8,3.9-2.2
	c1.2,0.5,1.8,1.8,2.2,3c0.8,2,1.5,4,2.3,6c0.3,0.9,0.7,1.8,0.3,2.7c-0.4,1.1-1.7,1.6-2.9,1.9c-3.8,0.8-7.8,0.8-11.6-0.1
	c-1.7-2.3-0.6-6,2-7.2c2.6-1.2,5.9,0.1,7.3,2.6s0.8,5.8-1,7.9c-0.7-3.8-0.8-7.6-0.2-11.4c1.9,1.2,2.2,4.2,0.6,5.8"/>
<path fill="none" stroke="#000000" stroke-miterlimit="10" d="M515.1,399.6c14.5-0.5,29.7,0.6,42.3,7.8c9.8,5.7,17.8,15,28.8,17.5"
	/>
<path fill="none" stroke="#000000" stroke-miterlimit="10" d="M504.5,440.6c-7.1,11.3-14.1,22.6-21.2,33.9
	c-8,12.8-16.3,26.7-14.9,41.7"/>
<path fill="none" stroke="#000000" stroke-miterlimit="10" d="M513.4,439.6c0.6,26.7,23,50,20.9,76.6"/>
<text transform="matrix(1 0 0 1 231.8594 124.5739)" font-family="'YouYuan'" font-size="48px">还有我们的娃</text>
</svg>
