<?xml version="1.0" encoding="utf-8"?>
<!-- Generator: Adobe Illustrator 19.1.0, SVG Export Plug-In . SVG Version: 6.00 Build 0)  -->
<svg version="1.1" id="page21" xmlns="http://www.w3.org/2000/svg" xmlns:xlink="http://www.w3.org/1999/xlink" x="0px" y="0px"
	 viewBox="0 0 800 600" enable-background="new 0 0 800 600" xml:space="preserve">
<path fill="none" stroke="#000000" stroke-miterlimit="10" d="M137,263.5c-0.4,14.7-0.3,31.2,9.9,41.9c4.6,4.9,10.8,7.9,16.9,10.8
	c10.4,4.9,22,9.9,33.1,6.8c7.8-2.1,14-7.8,21.2-11.4c3.5-1.7,7.2-3,10.1-5.6c5.2-4.7,6.2-12.4,6.9-19.4c1-10.3,1.6-21.8-4.7-30"/>
<path fill="none" stroke="#000000" stroke-miterlimit="10" d="M133.8,281.7c-3.9,1.6-8.6,0-11.3-3.2s-3.8-7.6-3.7-11.8
	c0.1-7.2,5.1-15.7,12.3-14.8c-1.3-0.5-2.2-1.6-2.9-2.8c-3.5-5.5-2.1-14,3.7-17.1c5.8-3.1,14.4,1.5,14.1,8c3.7-3.5,7.5-7.2,12.5-8.4
	c4.9-1.2,11.1,1.2,12.2,6.1c1.8-6,7.1-10.7,13.2-11.9c6.1-1.2,12.8,1.2,16.7,6c5.1-2.8,10.6-5.7,16.4-5.1c5.8,0.6,11.3,6.6,9.1,12
	c1.1-7.1,11.1-10.3,17.1-6.3s7.8,12.5,5.6,19.3c-2.2,6.9-7.5,12.3-13.2,16.7c3.5,2.8,4.9,8,3.3,12.2"/>
<path fill="none" stroke="#000000" stroke-miterlimit="10" d="M157.8,277.1c3.6-6.5,13.1-8.7,19.2-4.4"/>
<path fill="none" stroke="#000000" stroke-miterlimit="10" d="M189.9,271c6-3.5,12.9-5.5,19.9-5.9c-0.6,1.5,0.2,3.4,1.7,4.1"/>
<path fill="none" stroke="#000000" stroke-miterlimit="10" d="M175.3,299.7c5.2,1.9,10.6,2.9,16.1,3.1c0.9,0,1.8,0,2.4-0.7
	c0.9-1.1,1.1-3.8,2.3-3"/>
<path fill="none" stroke="#000000" stroke-miterlimit="10" d="M187.8,328.1c0.4,19.7,0.8,39.5,1.2,59.2"/>
<path fill="none" stroke="#000000" stroke-miterlimit="10" d="M181.5,350.8c-18.7,8.4-36.3,19.4-52.2,32.5"/>
<path fill="none" stroke="#000000" stroke-miterlimit="10" d="M193.1,348.1c18.1,6.2,35.7,13.5,52.7,22c2.4,1.2,5.1,3.1,4.6,5.5"/>
<path fill="none" stroke="#000000" stroke-miterlimit="10" d="M184.6,393.9c-10.9,17.7-20.1,36.5-27.4,56"/>
<path fill="none" stroke="#000000" stroke-miterlimit="10" d="M195.5,398.3c-0.6,20.5,2.9,41.1,10.2,60.3"/>
<path fill="none" stroke="#000000" stroke-miterlimit="10" d="M280.9,234.4c-3.5,13.2-1.8,27.1,0,40.6c0.7,5.9,1.5,11.9,3.9,17.3
	c2.4,5.4,6.8,10.3,12.5,11.8c2.6,0.7,5.3,0.7,8,0.7c6.3,0,12.7-0.1,19-0.1c2.8,0,5.6,0,8.2-1.1c4.8-2,7.4-7,9.2-11.9
	c6.6-18.1,6.1-37.9,5.5-57.2"/>
<path fill="none" stroke="#000000" stroke-miterlimit="10" d="M278.2,261.6c-0.8-3.1-5.8-0.6-8.8-1.8c-1.3-0.5-2.1-1.8-2.8-3
	c-2.4-4-4.7-8.5-4-13.2s5.6-8.8,9.9-6.9c-3.8-4.2-5.4-10.3-4.7-15.9c0.4-3.1,1.6-6.3,4.3-7.7c2.7-1.4,7,0.5,6.7,3.6
	c-1-3.4,0.8-7.1,3.7-9.1c2.9-1.9,6.6-2.3,10.1-1.8c3.3,0.5,7.2,2.8,6.6,6.1c2-3.9,5.4-7.5,9.7-7.9c4.3-0.4,8.9,4,7.3,8
	c3.4-3,7.7-5.9,12.2-5.2c4.5,0.7,7.8,7,4.4,10c3.7,0.6,6.9-2.6,10.5-3.5c3.5-0.9,7.5,0.4,9.7,3.3c2.2,2.9,2.5,7.1,0.6,10.2
	c4.3-1.2,8.6,4.6,6.2,8.3c-0.8,0.6-1.6,1.1-2.4,1.7c0.7,3.4,4.9,5.4,5,8.8c0.1,2.9-2.9,5-5.8,5.7s-6,0.7-8.4,2.2"/>
<path fill="none" stroke="#000000" stroke-miterlimit="10" d="M293.6,252.7c4.4-1.9,9.5-1.9,13.9-0.1"/>
<path fill="none" stroke="#000000" stroke-miterlimit="10" d="M321.2,254.7c3.9-3.4,9.9-4,14.6-1.7"/>
<path fill="none" stroke="#000000" stroke-miterlimit="10" d="M310.4,282.5c-1.8,1.9-0.8,5.2,1.3,6.7c2.1,1.5,4.8,1.7,7.4,1.9
	c3.4,0.2,8.1-0.7,8.1-4.1"/>
<path fill="none" stroke="#000000" stroke-miterlimit="10" d="M316.4,305.4c-2.7,19.8,1,40-1.8,59.8c-1.4,9.8-4.4,19.5-3.8,29.4"/>
<path fill="none" stroke="#000000" stroke-miterlimit="10" d="M311.7,343.1c-4.8,1.1-9.1,3.6-13.4,6c-9.3,5.1-19.1,9.4-29.1,12.9
	c-3.9,1.3-7.8,2.6-11.1,5.1c-3.3,2.6-7.2,6.7-10.9,4.6"/>
<path fill="none" stroke="#000000" stroke-miterlimit="10" d="M318.2,350c9.7,1.5,19.6,3,28.1,7.8c5.4,3,10.4,7.4,16.5,8.4
	c3,0.5,6.6,0.3,8.6,2.7"/>
<path fill="none" stroke="#000000" stroke-miterlimit="10" d="M306.6,398.9c-7.5,16.8-16.9,32.7-28.1,47.3"/>
<path fill="none" stroke="#000000" stroke-miterlimit="10" d="M319.1,397.3c0.9,18.8,3.8,37.5,8.7,55.7"/>
<path fill="none" stroke="#000000" stroke-miterlimit="10" d="M670.9,264.1c0.4,14.7,0.3,31.2-9.9,41.9c-4.6,4.9-10.8,7.9-16.9,10.8
	c-10.4,4.9-22,9.9-33.1,6.8c-7.8-2.1-14-7.8-21.2-11.4c-3.5-1.7-7.2-3-10.1-5.6c-5.2-4.7-6.2-12.4-6.9-19.4c-1-10.3-1.6-21.8,4.7-30
	"/>
<path fill="none" stroke="#000000" stroke-miterlimit="10" d="M674.1,282.4c3.9,1.6,8.6,0,11.3-3.2c2.7-3.2,3.8-7.6,3.7-11.8
	c-0.1-7.2-5.1-15.7-12.3-14.8c1.3-0.5,2.2-1.6,2.9-2.8c3.5-5.5,2.1-14-3.7-17.1c-5.8-3.1-14.4,1.5-14.1,8c-3.7-3.5-7.5-7.2-12.5-8.4
	c-4.9-1.2-11.1,1.2-12.2,6.1c-1.8-6-7.1-10.7-13.2-11.9s-12.8,1.2-16.7,6c-5.1-2.8-10.6-5.7-16.4-5.1c-5.8,0.6-11.3,6.6-9.1,12
	c-1.1-7.1-11.1-10.3-17.1-6.3c-6,4-7.8,12.5-5.6,19.3s7.5,12.3,13.2,16.7c-3.5,2.8-4.9,8-3.3,12.2"/>
<path fill="none" stroke="#000000" stroke-miterlimit="10" d="M650.1,277.7c-3.6-6.5-13.1-8.7-19.2-4.4"/>
<path fill="none" stroke="#000000" stroke-miterlimit="10" d="M618,271.7c-6-3.5-12.9-5.5-19.9-5.9c0.6,1.5-0.2,3.4-1.7,4.1"/>
<path fill="none" stroke="#000000" stroke-miterlimit="10" d="M632.6,300.4c-5.2,1.9-10.6,2.9-16.1,3.1c-0.9,0-1.8,0-2.4-0.7
	c-0.9-1.1-1.1-3.8-2.3-3"/>
<path fill="none" stroke="#000000" stroke-miterlimit="10" d="M620.1,328.8c-0.4,19.7-0.8,39.5-1.2,59.2"/>
<path fill="none" stroke="#000000" stroke-miterlimit="10" d="M626.4,351.4c18.7,8.4,36.3,19.4,52.2,32.5"/>
<path fill="none" stroke="#000000" stroke-miterlimit="10" d="M614.8,348.8c-17.1,5.3-33.7,11.6-49.8,18.8c-2.2,1-4.8,2.6-4.3,4.7"
	/>
<path fill="none" stroke="#000000" stroke-miterlimit="10" d="M623.3,394.5c10.9,17.7,20.1,36.5,27.4,56"/>
<path fill="none" stroke="#000000" stroke-miterlimit="10" d="M612.4,398.9c0.6,20.5-2.9,41.1-10.2,60.3"/>
<path fill="none" stroke="#000000" stroke-miterlimit="10" d="M527,235c3.5,13.2,1.8,27.1,0,40.6c-0.7,5.9-1.5,11.9-3.9,17.3
	c-2.4,5.4-6.8,10.3-12.5,11.8c-2.6,0.7-5.3,0.7-8,0.7c-6.3,0-12.7-0.1-19-0.1c-2.8,0-5.6,0-8.2-1.1c-4.8-2-7.4-7-9.2-11.9
	c-6.6-18.1-6.1-37.9-5.5-57.2"/>
<path fill="none" stroke="#000000" stroke-miterlimit="10" d="M529.7,262.2c0.8-3.1,5.8-0.6,8.8-1.8c1.3-0.5,2.1-1.8,2.8-3
	c2.4-4,4.7-8.5,4-13.2c-0.7-4.6-5.6-8.8-9.9-6.9c3.8-4.2,5.4-10.3,4.7-15.9c-0.4-3.1-1.6-6.3-4.3-7.7c-2.7-1.4-7,0.5-6.7,3.6
	c1-3.4-0.8-7.1-3.7-9.1c-2.9-1.9-6.7-2.3-10.1-1.8c-3.3,0.5-7.2,2.8-6.6,6.1c-2-3.9-5.4-7.5-9.7-7.9c-4.3-0.4-8.9,4-7.3,8
	c-3.4-3-7.7-5.9-12.2-5.2s-7.8,7-4.4,10c-3.7,0.6-6.9-2.6-10.5-3.5c-3.5-0.9-7.5,0.4-9.7,3.3s-2.5,7.1-0.6,10.2
	c-4.3-1.2-8.6,4.6-6.2,8.3c0.8,0.6,1.6,1.1,2.4,1.7c-0.7,3.4-4.9,5.4-5,8.8c-0.1,2.9,2.9,5,5.8,5.7c2.8,0.7,6,0.7,8.4,2.2"/>
<path fill="none" stroke="#000000" stroke-miterlimit="10" d="M514.2,253.4c-4.4-1.9-9.5-1.9-13.9-0.1"/>
<path fill="none" stroke="#000000" stroke-miterlimit="10" d="M486.7,255.3c-3.9-3.4-9.9-4-14.6-1.7"/>
<path fill="none" stroke="#000000" stroke-miterlimit="10" d="M497.5,283.2c1.8,1.9,0.8,5.2-1.3,6.7c-2.1,1.5-4.8,1.7-7.4,1.9
	c-3.4,0.2-8.1-0.7-8.1-4.1"/>
<path fill="none" stroke="#000000" stroke-miterlimit="10" d="M491.5,306.1c2.7,19.8-1,40,1.8,59.8c1.4,9.8,4.4,19.5,3.8,29.4"/>
<path fill="none" stroke="#000000" stroke-miterlimit="10" d="M496.2,343.7c4.8,1.1,9.1,3.6,13.4,6c9.3,5.1,19.1,9.4,29.1,12.9
	c3.9,1.3,7.8,2.6,11.1,5.1c3.3,2.6,7.2,6.7,10.9,4.6"/>
<path fill="none" stroke="#000000" stroke-miterlimit="10" d="M489.7,350.7c-9.7,1.5-19.6,3-28.1,7.8c-5.4,3-10.4,7.4-16.5,8.4
	c-3,0.5-6.6,0.3-8.6,2.7"/>
<path fill="none" stroke="#000000" stroke-miterlimit="10" d="M501.3,399.6c7.5,16.8,16.9,32.7,28.1,47.3"/>
<path fill="none" stroke="#000000" stroke-miterlimit="10" d="M488.8,398c-0.9,18.8-3.8,37.5-8.7,55.7"/>
<text transform="matrix(1 0 0 1 184.126 150.0724)" font-family="'YouYuan'" font-size="48px">还要照顾我们的二老</text>
</svg>
