<?xml version="1.0" encoding="utf-8"?>
<!-- Generator: Adobe Illustrator 19.1.0, SVG Export Plug-In . SVG Version: 6.00 Build 0)  -->
<svg version="1.1" id="page8" xmlns="http://www.w3.org/2000/svg" xmlns:xlink="http://www.w3.org/1999/xlink" x="0px" y="0px"
	 viewBox="0 0 800 600" enable-background="new 0 0 800 600" xml:space="preserve">
<path fill="none" stroke="#000000" stroke-miterlimit="10" d="M94.8,468.5c89.1-64.9,167.4-143.2,245.3-221.2
	c20.6,60.5,82.9,99.3,104.7,159.4c39.5-10.9,74.5-33.4,108.9-55.6c24.1-15.6,48.2-31.1,72.3-46.7c42.5,50.8,82.4,103.8,119.3,158.7"
	/>
<path fill="none" stroke="#000000" stroke-miterlimit="10" d="M162.3,339.5c-1.2,5-2.2,11.1,1.5,14.7c2.8,2.8,7.2,2.9,11.1,2.9
	c2,0,4,0,5.8-0.8c2.9-1.2,4.7-4.2,5.3-7.2c0.7-3,0.4-6.2,0-9.3c-0.1-1.2-0.3-2.6-1.1-3.6c-1.1-1.3-2.9-1.7-4.6-1.9
	c-3.7-0.5-7.6-1-11.3-0.4c-3.7,0.6-7.5,2.4-9.4,5.6"/>
<path fill="none" stroke="#000000" stroke-miterlimit="10" d="M175,357.6c0.7,7.4,1,14.8,1,22.3"/>
<path fill="none" stroke="#000000" stroke-miterlimit="10" d="M175.8,367.9c0.5-0.6,1.3-0.9,2.1-1.2c3.9-1.2,8-1.9,12.1-1.8"/>
<path fill="none" stroke="#000000" stroke-miterlimit="10" d="M196.1,342c-1.1,1.2-1.4,2.9-1.2,4.5c0.2,1.6,0.9,3.1,1.7,4.5
	c0.3,0.5,0.7,1,1.2,1.4c0.4,0.3,1,0.4,1.5,0.5c2,0.3,4,0.4,6,0.4c2.7,0,5.4,0.1,7.8-1.1c1.6-0.8,2.9-2.2,3.5-3.9
	c0.5-1.7,0.2-3.7-1.1-4.9c-0.6-0.6-1.4-1-2.2-1.3c-4.4-1.9-9.4-1.7-14.2-1.4c-1.2,0.1-2.6,0.3-3.1,1.4"/>
<path fill="none" stroke="#000000" stroke-miterlimit="10" d="M205.4,353.2c-0.2,5.2-0.3,10.4-0.2,15.6"/>
<path fill="none" stroke="#000000" stroke-miterlimit="10" d="M205.1,361.5c3,0.1,6-0.6,8.6-2.1"/>
<path fill="none" stroke="#000000" stroke-miterlimit="10" d="M204.6,369.8c-0.8,3.2-1.3,6.6-1.4,9.9c0.3-0.3,0.5-0.7,0.8-1"/>
<path fill="none" stroke="#000000" stroke-miterlimit="10" d="M206,368.6c0.2,0.9,1.4,1.2,2.3,1.6s1.6,1,2.2,1.7"/>
<path fill="none" stroke="#000000" stroke-miterlimit="10" d="M204.5,360c-2.1,0.4-4,1.4-6,2.2c-2.7,1.1-5.5,1.9-8.3,2.3"/>
<path fill="none" stroke="#000000" stroke-miterlimit="10" d="M175.4,370.3c-4.3-1.9-9.1-2.3-13.7-3.5"/>
<path fill="none" stroke="#000000" stroke-miterlimit="10" d="M175.8,379.7c-0.3,8-0.4,16-0.5,24c0-0.3,0.1-0.7,0.1-1"/>
<path fill="none" stroke="#000000" stroke-miterlimit="10" d="M176.9,380.1c1.5,0.7,2.6,2.1,3.4,3.7s1.3,3.1,2.1,4.6
	c1.3,2.3,3.2,4.4,3.5,7"/>
<path fill="none" stroke="#000000" stroke-miterlimit="10" d="M161.1,332.8c0.5,0.9,1,1.7,1.5,2.6"/>
<path fill="none" stroke="#000000" stroke-miterlimit="10" d="M163.8,332.6c0.3,0.7,0.7,1.4,1.2,2"/>
<path fill="none" stroke="#000000" stroke-miterlimit="10" d="M168.4,331.3c0,0.7,0,1.3,0,2"/>
<path fill="none" stroke="#000000" stroke-miterlimit="10" d="M170.4,330.1c0,1,0,2,0,3c0,0.3,0,0.5,0.1,0.7s0.4,0.3,0.6,0.2"/>
<path fill="none" stroke="#000000" stroke-miterlimit="10" d="M174.3,331.6c-0.1,0.5,0,1.1,0.1,1.6"/>
<path fill="none" stroke="#000000" stroke-miterlimit="10" d="M177.4,331.2c0,1.1,0,2.2,0,3.3c0.2-0.1,0.4-0.2,0.5-0.4"/>
<path fill="none" stroke="#000000" stroke-miterlimit="10" d="M181.6,332.2c0,0.6,0,1.2,0,1.9"/>
<path fill="none" stroke="#000000" stroke-miterlimit="10" d="M184.3,332c0,1-0.2,1.9-0.6,2.8"/>
<path fill="none" stroke="#000000" stroke-miterlimit="10" d="M186.3,333.8c-0.5,1-1,2-1.4,3.1"/>
<path fill="none" stroke="#000000" stroke-miterlimit="10" d="M180.1,342.6c1.7,0,3.4,0,5.1,0"/>
<path fill="none" stroke="#000000" stroke-miterlimit="10" d="M176.9,350.2c-0.2,0.6,0.2,1.2,0.7,1.6c0.5,0.3,1.2,0.4,1.8,0.4
	c0.9,0.1,1.8,0.1,2.7,0.2s2,0.1,2.6-0.5"/>
<path fill="none" stroke="#000000" stroke-miterlimit="10" d="M210.4,344.8c1.6,0,3.1,0,4.7,0"/>
<path fill="none" stroke="#000000" stroke-miterlimit="10" d="M209.3,350.4c1.9,1.1,4.3,1.3,6.3,0.4"/>
<path fill="none" stroke="#000000" stroke-miterlimit="10" d="M201.6,340.5c-1.1-0.5-2-1.2-3-1.7s-2.2-0.9-3.3-0.6
	c-1,0.3-1.7,1.1-2.3,1.8c-0.8,0.9-1.5,1.9-1.9,3s-0.6,2.4-0.3,3.5"/>
<path fill="none" stroke="#000000" stroke-miterlimit="10" d="M209,340c-0.1-0.7-0.7-1.2-1.3-1.6c-2.5-1.6-5.2-2.9-8-4
	c-0.4-0.2-0.9-0.3-1.4-0.3c-0.6,0.1-1,0.4-1.5,0.8c-1.7,1.5-2.9,3.4-3.7,5.5c-0.8,2.1-0.6,4.2-1.3,6.2"/>
<path fill="none" stroke="#000000" stroke-miterlimit="10" d="M213.6,340.1c0.6-0.5,0.5-1.5,0-2.1s-1.3-0.8-2.1-1.1
	c-2.2-0.7-4.7-1.2-6.7,0c-1.3,0.8-2.1,2.3-3.1,3.5c-1.2,1.5-2.7,2.3-4.4,3.2c-1.3,0.7-1.6,2-2.3,3.4"/>
<path fill="none" stroke="#000000" stroke-miterlimit="10" d="M215.4,340.6c-0.3-0.9-1.2-1.4-2-1.8c-0.6-0.3-1.2-0.5-1.8-0.4
	c-0.6,0-1.1,0.2-1.7,0.5c-1.7,0.7-3.2,1.8-4.4,3.2c-0.6,0.7-1.1,1.4-1.8,2c-0.7,0.6-1.6,1-2.5,0.8"/>
<path fill="none" stroke="#000000" stroke-miterlimit="10" d="M215.9,341.4c0,0.5,0,1,0,1.5"/>
<path fill="none" stroke="#000000" stroke-miterlimit="10" d="M319.6,293.1c0.2-3.7,3.7-6.5,7.2-7.6c2.1-0.6,4.4-0.9,6.4,0.1
	c1.9,1,3.2,3.5,2.2,5.4c-0.9,1.7-2.9,2.3-4.5,3.4c-3.6,2.5-4.4,7.5-4.9,11.9"/>
<path fill="none" stroke="#000000" stroke-miterlimit="10" d="M327.3,318.9c-0.3-0.7,0.7-1.3,1.5-1.4c1.7-0.3,3.7-0.4,4.6,1
	c0.9,1.5-0.3,3.5-2,4c-1.6,0.5-3.4,0-5-0.4c-0.6-0.9-0.7-2.2-0.2-3.1c0.6-0.9,1.9-1.4,2.8-0.9c1,0.5,1.1,2.2,0.2,2.7
	c-0.1,0.5-1,0.7-1.3,0.2c-0.2-0.5-0.2-1.1,0-1.5c0.5,0.8,0.6,1.8,0.3,2.7c-0.8,0.4-1.8,0.2-2.3-0.5c1.1-0.7,2.5-0.8,3.6-0.1
	c-0.8,0.6-2,0.5-2.7-0.2s-0.7-2,0-2.7c0.3-0.4,1-0.6,1.4-0.3"/>
<path fill="none" stroke="#000000" stroke-miterlimit="10" d="M593.4,346.4c10.7-2.9,22.7-0.9,31.9,5.3s15.6,16.5,17,27.5
	c0.5,3.8,0.4,7.7-0.8,11.3c-2.3,6.6-8,11.4-13,16.3c-2.1,2-4.1,4.2-5,6.9c-0.9,2.7-0.2,6.2,2.2,7.7"/>
<path fill="none" stroke="#000000" stroke-miterlimit="10" d="M626.3,445.3c0.4,2.2,2.3,3.9,2.5,6.1c0.2,2.9-3,5.4-5.7,4.4
	c-2.9-1-3.8-4.9-2.6-7.6s3.9-4.5,6.7-5.8c0.1,0.4,0.2,0.8,0.4,1.3c0.5,1.7,0.9,3.6-0.1,5s-3.9,0.9-3.7-0.8c0.2-1.4,2.3-1.6,3.3-0.6
	s1,2.6,0.7,3.9c-0.2,1.4-0.9,3-2.3,3.3c-0.7-1.2-1.1-2.5-1.3-3.9c1.6-0.8,3.9,0,4.4,1.7s-1.9,3.6-3.3,2.4c0-1-0.1-2.1,0.4-3.1
	s1.4-1.7,2.5-1.5c1,0.2,1.6,1.7,0.8,2.4c-0.3,0.3-0.8,0.4-1.2,0.4c-3,0.4-6.1,0.4-9.2,0.2c-0.4-1-0.7-2.2-0.6-3.3"/>
<path fill="none" stroke="#000000" stroke-miterlimit="10" d="M332.8,321.3c0.1-1-0.9-1.9-2-2.1s-2.1,0.1-3.1,0.4
	c0.7-1.6,2.2-2.7,3.9-3.1c0.7,1.3-0.1,3.3-1.6,3.6c-0.3-1.4,0.8-2.9,2.2-3c0.1,1.3,0.3,2.6,0.4,3.9c0.5-0.5,1-1,1.5-1.6"/>
<text transform="matrix(1 0 0 1 128.5352 180.4828)" font-family="'YouYuan'" font-size="48px">还有未来各种各样的可能性</text>
</svg>
