<?xml version="1.0" encoding="utf-8"?>
<!-- Generator: Adobe Illustrator 19.1.0, SVG Export Plug-In . SVG Version: 6.00 Build 0)  -->
<svg version="1.1" id="page8" xmlns="http://www.w3.org/2000/svg" xmlns:xlink="http://www.w3.org/1999/xlink" x="0px" y="0px"
	 viewBox="0 0 800 600" enable-background="new 0 0 800 600" xml:space="preserve">
<path fill="none" stroke="#000000" stroke-miterlimit="10" d="M94.7,468.5c89.1-64.9,167.4-143.2,245.3-221.2
	c20.6,60.5,82.9,99.3,104.7,159.4c39.5-10.9,74.5-33.4,108.9-55.6c24.1-15.6,48.2-31.1,72.3-46.7c42.5,50.8,82.4,103.8,119.3,158.7"
	/>
<path fill="none" stroke="#000000" stroke-miterlimit="10" d="M162.2,339.5c-1.2,5-2.2,11.1,1.5,14.7c2.8,2.8,7.2,2.9,11.1,2.9
	c2,0,4,0,5.8-0.8c2.9-1.2,4.7-4.2,5.3-7.2c0.7-3,0.4-6.2,0-9.3c-0.1-1.2-0.3-2.6-1.1-3.6c-1.1-1.3-2.9-1.7-4.6-1.9
	c-3.7-0.5-7.6-1-11.3-0.4s-7.5,2.4-9.4,5.6"/>
<path fill="none" stroke="#000000" stroke-miterlimit="10" d="M174.9,357.6c0.7,7.4,1,14.8,1,22.3"/>
<path fill="none" stroke="#000000" stroke-miterlimit="10" d="M175.8,367.9c0.5-0.6,1.3-0.9,2.1-1.2c3.9-1.2,8-1.9,12.1-1.8"/>
<path fill="none" stroke="#000000" stroke-miterlimit="10" d="M196.1,342c-1.1,1.2-1.4,2.9-1.2,4.5s0.9,3.1,1.7,4.5
	c0.3,0.5,0.7,1,1.2,1.4c0.4,0.3,1,0.4,1.5,0.5c2,0.3,4,0.4,6,0.4c2.7,0,5.4,0.1,7.8-1.1c1.6-0.8,2.9-2.2,3.5-3.9
	c0.5-1.7,0.2-3.7-1.1-4.9c-0.6-0.6-1.4-1-2.2-1.3c-4.4-1.9-9.4-1.7-14.2-1.4c-1.2,0.1-2.6,0.3-3.1,1.4"/>
<path fill="none" stroke="#000000" stroke-miterlimit="10" d="M205.4,353.2c-0.2,5.2-0.3,10.4-0.2,15.6"/>
<path fill="none" stroke="#000000" stroke-miterlimit="10" d="M205,361.5c3,0.1,6-0.6,8.6-2.1"/>
<path fill="none" stroke="#000000" stroke-miterlimit="10" d="M204.5,369.8c-0.8,3.2-1.3,6.6-1.4,9.9c0.3-0.3,0.5-0.7,0.8-1"/>
<path fill="none" stroke="#000000" stroke-miterlimit="10" d="M206,368.6c0.2,0.9,1.4,1.2,2.3,1.6c0.9,0.4,1.6,1,2.2,1.7"/>
<path fill="none" stroke="#000000" stroke-miterlimit="10" d="M204.5,360c-2.1,0.4-4,1.4-6,2.2c-2.7,1.1-5.5,1.9-8.3,2.3"/>
<path fill="none" stroke="#000000" stroke-miterlimit="10" d="M175.3,370.3c-4.3-1.9-9.1-2.3-13.7-3.5"/>
<path fill="none" stroke="#000000" stroke-miterlimit="10" d="M175.7,379.7c-0.3,8-0.4,16-0.5,24c0-0.3,0.1-0.7,0.1-1"/>
<path fill="none" stroke="#000000" stroke-miterlimit="10" d="M176.8,380.1c1.5,0.7,2.6,2.1,3.4,3.7c0.8,1.5,1.3,3.1,2.1,4.6
	c1.3,2.3,3.2,4.4,3.5,7"/>
<path fill="none" stroke="#000000" stroke-miterlimit="10" d="M161.1,332.8c0.5,0.9,1,1.7,1.5,2.6"/>
<path fill="none" stroke="#000000" stroke-miterlimit="10" d="M163.8,332.6c0.3,0.7,0.7,1.4,1.2,2"/>
<path fill="none" stroke="#000000" stroke-miterlimit="10" d="M168.3,331.3c0,0.7,0,1.3,0,2"/>
<path fill="none" stroke="#000000" stroke-miterlimit="10" d="M170.3,330.1c0,1,0,2,0,3c0,0.3,0,0.5,0.1,0.7s0.4,0.3,0.6,0.2"/>
<path fill="none" stroke="#000000" stroke-miterlimit="10" d="M174.3,331.6c-0.1,0.5,0,1.1,0.1,1.6"/>
<path fill="none" stroke="#000000" stroke-miterlimit="10" d="M177.3,331.2c0,1.1,0,2.2,0,3.3c0.2-0.1,0.4-0.2,0.5-0.4"/>
<path fill="none" stroke="#000000" stroke-miterlimit="10" d="M181.6,332.2c0,0.6,0,1.2,0,1.9"/>
<path fill="none" stroke="#000000" stroke-miterlimit="10" d="M184.2,332c0,1-0.2,1.9-0.6,2.8"/>
<path fill="none" stroke="#000000" stroke-miterlimit="10" d="M186.2,333.8c-0.5,1-1,2-1.4,3.1"/>
<path fill="none" stroke="#000000" stroke-miterlimit="10" d="M180.1,342.6c1.7,0,3.4,0,5.1,0"/>
<path fill="none" stroke="#000000" stroke-miterlimit="10" d="M176.8,350.2c-0.2,0.6,0.2,1.2,0.7,1.6c0.5,0.3,1.2,0.4,1.8,0.4
	c0.9,0.1,1.8,0.1,2.7,0.2s2,0.1,2.6-0.5"/>
<path fill="none" stroke="#000000" stroke-miterlimit="10" d="M210.3,344.8c1.6,0,3.1,0,4.7,0"/>
<path fill="none" stroke="#000000" stroke-miterlimit="10" d="M209.2,350.4c1.9,1.1,4.3,1.3,6.3,0.4"/>
<path fill="none" stroke="#000000" stroke-miterlimit="10" d="M201.5,340.5c-1.1-0.5-2-1.2-3-1.7s-2.2-0.9-3.3-0.6
	c-1,0.3-1.7,1.1-2.3,1.8c-0.8,0.9-1.5,1.9-1.9,3s-0.6,2.4-0.3,3.5"/>
<path fill="none" stroke="#000000" stroke-miterlimit="10" d="M208.9,340c-0.1-0.7-0.7-1.2-1.3-1.6c-2.5-1.6-5.2-2.9-8-4
	c-0.4-0.2-0.9-0.3-1.4-0.3c-0.6,0.1-1,0.4-1.5,0.8c-1.7,1.5-2.9,3.4-3.7,5.5s-0.6,4.2-1.3,6.2"/>
<path fill="none" stroke="#000000" stroke-miterlimit="10" d="M213.6,340.1c0.6-0.5,0.5-1.5,0-2.1s-1.3-0.8-2.1-1.1
	c-2.2-0.7-4.7-1.2-6.7,0c-1.3,0.8-2.1,2.3-3.1,3.5c-1.2,1.5-2.7,2.3-4.4,3.2c-1.3,0.7-1.6,2-2.3,3.4"/>
<path fill="none" stroke="#000000" stroke-miterlimit="10" d="M215.3,340.6c-0.3-0.9-1.2-1.4-2-1.8c-0.6-0.3-1.2-0.5-1.8-0.4
	c-0.6,0-1.1,0.2-1.7,0.5c-1.7,0.7-3.2,1.8-4.4,3.2c-0.6,0.7-1.1,1.4-1.8,2s-1.6,1-2.5,0.8"/>
<path fill="none" stroke="#000000" stroke-miterlimit="10" d="M215.8,341.4c0,0.5,0,1,0,1.5"/>
<text transform="matrix(1 0 0 1 128.5085 180.4828)" font-family="'YouYuan'" font-size="48px">我愿和你一起走过</text>
<path fill="none" stroke="#000000" stroke-miterlimit="10" d="M569.7,295.5c-0.7,3.1-1.4,6.8,0.9,9c1.7,1.7,4.4,1.8,6.8,1.8
	c1.2,0,2.5,0,3.6-0.5c1.8-0.7,2.9-2.6,3.3-4.4c0.4-1.8,0.2-3.8,0-5.7c-0.1-0.7-0.2-1.6-0.7-2.2c-0.7-0.8-1.8-1-2.8-1.2
	c-2.3-0.3-4.7-0.6-6.9-0.2c-2.3,0.4-4.6,1.5-5.8,3.4"/>
<path fill="none" stroke="#000000" stroke-miterlimit="10" d="M577.5,306.7c0.4,4.5,0.6,9.1,0.6,13.7"/>
<path fill="none" stroke="#000000" stroke-miterlimit="10" d="M578.1,313c0.3-0.4,0.8-0.6,1.3-0.7c2.4-0.7,4.9-1.2,7.4-1.1"/>
<path fill="none" stroke="#000000" stroke-miterlimit="10" d="M590.5,297.1c-0.7,0.7-0.9,1.8-0.7,2.8c0.1,1,0.6,1.9,1,2.8
	c0.2,0.3,0.4,0.6,0.7,0.9c0.2,0.2,0.6,0.2,0.9,0.3c1.2,0.2,2.5,0.2,3.7,0.2c1.7,0,3.3,0.1,4.8-0.7c1-0.5,1.8-1.4,2.2-2.4
	c0.3-1,0.1-2.3-0.7-3c-0.4-0.4-0.9-0.6-1.4-0.8c-2.7-1.2-5.8-1-8.7-0.9C591.6,296.3,590.8,296.5,590.5,297.1"/>
<path fill="none" stroke="#000000" stroke-miterlimit="10" d="M596.3,304c-0.1,3.2-0.2,6.4-0.1,9.6"/>
<path fill="none" stroke="#000000" stroke-miterlimit="10" d="M596,309.1c1.8,0.1,3.7-0.4,5.3-1.3"/>
<path fill="none" stroke="#000000" stroke-miterlimit="10" d="M595.7,314.2c-0.5,2-0.8,4.1-0.9,6.1c0.2-0.2,0.3-0.4,0.5-0.6"/>
<path fill="none" stroke="#000000" stroke-miterlimit="10" d="M595.7,308.1c-1.3,0.2-2.5,0.9-3.7,1.4c-1.7,0.7-3.4,1.2-5.1,1.4"/>
<path fill="none" stroke="#000000" stroke-miterlimit="10" d="M577.8,314.5c-2.6-1.2-5.6-1.4-8.4-2.2"/>
<path fill="none" stroke="#000000" stroke-miterlimit="10" d="M578,320.2c-0.2,4.9-0.2,9.8-0.3,14.7c0-0.2,0.1-0.4,0.1-0.6"/>
<path fill="none" stroke="#000000" stroke-miterlimit="10" d="M578.7,320.5c0.9,0.4,1.6,1.3,2.1,2.3c0.5,0.9,0.8,1.9,1.3,2.8
	c0.8,1.4,2,2.7,2.2,4.3"/>
<path fill="none" stroke="#000000" stroke-miterlimit="10" d="M569,291.4c0.3,0.6,0.6,1,0.9,1.6"/>
<path fill="none" stroke="#000000" stroke-miterlimit="10" d="M570.7,291.3c0.2,0.4,0.4,0.9,0.7,1.2"/>
<path fill="none" stroke="#000000" stroke-miterlimit="10" d="M573.5,290.5c0,0.4,0,0.8,0,1.2"/>
<path fill="none" stroke="#000000" stroke-miterlimit="10" d="M574.7,289.8c0,0.6,0,1.2,0,1.8c0,0.2,0,0.3,0.1,0.4
	c0.1,0.1,0.2,0.2,0.4,0.1"/>
<path fill="none" stroke="#000000" stroke-miterlimit="10" d="M577.1,290.7c-0.1,0.3,0,0.7,0.1,1"/>
<path fill="none" stroke="#000000" stroke-miterlimit="10" d="M579,290.4c0,0.7,0,1.4,0,2c0.1-0.1,0.2-0.1,0.3-0.2"/>
<path fill="none" stroke="#000000" stroke-miterlimit="10" d="M581.6,291.1c0,0.4,0,0.7,0,1.2"/>
<path fill="none" stroke="#000000" stroke-miterlimit="10" d="M583.2,290.9c0,0.6-0.1,1.2-0.4,1.7"/>
<path fill="none" stroke="#000000" stroke-miterlimit="10" d="M584.5,292c-0.3,0.6-0.6,1.2-0.9,1.9"/>
<path fill="none" stroke="#000000" stroke-miterlimit="10" d="M580.7,297.5c1,0,2.1,0,3.1,0"/>
<path fill="none" stroke="#000000" stroke-miterlimit="10" d="M578.7,302.1c-0.1,0.4,0.1,0.7,0.4,1c0.3,0.2,0.7,0.2,1.1,0.2
	c0.6,0.1,1.1,0.1,1.7,0.1s1.2,0.1,1.6-0.3"/>
<path fill="none" stroke="#000000" stroke-miterlimit="10" d="M599.3,298.8c1,0,1.9,0,2.9,0"/>
<path fill="none" stroke="#000000" stroke-miterlimit="10" d="M598.6,302.2c1.2,0.7,2.6,0.8,3.9,0.2"/>
<path fill="none" stroke="#000000" stroke-miterlimit="10" d="M593.9,296.2c-0.7-0.3-1.2-0.7-1.8-1s-1.4-0.6-2-0.4
	c-0.6,0.2-1,0.7-1.4,1.1c-0.5,0.6-0.9,1.2-1.2,1.8s-0.4,1.5-0.2,2.2"/>
<path fill="none" stroke="#000000" stroke-miterlimit="10" d="M598.4,295.9c-0.1-0.4-0.4-0.7-0.8-1c-1.5-1-3.2-1.8-4.9-2.5
	c-0.2-0.1-0.6-0.2-0.9-0.2c-0.4,0.1-0.6,0.2-0.9,0.5c-1,0.9-1.8,2.1-2.3,3.4c-0.5,1.3-0.4,2.6-0.8,3.8"/>
<path fill="none" stroke="#000000" stroke-miterlimit="10" d="M601.3,295.9c0.4-0.3,0.3-0.9,0-1.3c-0.3-0.4-0.8-0.5-1.3-0.7
	c-1.4-0.4-2.9-0.7-4.1,0c-0.8,0.5-1.3,1.4-1.9,2.2c-0.7,0.9-1.7,1.4-2.7,2c-0.8,0.4-1,1.2-1.4,2.1"/>
<path fill="none" stroke="#000000" stroke-miterlimit="10" d="M602.3,296.2c-0.2-0.6-0.7-0.9-1.2-1.1c-0.4-0.2-0.7-0.3-1.1-0.2
	c-0.4,0-0.7,0.1-1,0.3c-1,0.4-2,1.1-2.7,2c-0.4,0.4-0.7,0.9-1.1,1.2c-0.4,0.4-1,0.6-1.5,0.5"/>
<path fill="none" stroke="#000000" stroke-miterlimit="10" d="M596.5,314.2c0.3,0.6,0.9,1.1,1.5,1.6c1.2,1.2,2.3,2.5,3.2,4"/>
<path fill="none" stroke="#000000" stroke-miterlimit="10" d="M595.1,320.4c0,0.3-0.2,0.5-0.3,0.8c-0.1,0.2-0.1,0.4-0.1,0.6
	c0,0.6,0,1.2,0,1.8"/>
<path fill="none" stroke="#000000" stroke-miterlimit="10" d="M210.9,382c0.5-1.9-0.2-4,0-6c0.2-2,2.1-4.2,3.9-3.3
	c1.3,2.7,0,6.4-2.7,7.7c-1,0.5-2.5,1.1-2.4,2.2"/>
<path fill="none" stroke="#000000" stroke-miterlimit="10" d="M215.2,383.9c1.8-1.4,4-2.1,6.3-1.9c-0.8,1.8-1.7,3.9-3.5,4.6
	s-4.5-1.1-3.6-2.9"/>
<path fill="none" stroke="#000000" stroke-miterlimit="10" d="M226.3,370.1c0.3-2.5,2.4-4.6,4.8-5c1.5-0.2,3.5,0.9,2.9,2.3
	c-0.8,2-4,0-5.9,0.9"/>
<path fill="none" stroke="#000000" stroke-miterlimit="10" d="M234.6,373.8c2.1-0.8,4.3-1.2,6.6-1c-0.3,2.4-3.1,4-5.3,3.2
	c0-0.6-0.1-1.1-0.1-1.7"/>
<path fill="none" stroke="#000000" stroke-miterlimit="10" d="M240.9,361.3c0.7-4.2,3.1-8.1,6.5-10.5c0.3,1.3,0.6,2.7,0.4,4
	c-0.2,1.3-1.2,2.6-2.5,2.9"/>
<path fill="none" stroke="#000000" stroke-miterlimit="10" d="M249.3,362.5c1.1-2,2.7-3.6,4.7-4.7c0.2,1.6,0.1,3.1-0.2,4.7
	c-1.4,0.5-3,0.7-4.5,0.7"/>
<path fill="none" stroke="#000000" stroke-miterlimit="10" d="M257,347.1c0-0.8,0-1.6,0-2.4"/>
<path fill="none" stroke="#000000" stroke-miterlimit="10" d="M262.4,340.7c1.6-2.3,3.2-4.7,4.9-7"/>
<path fill="none" stroke="#000000" stroke-miterlimit="10" d="M271.8,329.5c1.7-0.5,3.3-1.4,4.7-2.5"/>
<path fill="none" stroke="#000000" stroke-miterlimit="10" d="M281.1,323.5c0.6-1.3,1.7-2.4,3.1-2.8"/>
<path fill="none" stroke="#000000" stroke-miterlimit="10" d="M290.1,312.9c1.2-0.2,2.4-0.4,3.5-0.6"/>
<path fill="none" stroke="#000000" stroke-miterlimit="10" d="M299.5,304.7c1.1,0.2,2.2-0.7,2.3-1.8"/>
<path fill="none" stroke="#000000" stroke-miterlimit="10" d="M307.2,291.6c1.2,0,2.4,0,3.5,0"/>
<path fill="none" stroke="#000000" stroke-miterlimit="10" d="M320.2,283.4c2.4-0.8,4.7-1.6,7.1-2.4"/>
<path fill="none" stroke="#000000" stroke-miterlimit="10" d="M342,286.1c4.3,0.1,8.5,2.2,11.1,5.6"/>
<path fill="none" stroke="#000000" stroke-miterlimit="10" d="M364.5,303.5c0.9,4,3,7.8,5.9,10.6"/>
<path fill="none" stroke="#000000" stroke-miterlimit="10" d="M375.7,323c0.7,2.9,2.1,5.5,4.2,7.7"/>
<path fill="none" stroke="#000000" stroke-miterlimit="10" d="M386.8,347.2c0.1,3.3,1.4,6.5,3.7,8.8"/>
<path fill="none" stroke="#000000" stroke-miterlimit="10" d="M404.6,374.9c4.3,3.6,8.8,7,13.6,10"/>
<path fill="none" stroke="#000000" stroke-miterlimit="10" d="M419.9,389.1c0.4,2,1.8,3.8,3.6,4.7"/>
<path fill="none" stroke="#000000" stroke-miterlimit="10" d="M427.1,399.7c2,1,3.9,2.4,5.3,4.1"/>
<path fill="none" stroke="#000000" stroke-miterlimit="10" d="M439.2,410.7c2.8,2,6.3,3,9.7,2.9c9.1-0.2,17.9-4.4,26-8.6
	c2.6-1.4,4.7-4.8,6.5-7.1"/>
<path fill="none" stroke="#000000" stroke-miterlimit="10" d="M492.6,393.2c2.4-1.4,4.7-2.8,7.1-4.1"/>
<path fill="none" stroke="#000000" stroke-miterlimit="10" d="M503.2,387.8c2.6-1.2,5.1-2.4,7.7-3.6"/>
<path fill="none" stroke="#000000" stroke-miterlimit="10" d="M516.2,382.6c0.4-0.4,0.8-0.8,1.2-1.2"/>
<path fill="none" stroke="#000000" stroke-miterlimit="10" d="M524.5,379c3.5-1.4,7.1-2.8,10.6-4.1"/>
<path fill="none" stroke="#000000" stroke-miterlimit="10" d="M542.8,371.4c2.9-1.4,5.9-2.8,8.8-4.2"/>
<path fill="none" stroke="#000000" stroke-miterlimit="10" d="M555.7,365.3c3.1-2.5,6.9-4.1,10.8-4.5"/>
<path fill="none" stroke="#000000" stroke-miterlimit="10" d="M574.2,357.2c0.8-2.6,2.7-4.9,5.1-6"/>
<path fill="none" stroke="#000000" stroke-miterlimit="10" d="M585.4,344.2c1.4-1.2,2.7-2.4,4.1-3.6"/>
<path fill="none" stroke="#000000" stroke-miterlimit="10" d="M596.5,337.7c0.4-2.7,3.3-4.7,6-4.1"/>
<path fill="none" stroke="#000000" stroke-miterlimit="10" d="M611.2,329.2c3-1.3,6.3-2.2,9.6-2.5"/>
<path fill="none" stroke="#000000" stroke-miterlimit="10" d="M626.1,323.1c3-0.4,6.3,1.2,7.8,3.9"/>
<path fill="none" stroke="#000000" stroke-miterlimit="10" d="M644.6,340.5c3.9,6.8,7.9,13.6,11.8,20.4c8.1,4.3,17.5,12.9,23.7,19.6
	"/>
<path fill="none" stroke="#000000" stroke-miterlimit="10" d="M683.7,391.5c1.8,4.8,4.3,9.4,7.4,13.4"/>
<path fill="none" stroke="#000000" stroke-miterlimit="10" d="M695.8,413.3c1,5.8,4.9,10.6,8.7,15.1"/>
<path fill="none" stroke="#000000" stroke-miterlimit="10" d="M708.5,437.6c0.8,2.8,2.4,5.5,4.4,7.6"/>
<path fill="none" stroke="#000000" stroke-miterlimit="10" d="M722.7,459.5c2.2,2.5,4.4,5,6.6,7.6"/>
</svg>
