<?xml version="1.0" encoding="utf-8"?>
<!-- Generator: Adobe Illustrator 19.1.0, SVG Export Plug-In . SVG Version: 6.00 Build 0)  -->
<svg version="1.1" id="page8" xmlns="http://www.w3.org/2000/svg" xmlns:xlink="http://www.w3.org/1999/xlink" x="0px" y="0px"
	 viewBox="0 0 800 600" enable-background="new 0 0 800 600" xml:space="preserve">
<path fill="none" stroke="#000000" stroke-miterlimit="10" d="M434.1,210.3c12.5,14.4,27.1,26.8,43.1,36.5c1.6-0.9,3.2-1.9,4.8-2.8"
	/>
<path fill="none" stroke="#000000" stroke-miterlimit="10" d="M522.7,213.1c-6.5,3.1-12.8,6.7-18.8,10.9
	c-8.9,6.2-17.5,14.5-19.5,25.6c-3.3,18.6-5.5,38.8-8.4,57.5"/>
<path fill="none" stroke="#000000" stroke-miterlimit="10" d="M537.2,271.5c-2.6-0.9-5,1.7-6.5,4.1c-5.4,8.4-9.9,17.8-10.3,27.9
	c-0.1,3.2,0.5,7,3.2,8.5c1.2,0.6,2.6,0.7,3.9,0.7c4.6,0.1,9.1-0.1,13.7-0.6c5.1-0.5,10.2-1.5,14.8-3.8s8.7-6.1,10.6-11.1
	c1.9-5.2,1.4-11,0.7-16.5c-0.2-1.6-0.4-3.2-1.3-4.4c-0.9-1.1-2.2-1.7-3.5-2.1c-9.1-3-19.5-1.5-27.4,4.1"/>
<path fill="none" stroke="#000000" stroke-miterlimit="10" d="M596.8,274.6c-4.1,10.8-5.9,22.6-5.1,34.3c10.4,0.8,20.7-3.5,29.4-9.5
	c9.7-6.6,18.7-16.9,18.3-29c-3,11-5.1,22.2-6.1,33.6c-0.1,0.8-0.1,1.6,0.2,2.2c0.9,1.9,3.5,1.4,5.4,0.7c7.1-3,14.2-5.9,21.3-8.9"/>
<path fill="none" stroke="#000000" stroke-miterlimit="10" d="M298.9,71.5c12.3-0.2,24.6-0.1,36.9,0.4c-1.2,0-2.4,0.1-3.6,0.1"/>
<path fill="none" stroke="#000000" stroke-miterlimit="10" d="M316.6,72c-1.3,32.4-2.5,64.7-3.8,97.1"/>
<path fill="none" stroke="#000000" stroke-miterlimit="10" d="M292.6,171.7c10.7-0.6,21.5-0.7,32.2-0.4"/>
<path fill="none" stroke="#000000" stroke-miterlimit="10" d="M89.2,71.2c-6.2,24.2-8.6,49.4-7.1,74.4c0.6,9.6,2.7,20.6,10.9,24.8
	c7.3,3.7,15.9,0.1,22.9-4.2c29.9-18.5,51.1-49.7,65.6-82.9c-5.1,21.2-7.4,43.2-6.7,65.1c0.2,5.8,0.9,12.3,5.3,15.9
	c2.1,1.7,4.7,2.5,7.3,3.1c7.3,1.6,15.1,1.7,22.1-1.1c4.6-1.8,8.6-4.8,12.5-8c23-19.3,38.7-47.9,43.3-78.5"/>
<path fill="none" stroke="#000000" stroke-miterlimit="10" d="M393.4,72.7c-4.5,28.5-9.1,57-13.6,85.5c-0.8,5-2.1,10.7-6.5,12.8
	c24,1.9,48.1,2.5,72.1,1.8c1.4,0,3-0.1,4.1-1.1s1.3-3.1,0.1-3.8"/>
<path fill="none" stroke="#000000" stroke-miterlimit="10" d="M498.1,76.5c-5.3,34.7-14.1,68.8-26.3,101.5
	c26.9,0.4,53.7,0.4,80.6,0.2"/>
<path fill="none" stroke="#000000" stroke-miterlimit="10" d="M42.7,469.4c10.8-4.8,21.7-9.2,32-15.1c21.7-12.6,39.7-31.5,54.4-52.5
	c14.7-21,26.4-44.3,37.5-67.6c4.7-9.8,9.5-20.2,9.2-31.2c-15.5,38-19.3,80.2-18.7,121.5c0.2,11.8,0.8,24.2,6.3,34.5
	c17.9-4.4,34.7-13.8,48.3-27c27.2-26.5,39.5-65.5,50.7-102.8c-7.8,47.2-11,95.3-9.5,143.2"/>
<path fill="none" stroke="#000000" stroke-miterlimit="10" d="M323.2,413.1c1.5-3.5-0.2-7.8-3.3-9.8c-3-2-7-2-10.4-0.6
	c-3.3,1.4-6.2,3.9-8.7,6.6c-7.1,7.7-12.2,17.2-17.2,26.6c-2.4,4.5-4.8,9.3-4.5,14.4c0.1,1.7,0.6,3.5,1.9,4.6c1.4,1.2,3.3,1.2,5,1.2
	c6.4,0,12.8-0.1,19.2-0.3c3.4-0.1,6.9-0.4,9.8-2.2c4-2.6,5.8-7.7,6.8-12.5c1.4-6.6,1.8-13.4,1.2-20.2c1.4,5.7,1.2,11.6,2,17.5
	s2.6,11.9,7.1,15.4c1.3-1,2.4-2.4,3.1-3.9"/>
<path fill="none" stroke="#000000" stroke-miterlimit="10" d="M346.3,409.8c2.1,11.1,2.9,22.5,2.3,33.8c-0.1,2.2-0.3,4.4-1.1,6.4
	c1.1-4.6,2.8-9.1,4.9-13.3c3-5.9,6.8-11.3,10.6-16.7c1.8-2.6,3.7-5.3,6.2-7.2c4.1-3.1,9.4-3.9,14.4-3.6"/>
<path fill="none" stroke="#000000" stroke-miterlimit="10" d="M396,403.2c1.6,10.4,2.2,21,1.7,31.6c-0.2,3.7-0.8,7.9-3.8,9.7
	c2.5-9.3,9.9-15.9,15-23.9c1.9-3,3.5-6.1,5.7-8.8c2.2-2.7,5.3-4.8,8.7-4.8"/>
<path fill="none" stroke="#000000" stroke-miterlimit="10" d="M432.5,412.9c7-4.5,14.7-7.6,22.8-9.2c-0.3,10.7-2.8,21.2-7.2,30.9
	c17.7-4.9,33.3-17.6,42.1-34.5c-4.1,7.3-6,15.8-8,24.1c-7.8,32.2-18.3,64.3-36.7,91.3c-6.8,9.9-15.1,19.5-26.2,23.1
	c-1.5,0.5-3.3,0.8-4.4-0.3c-0.7-0.7-1-1.7-1.2-2.7c-1.5-8.8,2.2-17.6,6.8-25.1c7.8-12.7,18.2-23.5,29.6-32.7
	c31.1-25.3,69.7-40.1,108.9-41.8"/>
<path fill="none" stroke="#000000" stroke-miterlimit="10" d="M555.3,482.2c25.2-11,46.2-31.4,61.9-55
	c15.7-23.6,26.5-50.5,35.2-77.8c-2.5,38.3-2.8,76.7-0.8,115c18.3-33.4,45.7-61.9,56.3-98.8c-3.6,34.6-4.3,69.5-2,104.2
	c1.6-1.4,3.1-2.8,4.7-4.2"/>
<path fill="none" stroke="#000000" stroke-miterlimit="10" d="M724.4,443.8c5.1,0.5,10.2,0.3,15.3-0.7c1.6-0.3,3.2-0.7,4.3-1.9
	c1-1.2,1.4-2.8,1.6-4.4c0.9-5.6,1.1-11.4,0.6-17.1c-3.8-2.4-8.8-1.5-12.4,1.2c-3.6,2.7-6,6.7-7.9,10.9c-4,8.5-6.5,18.4-4.4,27.6
	c0.2,1.1,0.5,2.1,1.1,3.1c2,3.3,6.3,3.9,10,3.7c8.9-0.7,17.5-4.4,24.3-10.5"/>
<path fill="none" stroke="#000000" stroke-miterlimit="10" d="M322.1,314.7c-17.4-3.6-32.2-18.6-36.5-36.8c-2-8.6-1.8-17.6-1.3-26.4
	c0.3-6.3,1.2-13.3,6-17c2.2-1.7,4.9-2.4,7.6-3c6.4-1.5,13-2.5,19.5-1.4c6.5,1.1,12.8,4.6,16.2,10.5c3.4,5.9,3.1,14.3-1.6,19.1
	c9.7-6.5,19.5-12.9,29.2-19.4c3.9-2.6,8.1-5.3,12.7-5.5c7.8-0.3,14.2,6.5,18,13.6c6.4,11.7,8.7,27.4,1,38.1
	c-4.8,6.8-12.6,10.3-20,13.5c-15.7,6.9-31.6,13.8-48.3,16.6"/>
</svg>
