<?xml version="1.0" encoding="utf-8"?>
<!-- Generator: Adobe Illustrator 19.1.0, SVG Export Plug-In . SVG Version: 6.00 Build 0)  -->
<svg version="1.1" id="page3" xmlns="http://www.w3.org/2000/svg" xmlns:xlink="http://www.w3.org/1999/xlink" x="0px" y="0px"
	 viewBox="0 0 800 600" enable-background="new 0 0 800 600" xml:space="preserve">
<path fill="none" stroke="#040000" stroke-miterlimit="10" d="M508,329"/>
<path fill="none" stroke="#040000" stroke-miterlimit="10" d="M512.8,329"/>
<path fill="none" stroke="#040000" stroke-miterlimit="10" d="M522.2,329"/>
<path fill="none" stroke="#040000" stroke-miterlimit="10" d="M531.2,329"/>
<path fill="none" stroke="#040000" stroke-miterlimit="10" d="M542.5,329"/>
<path fill="none" stroke="#040000" stroke-miterlimit="10" d="M550.9,329"/>
<path fill="none" stroke="#040000" stroke-miterlimit="10" d="M187,131c132,0,263-1,395,1c-1,66,2,131-1,197c-6,0-11,0-17,0"/>
<path fill="none" stroke="#040000" stroke-miterlimit="10" d="M187,131"/>
<path fill="none" stroke="#040000" stroke-miterlimit="10" d="M187,204.6c0-24.5,0-49,0-73.6"/>
<path fill="none" stroke="#040000" stroke-miterlimit="10" d="M186.9,267.3c0-5.7,0-11.5,0-17.2"/>
<path fill="none" stroke="#040000" stroke-miterlimit="10" d="M186.9,268.7"/>
<path fill="none" stroke="#040000" stroke-miterlimit="10" d="M432.6,328.8C384,329,334,329,285.1,329.6"/>
<path fill="none" stroke="#040000" stroke-miterlimit="10" d="M207,145c119,1,238-1,357,1c0,55,0,111,0,166"/>
<path fill="none" stroke="#040000" stroke-miterlimit="10" d="M214.9,146.5"/>
<path fill="none" stroke="#040000" stroke-miterlimit="10" d="M218.9,146.4"/>
<path fill="none" stroke="#040000" stroke-miterlimit="10" d="M207,196.2c1-17.2-2-33.2,0.6-50.6"/>
<path fill="none" stroke="#040000" stroke-miterlimit="10" d="M206.8,272.8c0-1.6,0-3.2,0-4.9"/>
<path fill="none" stroke="#040000" stroke-miterlimit="10" d="M434.2,312c-50.2,0-101.2,0-151.4,0"/>
<polygon fill="none" stroke="#040000" stroke-miterlimit="10" points="267,466 160,440 160,261 267,287 "/>
<line fill="none" stroke="#040000" stroke-miterlimit="10" x1="160" y1="440" x2="160" y2="526"/>
<line fill="none" stroke="#040000" stroke-miterlimit="10" x1="267" y1="466" x2="267" y2="531"/>
<line fill="none" stroke="#040000" stroke-miterlimit="10" x1="267" y1="466" x2="327" y2="430"/>
<line fill="none" stroke="#040000" stroke-miterlimit="10" x1="267" y1="440" x2="327" y2="402"/>
<line fill="none" stroke="#040000" stroke-miterlimit="10" x1="327" y1="430" x2="327" y2="504"/>
<path fill="none" stroke="#040000" stroke-miterlimit="10" d="M305,214.2c3.4,13.8,1.7,28.6-4,41.5c-5.8,13.3-12.3,22.4-26.2,22.6
	c6,7.6,7.3,18,7.3,27.7c0.1,19.3,6.9,42.7,8.1,62c0.4,6.3-1.4,11.6-2.5,17.8c-2.4,12.9-8.5,25-17.4,34.6"/>
<path fill="none" stroke="#040000" stroke-miterlimit="10" d="M222.9,276.2c-13.4-6.1-26.7-13.7-35.4-26c-7.1-10-13.6-28.3-2.8-38
	c11.6-10.4,24.8-18.8,40.3-21.4c15.1-2.6,30.6-0.9,45.6,1c7.1,0.9,14.5,1.8,21.1,5c7.3,3.6,11.3,9.7,13.2,17.5"/>
<path fill="none" stroke="#040000" stroke-miterlimit="10" d="M285.4,397.1c3.8-6.2,8.2-12.9,15.1-15.3c3.7-1.3,7.7-1.2,11.6-1.1
	c5.6,0.1,11.3,0.3,16.9,0.4c1.5,0,3.2,0.1,4.5,0.8c1.3,0.7,2.3,1.9,3.2,3.2c8.1,11.6,10.4,26.3,10.6,40.5s-1.4,28.3-0.3,42.5"/>
<path fill="none" stroke="#040000" stroke-miterlimit="10" d="M319.6,407.9c-2.4,6.7-3.3,14-2.5,21.1"/>
<path fill="none" stroke="#040000" stroke-miterlimit="10" d="M282.2,308.8c20.4-11.9,36.6-30.4,53.2-47
	c5.1-5.1,10.2-10.2,15.3-15.3"/>
<path fill="none" stroke="#040000" stroke-miterlimit="10" d="M210.9,194.8c-13.8,4.7-27,10.8-39.6,18.1c-4.6,2.7-9.2,5.7-12.7,9.9
	c-3.7,4.5-5.7,10-7.7,15.4"/>
<path fill="none" stroke="#040000" stroke-miterlimit="10" d="M221.3,196.5c-22.7,11.7-42.9,28.1-59,47.8"/>
<path fill="none" stroke="#040000" stroke-miterlimit="10" d="M228.6,197.4c-12.2,17-22.5,35.3-30.9,54.5"/>
<path fill="none" stroke="#040000" stroke-miterlimit="10" d="M258.1,196.1c-7,5-14.1,10-19.9,16.3c-10.8,11.8-19.1,29.8-27.1,43.7"
	/>
<path fill="none" stroke="#040000" stroke-miterlimit="10" d="M271.8,203.6c-14.3,8.7-26.5,20.8-35.3,35"/>
<path fill="none" stroke="#040000" stroke-miterlimit="10" d="M277.4,212.5c-6.5,7-11.4,15.5-14.1,24.6"/>
<path fill="none" stroke="#040000" stroke-miterlimit="10" d="M271,262.4c8.6,0.8,17.4,1,26,0.5"/>
<path fill="none" stroke="#040000" stroke-miterlimit="10" d="M295.2,203.7c-2.9-0.5-4.9,2.8-6,5.6c-1.9,4.9-3.8,9.9-5.7,14.8"/>
<path fill="none" stroke="#040000" stroke-miterlimit="10" d="M494.2,275.1C517,261,541,248,564,234.2c0,10.6-1.8,1,0,0
	c0,30.8,0,62.8,0,94"/>
<path fill="none" stroke="#040000" stroke-miterlimit="10" d="M564,329c0,30,0,60,0,90c-19,11-38,22-57,34c-15,8-28,16-42,24
	c0-8.8,0.1-0.1,0,0c1-62-2-124,1-186c10-4,19-11,27.7-15.6"/>
<line fill="none" stroke="#040000" stroke-miterlimit="10" x1="564" y1="328.2" x2="564" y2="329"/>
<line fill="none" stroke="#040000" stroke-miterlimit="10" x1="465" y1="477" x2="465" y2="526"/>
<line fill="none" stroke="#040000" stroke-miterlimit="10" x1="564" y1="414" x2="564" y2="483"/>
<line fill="none" stroke="#040000" stroke-miterlimit="10" x1="459" y1="477" x2="400" y2="440"/>
<line fill="none" stroke="#040000" stroke-miterlimit="10" x1="400" y1="440" x2="400" y2="504"/>
<line fill="none" stroke="#040000" stroke-miterlimit="10" x1="417" y1="429" x2="465" y2="453"/>
<path fill="none" stroke="#040000" stroke-miterlimit="10" d="M521.4,259c4.6-14,1.6-29-2.4-43c-8-10-13-23-26-26
	c-22-3-49-3-62.9,17.1"/>
<path fill="none" stroke="#040000" stroke-miterlimit="10" d="M416.1,202c-1.2,4.7,7.9,7.7,11.3,6.8c-2.9-2.4-7.2-1.6-10.1,0.5
	C412,214,411,222,412,229c2,12,5,24,9,36c5,12,17,18,29,18c14,0,28-2,42.2-6.5"/>
<path fill="none" stroke="#040000" stroke-miterlimit="10" d="M427.1,188.8c3.9,2.4,7.2,5.5,9.7,9.3"/>
<path fill="none" stroke="#040000" stroke-miterlimit="10" d="M451.2,185.9c0.9,2,1.2,4.3,0.8,6.4c0-3.8,0-7.6,0-11.4"/>
<path fill="none" stroke="#040000" stroke-miterlimit="10" d="M470,178c0,4.7,0,9.3,0,14"/>
<path fill="none" stroke="#040000" stroke-miterlimit="10" d="M495,178c0,4.7,0,9.3,0,14"/>
<path fill="none" stroke="#040000" stroke-miterlimit="10" d="M518.1,193.1c-2.8,2.6-4.7,6.1-5.3,9.8"/>
<path fill="none" stroke="#040000" stroke-miterlimit="10" d="M530.2,212.2c-3.5,3.1-7.1,6.2-10.6,9.3"/>
<path fill="none" stroke="#040000" stroke-miterlimit="10" d="M413,231.9c9-2.9,18.6-3.9,28-2.8"/>
<path fill="none" stroke="#040000" stroke-miterlimit="10" d="M419.7,261.5c7.8,4.7,17.2,6.6,26.3,5.4"/>
<path fill="none" stroke="#040000" stroke-miterlimit="10" d="M461.1,412.9c1.6-11.3-13-20.8-24.4-21.7c-2-3.9-2.6-8.4-3.1-12.8
	c-3.4-31.5-1.7-63.5,4.9-94.5"/>
<path fill="none" stroke="#040000" stroke-miterlimit="10" d="M392.7,409c2.4-5.8,8.4-9.5,14.6-10.8s12.5-0.5,18.8,0.2
	c4.4,0.5,12-2.5,16.1-4.1"/>
<path fill="none" stroke="#040000" stroke-miterlimit="10" d="M387,416c0,19.3,0,38.7,0,58"/>
<path fill="none" stroke="#040000" stroke-miterlimit="10" d="M429.8,323.2c-9.8-23.6-36.8-35.4-50.1-57.2"/>
<path fill="none" stroke="#040000" stroke-miterlimit="10" d="M288.2,237.4c0.8-2.1,2.8-3.6,5-4.2c2.2-0.6,4.5-0.6,6.8-0.5
	c2,0,4,0.1,5.9,0.1"/>
<path fill="none" stroke="#040000" stroke-miterlimit="10" d="M271.1,262.2c4.1,0,8.1,0,12.2,0c1.8,0,3.7,0,5.5-0.3s3.6-0.8,5.4-1.4
	c2.1-0.7,4.3-1.3,6.1-2.6"/>
<path fill="none" stroke="#040000" stroke-miterlimit="10" d="M277.3,212.2c1.9-3.2,5.1-5.4,8.1-7.4c1.8-1.2,3.6-2.4,5.6-3.1
	c1-0.3,2-0.6,2.9-1"/>
<path fill="none" stroke="#040000" stroke-miterlimit="10" d="M271.7,203.1c1.7-0.9,3.5-1.7,5.3-2.3c2.2-0.7,4.5-0.9,6.7-1.1
	c2.2-0.2,4.4-0.5,6.5-0.3"/>
<path fill="none" stroke="#040000" stroke-miterlimit="10" d="M257.9,196.1c8.2-0.5,16.5-0.5,24.7-0.3"/>
<path fill="none" stroke="#040000" stroke-miterlimit="10" d="M228.2,198.3c3.8-1.4,7.7-2.8,11.7-3.4c3-0.4,6-0.4,9-0.7
	c2.4-0.2,4.9-0.7,7.3-0.9c2.8-0.2,5.7,0.2,8.5-0.1"/>
<path fill="none" stroke="#040000" stroke-miterlimit="10" d="M221.3,196.6c5.5-2,11.1-4.1,17-4.9c3.3-0.5,6.6-0.6,9.8-0.7
	c4.1-0.1,8.2-0.3,12.3-0.4"/>
<path fill="none" stroke="#040000" stroke-miterlimit="10" d="M221.1,201.6c-1.2,0-2.2,0.6-3.2,1.2c-5.6,3.4-10.5,7.8-15.1,12.4
	c-2.6,2.6-5.2,5.4-7.3,8.4c-2.5,3.5-4.3,7.4-6.1,11.3c-0.7,1.5-1.4,3-1.7,4.6c-0.2,0.9-0.2,1.9-0.6,2.8"/>
<text transform="matrix(1 0 0 1 723.5998 131)" font-family="'YouYuan'" font-size="36px" glyph-orientation-vertical="0" writing-mode="tb">因为都在一个项目组</text>
<text transform="matrix(1 0 0 1 680.3998 131)" font-family="'YouYuan'" font-size="36px" glyph-orientation-vertical="0" writing-mode="tb">从那以后</text>
<text transform="matrix(1 0 0 1 637.1998 131)" font-family="'YouYuan'" font-size="36px" glyph-orientation-vertical="0" writing-mode="tb">我们不自觉越走越近</text>
</svg>
