<?xml version="1.0" encoding="utf-8"?>
<!-- Generator: Adobe Illustrator 21.0.0, SVG Export Plug-In . SVG Version: 6.00 Build 0)  -->
<svg version="1.1" id="page12" xmlns="http://www.w3.org/2000/svg" xmlns:xlink="http://www.w3.org/1999/xlink" x="0px" y="0px"
	 viewBox="0 0 800 600" enable-background="new 0 0 800 600" xml:space="preserve">
<path fill="none" stroke="#000000" stroke-miterlimit="10" d="M128.4,365c-4-15.9-5.2-32.4-3.5-48.7c0.5-5.2,1.5-10.6,5-14.5
	c4.6-5,12.1-5.7,18.9-6.1c2.9-0.2,6-0.2,8.3,1.5c1.8,1.3,2.7,3.5,3.5,5.6c8.4,22.2,11.2,46.5,8,70c-0.6,4.6-1.6,9.5-4.9,12.9
	c-2.1,2.2-4.9,3.5-7.8,4.6C131.7,399.6,133.4,384.8,128.4,365z"/>
<path fill="none" stroke="#000000" stroke-miterlimit="10" d="M146.5,393.6c-2.7,1.9-3,5.8-3,9.1c0,13,0,26,0.1,39"/>
<path fill="none" stroke="#000000" stroke-miterlimit="10" d="M142.6,422.6c11.8-2.7,22.9-8,32.4-15.4"/>
<path fill="none" stroke="#000000" stroke-miterlimit="10" d="M173.7,394.8c0,7.7-0.1,15.5-0.1,23.2c0,0.8,0,1.7,0.5,2.3
	c0.4,0.6,1.2,0.8,1.9,0.9c5.2,0.8,10-4,10.8-9.2c0.9-5.2-1.2-10.4-3.5-15.1c-1.9-3.7-5.9-7.9-9.5-5.8c-0.1,0.9-0.1,1.8-0.2,2.8"/>
<path fill="none" stroke="#000000" stroke-miterlimit="10" d="M141.5,464.5c-3,1-6.2,2-9.3,1.7c-3.2-0.3-6.4-2.3-7.1-5.4
	c-0.5-2,0.2-4.1,1.1-5.9c2.8-5.8,8.3-10.3,14.6-11.8c8.9-2.2,23.5-4.5,31,0.6c3.2,2.2,5.9,5.2,6.7,9c0.8,3.8-1.1,8.2-4.7,9.4"/>
<path fill="none" stroke="#000000" stroke-miterlimit="10" d="M183.2,370.7c-0.8,9-0.9,18-0.4,27"/>
<path fill="none" stroke="#000000" stroke-miterlimit="10" d="M410.6,431.8h-194c-6.6,0-12-5.4-12-12v-274c0-6.6,5.4-12,12-12h194
	c6.6,0,12,5.4,12,12v274C422.6,426.4,417.2,431.8,410.6,431.8z"/>
<path fill="none" stroke="#000000" stroke-miterlimit="10" d="M351.6,191.8h-109c-6.6,0-12-5.4-12-12v-9c0-6.6,5.4-12,12-12h109
	c6.6,0,12,5.4,12,12v9C363.6,186.4,358.2,191.8,351.6,191.8z"/>
<path fill="none" stroke="#000000" stroke-miterlimit="10" d="M380.6,266.8h-62c-6.6,0-12-5.4-12-12v-18c0-6.6,5.4-12,12-12h62
	c6.6,0,12,5.4,12,12v18C392.6,261.4,387.2,266.8,380.6,266.8z"/>
<path fill="none" stroke="#000000" stroke-miterlimit="10" d="M337.6,332.8h-94c-6.6,0-12-5.4-12-12v-13.1c0-6.6,5.4-12,12-12h94
	c6.6,0,12,5.4,12,12v13.1C349.6,327.4,344.2,332.8,337.6,332.8z"/>
<path fill="none" stroke="#000000" stroke-miterlimit="10" d="M385.6,405.8h-89c-6.6,0-12-5.4-12-12v-20.1c0-6.6,5.4-12,12-12h89
	c6.6,0,12,5.4,12,12v20.1C397.6,400.4,392.2,405.8,385.6,405.8z"/>
<path fill="none" stroke="#000000" stroke-miterlimit="10" d="M401.6,421.3h-173c-6.6,0-12-5.4-12-12V155.8c0-6.6,5.4-12,12-12h173
	c6.6,0,12,5.4,12,12v253.5C413.6,415.9,408.2,421.3,401.6,421.3z"/>
<path fill="none" stroke="#000000" stroke-miterlimit="10" d="M323.4,235.3c-2.7,1.3-4.4,4.1-5.2,6.9c-0.8,2.9-0.8,5.9-0.8,8.9
	c0,1,0,2,0.4,2.8c0.3,0.8,0.9,1.4,1.5,2c1.3,1.3,2.5,2.5,3.8,3.8"/>
<path fill="none" stroke="#000000" stroke-miterlimit="10" d="M328.1,241.8c-1.1,1.9-2.3,3.8-2.5,5.9s0.8,4.6,2.9,5.3"/>
<path fill="none" stroke="#000000" stroke-miterlimit="10" d="M333.8,245.7c-0.4-0.5-1.1,0.4-1.1,1c0,0.9-0.1,1.7-0.1,2.6
	c0,0.5,0,1,0.2,1.5s0.8,0.8,1.3,0.6"/>
<path fill="none" stroke="#000000" stroke-miterlimit="10" d="M347.3,163.1c3.3,1.3,5.4,4.1,6.4,6.9s1,5.9,1,8.9c0,1,0,2-0.5,2.8
	c-0.4,0.8-1.1,1.4-1.9,2c-1.5,1.3-3.1,2.5-4.6,3.8"/>
<path fill="none" stroke="#000000" stroke-miterlimit="10" d="M341.5,169.7c1.4,1.9,2.8,3.8,3.1,5.9s-1,4.6-3.5,5.3"/>
<path fill="none" stroke="#000000" stroke-miterlimit="10" d="M334.4,173.6c0.5-0.5,1.3,0.4,1.3,1c0,0.9,0.1,1.7,0.1,2.6
	c0,0.5,0,1-0.2,1.5c-0.3,0.5-1,0.8-1.5,0.6"/>
<path fill="none" stroke="#000000" stroke-miterlimit="10" d="M333.5,302c3.3,1.3,5.4,4.1,6.4,6.9s1,5.9,1,8.9c0,1,0,2-0.5,2.8
	c-0.4,0.8-1.1,1.4-1.9,2c-1.5,1.3-3.1,2.5-4.6,3.8"/>
<path fill="none" stroke="#000000" stroke-miterlimit="10" d="M327.8,308.6c1.4,1.9,2.8,3.8,3.1,5.9c0.3,2.2-1,4.6-3.5,5.3"/>
<path fill="none" stroke="#000000" stroke-miterlimit="10" d="M320.7,312.4c0.5-0.5,1.3,0.4,1.3,1c0,0.9,0.1,1.7,0.1,2.6
	c0,0.5,0,1-0.2,1.5c-0.3,0.5-1,0.8-1.5,0.6"/>
<path fill="none" stroke="#000000" stroke-miterlimit="10" d="M306,372c-2.7,1.3-4.4,4.1-5.2,6.9c-0.8,2.9-0.8,5.9-0.8,8.9
	c0,1,0,2,0.4,2.8c0.3,0.8,0.9,1.4,1.5,2c1.3,1.3,2.5,2.5,3.8,3.8"/>
<path fill="none" stroke="#000000" stroke-miterlimit="10" d="M310.7,378.6c-1.1,1.9-2.3,3.8-2.5,5.9s0.8,4.6,2.9,5.3"/>
<path fill="none" stroke="#000000" stroke-miterlimit="10" d="M316.5,382.5c-0.4-0.5-1.1,0.4-1.1,1c0,0.9-0.1,1.7-0.1,2.6
	c0,0.5,0,1,0.2,1.5c0.2,0.5,0.8,0.8,1.3,0.6"/>
<path fill="none" stroke="#000000" stroke-miterlimit="10" d="M481.3,445.5c0-11.7,0-23.3,0-35c0-6.7,9.4-3.5,14.2-5.3
	c2.5-0.9,4.7-2.4,6.9-3.8c5-3.3,10.3-7,12.8-12.5c1.6-3.5,1.9-7.5,2-11.4c0-1.1,0-2.3-0.4-3.2c-0.5-1-1.5-1.8-2.5-2.4
	c-4-2.4-8.6-3.9-13.2-5.1c-9.5-2.5-19.2-4-28.9-4.4c-3.2-0.1-6.6-0.1-9.6,1.2c-6.4,3-11.4,15.1-11.3,21.9c0.2,7.3,5.6,13.8,12.2,17
	c5.7,2.8,12,3.6,18.4,3.9"/>
<path fill="none" stroke="#000000" stroke-miterlimit="10" d="M480.8,432.6c-9.9-3.8-20.3-6.1-30.8-7"/>
<path fill="none" stroke="#000000" stroke-miterlimit="10" d="M437.6,417.1c0-4,0-8,0-12c-0.1,4.8,0.8,10.2-0.1,14.9
	c-0.7,3.6-1.6,6.2-1.4,10.1c0.1,1.1,0.2,2.2,0.7,3.2c1.4,2.4,4.6,2.8,7.4,2.8c0.9,0,1.9,0,2.7-0.5c0.7-0.4,1.2-1.2,1.6-2
	c1.3-2.6,2.1-5.5,2.3-8.4c0-0.5,0-1-0.2-1.4c-0.2-0.4-0.7-0.6-1.1-0.8c-2.4-1.1-8.6-4.7-11.4-3.3"/>
<path fill="none" stroke="#000000" stroke-miterlimit="10" d="M455.9,460.1c-0.3-2.3-0.4-4.7-0.2-7c0.2-2.3,0.7-4.9,2.6-6.2
	c1.5-1,3.4-0.9,5.1-0.9c5.8,0.2,11.7,0.5,17.5,0.7c1.6,0.1,3.9-1.8,5.5-2c1.4-0.1,2.8-0.2,4,0.5c1,0.6,1.5,1.6,2.1,2.6
	c0.8,1.5,1.6,2.9,2.4,4.4c0.4,0.6,0.7,1.3,0.6,2.1c-0.1,0.9-0.9,1.6-1.7,2.2c-3.4,2.7-6.9,5.3-10.3,8"/>
<path fill="none" stroke="#000000" stroke-miterlimit="10" d="M466.3,363c-0.3-0.9,0.7-1.8,1.6-2.2c3-1.6,6.3-2.6,9.7-3.4
	c5.4-1.2,11.1-1.8,16.5-0.8c5.5,0.9,10.8,3.5,14.4,7.6"/>
<path fill="none" stroke="#000000" stroke-miterlimit="10" d="M482.3,365.2c-0.4-0.2-0.3-0.8,0-1c0.3-0.3,0.7-0.3,1.1-0.4
	c5.8-0.6,11.8-1.1,17.5,0c5.7,1.2,11.4,4.3,14.1,9.5"/>
<path fill="none" stroke="#000000" stroke-miterlimit="10" d="M460.3,366.5c1.2-5.4,6.8-8.5,12-10.5c7.1-2.7,14.5-4.6,22.1-5.6
	c5-0.7,10.3-0.9,14.9,1.1c6.6,2.9,10.4,9.8,13.6,16.2"/>
<path fill="none" stroke="#000000" stroke-miterlimit="10" d="M493,369c8.9-0.3,17.9-0.4,26.8-0.3c2,0,4.1,0.1,6,0.8
	c3.3,1.3,5.6,4.5,7.5,7.4c1,1.5,2,3.2,1.6,4.9"/>
<text transform="matrix(1 0 0 1 630 121)" font-family="'YouYuan'" font-size="36px" glyph-orientation-vertical="0" writing-mode="tb">我们很快变得无话不谈</text>
</svg>
