<?xml version="1.0" encoding="utf-8"?>
<!-- Generator: Adobe Illustrator 19.1.0, SVG Export Plug-In . SVG Version: 6.00 Build 0)  -->
<svg version="1.1" id="page2" xmlns="http://www.w3.org/2000/svg" xmlns:xlink="http://www.w3.org/1999/xlink" x="0px" y="0px"
	 viewBox="0 0 800 600" enable-background="new 0 0 800 600" xml:space="preserve">
<polyline fill="#FFFFFF" stroke="#000000" stroke-miterlimit="10" points="398.1,272 655,272 551,313 106,313 210,272 210.7,272 
	235.4,272 "/>
<path fill="#FFFFFF" stroke="#000000" stroke-miterlimit="10" d="M398.1,272"/>
<path fill="#FFFFFF" stroke="#000000" stroke-miterlimit="10" d="M388.8,272"/>
<path fill="#FFFFFF" stroke="#000000" stroke-miterlimit="10" d="M300.5,272c20.5,0,39.5,0,59.5,0"/>
<path fill="#FFFFFF" stroke="#000000" stroke-miterlimit="10" d="M300.5,272"/>
<line fill="none" stroke="#000000" stroke-miterlimit="10" x1="235.4" y1="272" x2="236.2" y2="272"/>
<path fill="none" stroke="#000000" stroke-miterlimit="10" d="M237.9,135.8c-12,8.6-12.7,25.7-12.3,40.5c0.3,12.3,0.7,24.9,4.6,36.6
	c3.9,11.7,12,22.6,23.6,26.9c6.7,2.5,14,2.6,21.1,2.6c12.7,0.1,26.2,0.1,37.1-6.5c9.1-5.5,15.3-15,18.7-25c8.7-25.4,0-56-21.3-72.3
	c-21.2-16.2-53.2-16.5-74.7-0.6L237.9,135.8z"/>
<path fill="none" stroke="#000000" stroke-miterlimit="10" d="M258,244c-9.4,8.8-18.3,18.5-24.6,29.8"/>
<path fill="none" stroke="#000000" stroke-miterlimit="10" d="M263.4,357c15.6-1,30.6,2,46.6-1c-1-26,3-52-6-77c-5-11-6-24-3.3-36.1
	"/>
<path fill="none" stroke="#000000" stroke-miterlimit="10" d="M202.2,275.5C189,313,191,354,193,393.2"/>
<path fill="none" stroke="#000000" stroke-miterlimit="10" d="M209,275c22.5-1.2,45-1.4,67.5-0.8c-3.3,20-6.5,40-9.8,59.9
	c-3.2,19.8-6.5,39.8-6,59.9"/>
<path fill="none" stroke="#000000" stroke-miterlimit="10" d="M179,397.6c30.9-2.2,62-2.6,93-1.3c15.9-14,28.8-26,49.4-31.1
	c7.5-1.9,15.2-3,22.6-5.3"/>
<path fill="none" stroke="#000000" stroke-miterlimit="10" d="M263,409c0,23.4-0.1,46.8-0.1,70.2c0,5.4,0,10.9,1.7,15.9"/>
<path fill="none" stroke="#000000" stroke-miterlimit="10" d="M189.3,410c-1.5,29-2.3,58-2.4,87"/>
<path fill="none" stroke="#000000" stroke-miterlimit="10" d="M327,373c0,30.3,0,60.7,0,91"/>
<path fill="none" stroke="#000000" stroke-miterlimit="10" d="M312.1,355.4c11.3-7.8,24.9-12.3,38.6-12.6c1.7,0,3.4,0,5,0.5
	s3,1.6,4.3,2.7c9.4,8.6,10.6,22.7,11.2,35.5c0.7,15.2,1.4,30.4,2.1,45.5"/>
<path fill="none" stroke="#000000" stroke-miterlimit="10" d="M450.4,226.5c-18.1-15.8-28.6-40-27.8-64c0.2-5.5,1-11.2,4.3-15.6
	c3.4-4.7,9-7.2,14.5-9.3c10.2-3.9,20.8-6.9,31.5-9c9.2-1.8,18.7-2.9,27.9-0.9c12.9,2.7,23.7,11.1,34.1,19.2
	c4.1,3.3,8.4,6.6,11.1,11.1c3.5,5.8,4.3,12.8,4.6,19.6c0.4,8.4,0.2,17-2.4,25c-2.6,8-7.8,15.5-15.4,19.2c-5.9,2.9-12.6,3.3-19.1,3.6
	c-22.2,1-44.4,1.2-66.7,0.5"/>
<path fill="none" stroke="#000000" stroke-miterlimit="10" d="M471.1,208.6c11.9,3.6,25.1,2.6,36.2-2.9"/>
<path fill="none" stroke="#000000" stroke-miterlimit="10" d="M451.9,179c-0.2-5.7,2.5-11.4,7.1-14.8c3.1-2.3,7.3-3.6,10.9-2.1
	s5.7,6.3,3.5,9.5"/>
<path fill="none" stroke="#000000" stroke-miterlimit="10" d="M496.4,180c-1.9-9,5-18.9,14.1-20.1c1.7-0.2,3.5-0.2,5.1,0.5
	c5.3,2.3,5.1,9.8,4,15.5"/>
<path fill="none" stroke="#000000" stroke-miterlimit="10" d="M474,127c-12.9,0-25.9-0.1-38.8-0.1c-1.3,0-2.6,0-3.8,0.5
	c-1.2,0.5-2.1,1.5-2.9,2.5c-12.6,15.1-18.7,35.5-16.3,55"/>
<path fill="none" stroke="#000000" stroke-miterlimit="10" d="M479,135.2c-9.9-2.2-20-3.3-30.2-3.4c-2.4,0-4.9,0.1-7.1,1.1
	c-2.8,1.3-4.6,4-6.6,6.3c-2.9,3.3-6.6,6-8.9,9.7c-3.8,6.3-2.9,14.1-2.9,21.5c0.1,9.8-1.4,19.5-4.5,28.8"/>
<path fill="none" stroke="#000000" stroke-miterlimit="10" d="M484.9,130.2c-0.5-1.4,1.7-2.2,3.2-2.2c9.3,0,18.6-0.1,27.8-0.1
	c3.8,0,7.7,0,11.4,1.1c4.9,1.5,9,4.8,13,8c6.6,5.4,13.6,11.2,16.3,19.3c0.8,2.4,1.2,5,2.4,7.3c3,5.7,10.6,9.2,10.4,15.6"/>
<path fill="none" stroke="#000000" stroke-miterlimit="10" d="M490,136.4c10.9-0.2,21.5,3.7,30.8,9.3c9.3,5.7,17.4,13,25.4,20.3
	c5,4.5,10.4,10.1,9.9,16.8"/>
<path fill="none" stroke="#000000" stroke-miterlimit="10" d="M481.9,127.9c7.2-5,13.7-10.8,19.5-17.3c15.2-0.4,31.1-5.9,45.3-0.5
	c8.9,3.4,15.9,10.8,20.6,19c4.7,8.3,7.5,17.5,10.3,26.7c0.9,2.9,1.7,5.9,1.2,8.8c-0.5,3-2.8,5.9-5.8,5.9"/>
<path fill="none" stroke="#000000" stroke-miterlimit="10" d="M475.9,122.8c-0.6,2.3-3.9,1.9-6.1,1.1c-9.1-3.3-18.6-5.5-28.2-6.4
	c-7.7-0.8-16.7-0.2-21.3,6c-1.7,2.3-2.6,5.1-4.1,7.6c-1.2,1.9-2.9,3.6-4.1,5.5c-2.2,3.6-2.8,7.9-3.3,12.1c-1,8.1-2,16.2-3,24.3"/>
<path fill="none" stroke="#000000" stroke-miterlimit="10" d="M492.1,122.2c12.8-3.7,25.9-6.9,39.1-6.8c2.1,0,4.2,0.1,6.2,0.8
	c2.6,0.9,4.8,2.6,6.8,4.5c13.9,12.8,22.3,31.4,22.7,50.2"/>
<path fill="none" stroke="#000000" stroke-miterlimit="10" d="M290.3,380.3c-3.5,1.3-7.2,2.7-10.9,2.1s-7.3-3.8-6.8-7.5
	c-3.6,1.1-9.1,8.4-9.5,12.1"/>
<path fill="none" stroke="#000000" stroke-miterlimit="10" d="M214.3,150.7c3.9,4.1,7.8,8.2,11.7,12.3"/>
<path fill="none" stroke="#000000" stroke-miterlimit="10" d="M219,134c1.4,3.2,4.6,5.5,8.1,5.8"/>
<path fill="none" stroke="#000000" stroke-miterlimit="10" d="M229.2,122.8c3.2,3,5.5,7,6.7,11.2"/>
<path fill="none" stroke="#000000" stroke-miterlimit="10" d="M249,118c0,3.7,0,7.3,0,11"/>
<path fill="none" stroke="#000000" stroke-miterlimit="10" d="M269,118c0,2.7,0,5.3,0,8"/>
<path fill="none" stroke="#000000" stroke-miterlimit="10" d="M286.3,117.8c2.1,3.2,2.7,7.4,1.5,11.1"/>
<path fill="none" stroke="#000000" stroke-miterlimit="10" d="M307,123c-0.7,4-1.4,8-2.1,12"/>
<path fill="none" stroke="#000000" stroke-miterlimit="10" d="M323.3,135.1c-1.7,4-3.5,7.9-5.2,11.9"/>
<path fill="none" stroke="#000000" stroke-miterlimit="10" d="M330.3,148.1c-1.1,4.1-4.4,7.4-8.4,8.7"/>
<path fill="none" stroke="#000000" stroke-miterlimit="10" d="M309,182c4.2-4,10.3-5.9,16-4.9"/>
<path fill="none" stroke="#000000" stroke-miterlimit="10" d="M296.9,221.8c-0.7,4.1-0.8,9.5,3,11.3c1.1,0.5,2.4,0.6,3.6,0.7
	c4,0.2,8.1,0.2,12.1,0.1"/>
<path fill="none" stroke="#000000" stroke-miterlimit="10" d="M308.7,293.9c18.2-3,36.4-5.9,54.7-8.9c5.3-0.9,10.9-1.8,15.2-5"/>
<path fill="none" stroke="#000000" stroke-miterlimit="10" d="M399.8,270.6c-0.8,2.8-1.6,5.6-2.4,8.4c-9.6,1.3-19.5,1-29-0.9
	c-2.2-0.5-4.4-1-6.2-2.4c-1.8-1.3-3-3.7-2.5-5.8c13.8,0,26.9-2,40.6-2"/>
<path fill="none" stroke="#000000" stroke-miterlimit="10" d="M366.2,267.8c0.4-4.9,2-10.7,6.6-12.4c1.6-0.6,3.3-0.6,5-0.5
	c2.9,0,5.9,0.1,8.8,0.1c0.8,0,1.7,0,2.5,0.2c3.8,1,4.8,5.9,5.1,9.8"/>
<path fill="none" stroke="#000000" stroke-miterlimit="10" d="M399,267.8c0,2,0,4.1,0,6.1"/>
<path fill="none" stroke="#000000" stroke-miterlimit="10" d="M450.1,227.2c-4.1,15-6.4,30.5-6.6,46.1"/>
<path fill="none" stroke="#000000" stroke-miterlimit="10" d="M525,226.5c1.1,8.5-0.9,22.3,2.3,30c2.9,7.1,14.1,5.6,21.4,5.1
	c0.8-5.3,1.1-11.5-2.5-15.4c-0.7-0.7-1.5-1.4-2.3-2c-4-3-8.3-5.4-12.9-7.3c-5.7-2.3-11.6-3.8-17.6-5.2c-3.7-0.9-7.5-1.8-11.2-2.7
	c-5.9,2.7-13.8,4.4-19.6,1.4c-5.5-2.9-7.5-10-6.9-16.1c0.1-0.7,0.2-1.5,0.7-2.1s1.4-0.8,2.2-1c5.8-1.3,11.8-2,17.7-2.1
	c3.6-0.1,7.5,0.2,10.5,2.2s4.8,5.8,4.4,9.4s-2.9,6.9-6.3,8.3"/>
<path fill="none" stroke="#000000" stroke-miterlimit="10" d="M527.9,258.3c0,4.1,0,8.1,0,12.2"/>
<path fill="none" stroke="#000000" stroke-miterlimit="10" d="M444.4,247.4c-4.9-1.7-10.4-0.4-15.1,1.7c-4.7,2.1-9.1,5.1-14,7"/>
<path fill="none" stroke="#000000" stroke-miterlimit="10" d="M408.6,247.3c5,3.7,8.8,8.8,11,14.5"/>
<path fill="none" stroke="#000000" stroke-miterlimit="10" d="M419.2,244.7c-1.4,6.6-3.5,13-6.4,19.1"/>
<path fill="none" stroke="#000000" stroke-miterlimit="10" d="M304.1,280.2c8.8,1.7,18,0.9,26.4-2.3c2.5-0.9,5-2.1,7.5-3
	c5.4-2,11.2-2.8,16.9-2.4"/>
<path fill="none" stroke="#000000" stroke-miterlimit="10" d="M202.8,275.4c2.1,0.1,4.3,0,6.3-0.4"/>
<text transform="matrix(1 0 0 1 444.3947 422.987)" font-family="'YouYuan'" font-size="36px">我们一起吃饭</text>
</svg>
