<?xml version="1.0" encoding="utf-8"?>
<!-- Generator: Adobe Illustrator 19.1.0, SVG Export Plug-In . SVG Version: 6.00 Build 0)  -->
<svg version="1.1" id="page6" xmlns="http://www.w3.org/2000/svg" xmlns:xlink="http://www.w3.org/1999/xlink" x="0px" y="0px"
	 viewBox="0 0 800 600" enable-background="new 0 0 800 600" xml:space="preserve">
<path fill="none" stroke="#000000" stroke-miterlimit="10" d="M115.8,484.9c-0.5-61-1.1-122.1-1.6-183.1
	c-0.3-39.2-0.6-78.9,9.1-116.9c2-7.7,4.5-15.5,9.3-21.8c5.3-6.9,13.2-11.6,21.4-14.6c23.4-8.4,51.3-3,69.8,13.6
	c14.8,13.2,23.3,32.3,27.2,51.7c3.9,19.4,3.7,39.4,3.4,59.2c-0.4,31-0.9,62-1.3,93"/>
<path fill="none" stroke="#000000" stroke-miterlimit="10" d="M251.9,364c4.5-51.9,23.3-102.5,54-144.7c2.7-3.8,5.7-7.6,9.8-9.9
	c4.4-2.5,9.7-2.8,14.8-3.2c9.9-0.6,19.7-1.2,29.6-1.9c8.9-0.6,18.9-0.8,25.6,5.1c4.9,4.3,6.9,10.9,8.5,17.1
	c8.2,30.6,13.8,61.9,16.8,93.5"/>
<path fill="none" stroke="#000000" stroke-miterlimit="10" d="M630.1,312.6c-6.7,24.6-25.7,44.5-47.6,57.6s-46.7,20.3-71.3,27.1
	c-7.5,2.1-15.2,4.2-21.6,8.6c-14.4,9.9-19.2,29-19.2,46.5c0,5.5,0.4,11.2,2.7,16.3c3.8,8.4,12,13.8,20,18.3
	c40.5,22.9,86.3,36.3,132.8,38.6c41.7,2.1,82.3,7.1,124,8.8"/>
<path fill="none" stroke="#000000" stroke-miterlimit="10" d="M130,546.3c26-7.6,53.3-11.1,80.4-10.4c10.3,0.3,21.9,0.7,29.1-6.7
	c5.6-5.7,6.6-14.7,5.3-22.6c-1.3-7.9-4.6-15.4-6.3-23.3c-5.7-25.4,4.8-51.6,17.5-74.4c10.5-18.8,22.9-36.9,40.2-49.7
	c13.7-10.2,29.9-16.5,46.2-21.4c52.1-15.5,107.2-17.1,161.6-18.6c7.1-0.2,13.9-3.1,19.7-7.1c6.7-4.5,13.4-9,20.1-13.4"/>
<path fill="none" stroke="#000000" stroke-miterlimit="10" d="M410,318c6.3-17.3,13.5-34.2,21.6-50.7c4-8.2,8.3-16.4,14.8-22.7
	c13.4-13.2,33.8-16.3,52.6-16.3c15.5,0,31.6,1.7,44.8,9.8c13.2,8,22.9,23.7,19.8,38.9"/>
<path fill="none" stroke="#000000" stroke-miterlimit="10" d="M370.1,382.1c-9,4.8-17.3,11.1-24.4,18.6"/>
<path fill="none" stroke="#000000" stroke-miterlimit="10" d="M328,434c-5.2,8.7-9.3,18.2-12.1,28"/>
<path fill="none" stroke="#000000" stroke-miterlimit="10" d="M316,500c2,11.9,6.6,23.4,13.5,33.4"/>
<path fill="none" stroke="#000000" stroke-miterlimit="10" d="M583.5,316.7c-10.7,7-19.7,16.4-29.8,24.2
	c-27.1,21-61.3,29.9-93.3,42.1s-64.7,30.2-79.6,61c-9.5,19.6-10.6,42-11.6,63.7c-0.4,9.3-0.7,19,3.5,27.3
	c5.2,10.1,17.2,19,13.6,29.8"/>
<ellipse fill="none" stroke="#000000" stroke-miterlimit="10" cx="416" cy="497.8" rx="16" ry="18.8"/>
<ellipse fill="none" stroke="#000000" stroke-miterlimit="10" cx="469.5" cy="504.8" rx="17.5" ry="11.8"/>
<path fill="none" stroke="#000000" stroke-miterlimit="10" d="M417,517c0,7,0,14,0,21"/>
<path fill="none" stroke="#000000" stroke-miterlimit="10" d="M414,527.5c-4.7-1.2-9.8-2.4-14.5-0.8c-4.6,1.6-8.2,7.3-5.7,11.5"/>
<path fill="none" stroke="#000000" stroke-miterlimit="10" d="M416.1,529.7c3.7,0.4,7.5,0.8,11-0.6c3.4-1.4,6-4.6,6.8-8.2"/>
<path fill="none" stroke="#000000" stroke-miterlimit="10" d="M405.7,567.1c1.1-5.3-0.4-10.8,0.1-16.2s4.3-11.4,9.7-11
	c6.5,5,12.3,11,13.2,19.2"/>
<path fill="none" stroke="#000000" stroke-miterlimit="10" d="M470,519c0.4,6.2,1.8,12.2,4.1,18"/>
<path fill="none" stroke="#000000" stroke-miterlimit="10" d="M448,525c7.3,1,14.7,2,22,3c8.2,1.1,18.2-2.7,21.6-10.3"/>
<path fill="none" stroke="#000000" stroke-miterlimit="10" d="M472.9,540.9c-3.9,5.1-6.8,11-8.7,17.1"/>
<path fill="none" stroke="#000000" stroke-miterlimit="10" d="M473.1,538c3.8,11.9,7.7,23.9,11.5,35.8"/>
<path fill="none" stroke="#000000" stroke-miterlimit="10" d="M397,484c1.7,1.3,3.3,2.7,5,4"/>
<path fill="none" stroke="#000000" stroke-miterlimit="10" d="M400.1,479.4c0.7,2,2,3.9,3.8,5"/>
<path fill="none" stroke="#000000" stroke-miterlimit="10" d="M405.4,478.9c0.9,0.6,1.5,1.5,1.9,2.5"/>
<path fill="none" stroke="#000000" stroke-miterlimit="10" d="M410.5,477.8c0.2,0.6,0.4,1.2,0.6,1.8"/>
<path fill="none" stroke="#000000" stroke-miterlimit="10" d="M415.5,475.8c0,1.1,0,2.3,0,3.4"/>
<path fill="none" stroke="#000000" stroke-miterlimit="10" d="M421.1,477.6c-0.1,0.9-0.2,1.7-0.2,2.6"/>
<path fill="none" stroke="#000000" stroke-miterlimit="10" d="M426.6,480.4c0.2,0.8,0,1.7-0.6,2.4"/>
<path fill="none" stroke="#000000" stroke-miterlimit="10" d="M430.8,482.7c-0.7,1.1-1.3,2.1-2,3.2"/>
<path fill="none" stroke="#000000" stroke-miterlimit="10" d="M433.1,487.4c-1.2,0.7-2.5,1.3-3.7,2"/>
<path fill="none" stroke="#000000" stroke-miterlimit="10" d="M396.8,489.1c1.1,1.3,2.3,2.5,3.6,3.6"/>
<path fill="none" stroke="#000000" stroke-miterlimit="10" d="M459.4,495.1c-1.3-0.3-2.6-0.6-4-0.7c-0.3,0-0.7-0.1-1,0.1
	c-0.2,0.1-0.5,0.3-0.7,0.4c-1.7,1.4-3.4,2.7-5.2,4.1c-1.1,0.8-2.2,1.7-2.7,3c-0.6,1.3-0.5,2.8-0.3,4.3"/>
<path fill="none" stroke="#000000" stroke-miterlimit="10" d="M460.6,493.3c-3.8-2.1-7.9-3.5-12.1-4.2c-1-0.2-2.1-0.3-3,0.1
	c-1.1,0.5-1.7,1.5-2.2,2.6c-0.8,1.6-1.4,3.4-1.1,5.2"/>
<path fill="none" stroke="#000000" stroke-miterlimit="10" d="M463.1,494.6c0.2-2,0.4-4.2-0.7-5.9c-0.4-0.6-1-1.2-1.6-1.6
	c-3.2-2.4-7.1-3.8-11.1-3.9"/>
<path fill="none" stroke="#000000" stroke-miterlimit="10" d="M466.5,492.2c5.7-3.3,12.4-4.8,18.9-4.1"/>
<path fill="none" stroke="#000000" stroke-miterlimit="10" d="M476.5,493.1c3.3,0,6.7,0,10,0c0.8,0,1.7,0,2.5,0.2
	c0.9,0.3,1.7,0.8,2.4,1.4c2.3,1.7,4.4,3.7,6.4,5.8"/>
<path fill="none" stroke="#000000" stroke-miterlimit="10" d="M490.8,518.3c0-0.5-0.1-1.1-0.1-1.6c0-0.1,0-0.3,0.1-0.4
	c0.1-0.1,0.2-0.1,0.2-0.1c1-0.3,1.9,0.3,2.7,0.8c0.2,0.1,0.4,0.3,0.6,0.5c0.1,0.2,0.1,0.4,0.1,0.6c0,0.4,0,0.8,0,1.2
	c0,0.1,0,0.3-0.1,0.4c-0.1,0.1-0.3,0.2-0.4,0.2c-0.4,0.1-0.9,0.2-1.3,0.1c-0.1,0-0.2,0-0.3-0.1c-0.1-0.1-0.1-0.2-0.1-0.3
	c0-0.5,0-1.1-0.1-1.6"/>
<path fill="none" stroke="#000000" stroke-miterlimit="10" d="M492.3,521c-0.4,0-0.8,0.2-1,0.5c-0.2,0.3-0.3,0.7-0.4,1.1
	c-0.1,0.5-0.2,0.9-0.3,1.4"/>
<path fill="none" stroke="#000000" stroke-miterlimit="10" d="M494,520c0.2-0.1,0.4,0.1,0.5,0.3c0.4,0.7,0.8,1.5,1.1,2.4
	c-0.1,0-0.2,0.1-0.4,0.1"/>
<path fill="none" stroke="#000000" stroke-miterlimit="10" d="M490.7,523.5c1.4,0,2.8,0,4.2-0.1c0.5,2.1,0.8,4.4,0.4,6.5
	c0,0.1-0.1,0.3-0.2,0.4c-0.1,0.1-0.3,0.2-0.4,0.3c-0.8,0.3-1.7,0.4-2.6,0.3c-0.2,0-0.4-0.1-0.5-0.1c-0.1-0.1-0.2-0.2-0.3-0.3
	c-1.5-1.7-1.9-4.4-0.9-6.5"/>
<text transform="matrix(1 0 0 1 670.2621 108.2722)" font-family="'YouYuan'" font-size="36px" glyph-orientation-vertical="0" writing-mode="tb">漫步金鸡山</text>
</svg>
