<?xml version="1.0" encoding="utf-8"?>
<!-- Generator: Adobe Illustrator 19.1.0, SVG Export Plug-In . SVG Version: 6.00 Build 0)  -->
<svg version="1.1" id="page3" xmlns="http://www.w3.org/2000/svg" xmlns:xlink="http://www.w3.org/1999/xlink" x="0px" y="0px"
	 viewBox="0 0 800 600" enable-background="new 0 0 800 600" xml:space="preserve">
<rect x="81.7" y="59.3" fill="none" stroke="#000000" stroke-miterlimit="10" width="649.3" height="373"/>
<path fill="none" stroke="#000000" stroke-miterlimit="10" d="M143.9,548.8h-38.6c-6.6,0-12-5.4-12-12v-56.3c0-6.6,5.4-12,12-12
	h38.6c6.6,0,12,5.4,12,12v56.3C155.9,543.4,150.5,548.8,143.9,548.8z"/>
<path fill="none" stroke="#000000" stroke-miterlimit="10" d="M206.5,548.8h-38.6c-6.6,0-12-5.4-12-12v-56.3c0-6.6,5.4-12,12-12
	h38.6c6.6,0,12,5.4,12,12v56.3C218.5,543.4,213.1,548.8,206.5,548.8z"/>
<path fill="none" stroke="#000000" stroke-miterlimit="10" d="M269.1,548.8h-38.6c-6.6,0-12-5.4-12-12v-56.3c0-6.6,5.4-12,12-12
	h38.6c6.6,0,12,5.4,12,12v56.3C281.1,543.4,275.7,548.8,269.1,548.8z"/>
<path fill="none" stroke="#000000" stroke-miterlimit="10" d="M331.7,548.8h-38.6c-6.6,0-12-5.4-12-12v-56.3c0-6.6,5.4-12,12-12
	h38.6c6.6,0,12,5.4,12,12v56.3C343.7,543.4,338.3,548.8,331.7,548.8z"/>
<path fill="none" stroke="#000000" stroke-miterlimit="10" d="M394.3,548.8h-38.6c-6.6,0-12-5.4-12-12v-56.3c0-6.6,5.4-12,12-12
	h38.6c6.6,0,12,5.4,12,12v56.3C406.3,543.4,400.9,548.8,394.3,548.8z"/>
<path fill="none" stroke="#000000" stroke-miterlimit="10" d="M457,548.8h-38.6c-6.6,0-12-5.4-12-12v-56.3c0-6.6,5.4-12,12-12H457
	c6.6,0,12,5.4,12,12v56.3C469,543.4,463.6,548.8,457,548.8z"/>
<path fill="none" stroke="#000000" stroke-miterlimit="10" d="M519.6,548.8H481c-6.6,0-12-5.4-12-12v-56.3c0-6.6,5.4-12,12-12h38.6
	c6.6,0,12,5.4,12,12v56.3C531.6,543.4,526.2,548.8,519.6,548.8z"/>
<path fill="none" stroke="#000000" stroke-miterlimit="10" d="M582.2,548.8h-38.6c-6.6,0-12-5.4-12-12v-56.3c0-6.6,5.4-12,12-12
	h38.6c6.6,0,12,5.4,12,12v56.3C594.2,543.4,588.8,548.8,582.2,548.8z"/>
<path fill="none" stroke="#000000" stroke-miterlimit="10" d="M644.8,548.8h-38.6c-6.6,0-12-5.4-12-12v-56.3c0-6.6,5.4-12,12-12
	h38.6c6.6,0,12,5.4,12,12v56.3C656.8,543.4,651.4,548.8,644.8,548.8z"/>
<path fill="none" stroke="#000000" stroke-miterlimit="10" d="M357.7,468.5c-1.7-2.9-1.5-6.8,0.4-9.5c1.9-2.8,5.2-4.3,8.5-4.8
	c3.3-0.5,6.7-0.2,10-0.1c1.5,0.1,3,0.1,4.4,0.6c2.5,0.9,4.2,3.2,5,5.7c0.8,2.5,0.9,5.1,0.9,7.8c0.3-0.1,0.5-0.3,0.8-0.4"/>
<path fill="none" stroke="#000000" stroke-miterlimit="10" d="M422.7,468.6c0.9-2.5,3.9-3.5,6.6-3.9c3.6-0.6,7.4-0.6,11-0.1
	c3.1,0.4,6.4,1.4,8.2,4"/>
<path fill="none" stroke="#000000" stroke-miterlimit="10" d="M428,463.6c-1.5,0-3,0.2-4.3,1c-1.3,0.8-2.2,2.1-2.3,3.6"/>
<path fill="none" stroke="#000000" stroke-miterlimit="10" d="M430.4,463.9c0-0.4-0.3-0.7-0.7-0.9c-1.7-1-3.9-1-5.6-0.1"/>
<path fill="none" stroke="#000000" stroke-miterlimit="10" d="M432.3,463.5c-0.2-1.1-0.4-2.3-1.4-2.9c-0.7-0.4-1.5-0.3-2.3-0.2"/>
<path fill="none" stroke="#000000" stroke-miterlimit="10" d="M434.1,463.7c0.1-0.7,0.1-1.5,0-2.2c-0.2-0.7-0.6-1.4-1.3-1.6"/>
<path fill="none" stroke="#000000" stroke-miterlimit="10" d="M436.2,464.5c0.2-1.7,1.4-3.2,3-3.7"/>
<path fill="none" stroke="#000000" stroke-miterlimit="10" d="M439.3,463.8c0.9-0.7,2.1-0.8,3.2-0.8c1.1,0,2.1,0,3.2,0
	c0.6,0,1.2,0,1.7,0.2c1.2,0.4,2.1,1.4,3,2.4"/>
<path fill="none" stroke="#000000" stroke-miterlimit="10" d="M441.4,465.2c3.6-0.8,7.5,0,10.3,2.2"/>
<path fill="none" stroke="#000000" stroke-miterlimit="10" d="M354.6,459.6c0.7,0.2,1.4,0.4,2.1,0.4"/>
<path fill="none" stroke="#000000" stroke-miterlimit="10" d="M356.3,456.3c0.8,0.4,1.4,1.1,1.8,2"/>
<path fill="none" stroke="#000000" stroke-miterlimit="10" d="M359.2,454.9c0.3,0.7,0.6,1.4,0.9,2.1"/>
<path fill="none" stroke="#000000" stroke-miterlimit="10" d="M361.1,454.1c0.4,0.6,0.8,1.3,1,2.1"/>
<path fill="none" stroke="#000000" stroke-miterlimit="10" d="M364.9,452.8c0,0.5,0,1.1,0.1,1.6"/>
<path fill="none" stroke="#000000" stroke-miterlimit="10" d="M367.5,452.9c0,0.4,0,0.8,0,1.2"/>
<path fill="none" stroke="#000000" stroke-miterlimit="10" d="M370.2,452.6c0,0.5,0,1,0,1.4"/>
<path fill="none" stroke="#000000" stroke-miterlimit="10" d="M372.7,452.3c0,0.4,0,0.8,0,1.2"/>
<path fill="none" stroke="#000000" stroke-miterlimit="10" d="M375.4,453c0,0.3,0,0.6,0.1,0.9"/>
<path fill="none" stroke="#000000" stroke-miterlimit="10" d="M378.9,452.5c0,0.7,0,1.4,0,2.1"/>
<path fill="none" stroke="#000000" stroke-miterlimit="10" d="M382.7,454.2c-0.1,0.6-0.3,1.1-0.4,1.7"/>
<path fill="none" stroke="#000000" stroke-miterlimit="10" d="M385.2,456.3c-0.4,0.4-0.8,0.8-1,1.3"/>
<path fill="none" stroke="#000000" stroke-miterlimit="10" d="M387.2,458.8c-0.3,0.3-0.7,0.5-1,0.8"/>
<path fill="none" stroke="#000000" stroke-miterlimit="10" d="M387.3,461.8c-0.1,0.4-0.6,0.6-0.9,0.5"/>
<path fill="none" stroke="#000000" stroke-miterlimit="10" d="M707.4,548.8h-38.6c-6.6,0-12-5.4-12-12v-56.3c0-6.6,5.4-12,12-12
	h38.6c6.6,0,12,5.4,12,12v56.3C719.4,543.4,714,548.8,707.4,548.8z"/>
<text transform="matrix(1 0 0 1 270.8228 236.8628)" font-family="'YouYuan'" font-size="36px">看电影......</text>
</svg>
