<?xml version="1.0" encoding="utf-8"?>
<!-- Generator: Adobe Illustrator 19.1.0, SVG Export Plug-In . SVG Version: 6.00 Build 0)  -->
<svg version="1.1" id="page8" xmlns="http://www.w3.org/2000/svg" xmlns:xlink="http://www.w3.org/1999/xlink" x="0px" y="0px"
	 viewBox="0 0 800 600" enable-background="new 0 0 800 600" xml:space="preserve">
<path fill="none" stroke="#000000" stroke-miterlimit="10" d="M514.8,205.3c-9.3,20.3-13,43.1-10.6,65.3c0.5,4.8,1.4,9.9,4.5,13.6
	c3.5,4.1,9,5.8,14.3,7c21.4,4.9,45.4,5.4,63.4-7.1c20-14,27.1-40.2,29.6-64.5c0.9-8.9,1.3-18.4-3.5-26c-3.1-5-8.2-8.5-13.4-11.3
	c-17.6-9.5-38.7-12.4-58.2-8c-5.1,1.2-10.3,2.9-14.2,6.5c-2.5,2.3-4.2,5.2-6,8.1c-4.2,6.9-8.3,13.8-12.5,20.6"/>
<path fill="none" stroke="#000000" stroke-miterlimit="10" d="M499.9,202.8c2.3,2.7,4.7,5.2,7.3,7.6"/>
<path fill="none" stroke="#000000" stroke-miterlimit="10" d="M502.3,195.5c4.5-2,10.3-0.5,13.4,3.4"/>
<path fill="none" stroke="#000000" stroke-miterlimit="10" d="M513.9,178.6c2.8,0.6,4.9,3.4,4.8,6.3"/>
<path fill="none" stroke="#000000" stroke-miterlimit="10" d="M523.3,168.3c3.6,3.7,5.7,9,5.5,14.1"/>
<path fill="none" stroke="#000000" stroke-miterlimit="10" d="M535.3,167.3c1.7,1.3,2.6,3.6,2.1,5.7"/>
<path fill="none" stroke="#000000" stroke-miterlimit="10" d="M554.8,164.4c0.5,2.6,1,5.2,1.6,7.9"/>
<path fill="none" stroke="#000000" stroke-miterlimit="10" d="M547.8,159.6c0,3.1,0,6.3,0,9.4"/>
<path fill="none" stroke="#000000" stroke-miterlimit="10" d="M572.2,163.6c0,3.7,0,7.3,0,11"/>
<path fill="none" stroke="#000000" stroke-miterlimit="10" d="M587.9,167.5c0,3.4,0,6.8,0,10.2"/>
<path fill="none" stroke="#000000" stroke-miterlimit="10" d="M599.8,174.6c-0.3,2.8-0.2,5.6,0.2,8.4c0.7,0.1,1.4,0.1,2.1,0.2"/>
<path fill="none" stroke="#000000" stroke-miterlimit="10" d="M616.3,183.3c-1.8,2.4-3.7,4.7-5.5,7.1"/>
<path fill="none" stroke="#000000" stroke-miterlimit="10" d="M546.6,295.5c-5.3,5.4-7.8,12.9-9.1,20.3s-1.7,15-3.4,22.3
	c-1.7,7.3-4.6,14.1-6.8,21.3c-2,6.8-3.3,13.8-3.7,20.9"/>
<path fill="none" stroke="#000000" stroke-miterlimit="10" d="M532.9,346.4c10-4.2,21.1-4.9,31.9-6.4c10.8-1.5,21.9-4.1,30.3-11
	c7.2-6,11.8-15.1,12.3-24.5"/>
<path fill="none" stroke="#000000" stroke-miterlimit="10" d="M534.4,325.1c-11.9,0-24.1,0-35.2,4.2c-4.7,1.8-9.1,4.2-13.9,5.9
	c-4.9,1.7-10.1,2.5-15.1,4.1c-4.9,1.6-9.8,4.3-12.5,8.8"/>
<path fill="none" stroke="#000000" stroke-miterlimit="10" d="M305.9,265.1c-1.9,11.1-2.7,22.4-2.4,33.6c0.1,2,0.2,4.1,1,5.9
	c1,2.1,2.9,3.7,4.8,5.1c17.1,12.8,38.4,20.1,59.8,20.5c12.8,0.2,26.5-2.4,35.4-11.7c7.1-7.4,10.1-18,10.7-28.3
	c0.5-8-0.3-16.3-4.5-23.1c-5-7.9-13.9-12.3-22.8-15.3c-18.4-6.2-38.4-7.8-57.6-4.4c-12.3,2.2-25.6,7.6-30.3,19.1"/>
<path fill="none" stroke="#000000" stroke-miterlimit="10" d="M325.7,245.8c-9.5-1.6-19.6-3.1-28.7,0c-7,2.4-12.8,7.4-17.6,12.9
	c-5.7,6.5-10.3,14-13.5,22.1"/>
<path fill="none" stroke="#000000" stroke-miterlimit="10" d="M326.4,251.5c-14.9,7-28.5,16.4-41.9,25.8c-4.7,3.2-9.8,7.4-9.9,13"/>
<path fill="none" stroke="#000000" stroke-miterlimit="10" d="M340.1,246.1c-8.1-10.7-22.5-16.3-35.7-13.9
	c-4.8,0.9-9.7,2.9-12.7,6.8c-3,3.8-3.8,8.7-4.6,13.5"/>
<path fill="none" stroke="#000000" stroke-miterlimit="10" d="M357.4,246.3c0.2-3-1.9-5.7-4-7.9c-9.2-9.3-21.8-15.4-34.8-16.8
	c-14.7-1.6-31.5,4-37.9,17.3c-4.1,8.4-3.4,18.3-2.6,27.7"/>
<path fill="none" stroke="#000000" stroke-miterlimit="10" d="M388.4,252.5c0-9.7-2.3-19.3-6.8-27.9c-13.4,1.4-27.3-1.6-40.4,1.7
	c-7.4,1.8-14.1,5.6-20.7,9.3c-12.3,6.9-28.3,11.9-32.1,27.1"/>
<path fill="none" stroke="#000000" stroke-miterlimit="10" d="M400.6,256.4c-1-4.3-0.3-8.7-0.3-13.1s-0.8-9.1-4-12.2
	c-1.4-1.3-3.1-2.2-4.8-3c-10.3-4.9-21.7-7.6-33.1-7.9c-10.7-0.3-20.5-2.9-31.1-3c-6.6-0.1-13.5,0.8-19,4.5c-5.4,3.7-8.9,11-6.4,17.2
	"/>
<path fill="none" stroke="#000000" stroke-miterlimit="10" d="M407,262c0.7-12.4-6.1-23.9-13.8-33.7c-3.2-4-6.8-8-11.6-9.8
	c-4.7-1.7-9.9-1-14.9-0.3"/>
<path fill="none" stroke="#000000" stroke-miterlimit="10" d="M387.7,284.3c8-4.1,17.7-4.7,26.1-1.6"/>
<path fill="none" stroke="#000000" stroke-miterlimit="10" d="M364.1,302.5c14.2,8,31.2,11.1,47.4,8.6"/>
<path fill="none" stroke="#000000" stroke-miterlimit="10" d="M591.8,228c6.5-0.8,13.1-1,19.7-0.6"/>
<path fill="none" stroke="#000000" stroke-miterlimit="10" d="M562.7,259.6c0.2,6.5,5.6,11.8,11.7,14.1c6.1,2.2,12.7,2,19.2,1.6"/>
<path fill="none" stroke="#000000" stroke-miterlimit="10" d="M356.8,331.3c-3.3,19.9-7.6,39.6-12.8,59"/>
<path fill="none" stroke="#000000" stroke-miterlimit="10" d="M352.5,366.6c12.4-0.9,24.7-1.8,37.1-2.7c3.3-0.2,6.7-0.5,9.8-1.6
	c2.4-0.8,4.5-2.1,6.7-3.2c9.9-5.1,21-8.1,32.2-8.6c2-2.1,6.9-5.1,9.4-6.5c2.6-1.4,5.8-1.9,8.4-0.7c5.2,2.4,5.5,9.6,5,15.2
	c-0.1,1.4-0.4,2.9-1.5,3.6c-0.5,0.3-1,0.3-1.6,0.4c-4.4,0.4-10-0.4-11.5-4.5c-1.1-3,0.5-6.2,2.4-8.8c1.5-2.1,3.9-4.3,6.3-3.3
	c2.5,1.1,2.4,4.7,1.3,7.2c-1.3,3-5.1,5.8-7.7,3.8c-0.8-0.7-1.3-1.7-1.7-2.7c-1.3-3.2-2.3-7.8,0.8-9.5c3.2-1.8,6.8,1.9,7.7,5.4
	c0.9,3.4,0.4,7.5-2.3,9.8c-2.7,2.3-7.8,1.5-8.7-1.9c-0.7-2.4,1.1-5.1,3.4-6s5.1-0.5,7.3,0.6c1.6,1.8,0.6,4.9-1.5,6.2s-4.6,1.2-7,1.1
	c-1.8-0.1-3.6-0.1-5.3-0.2c-0.7,0-1.4-0.1-2.1-0.4c-0.9-0.4-1.5-1.3-1.9-2.2c-1-2.5-0.5-5.6,1.4-7.6c1.9-2,4.9-2.7,7.5-1.9
	c3.9,1.3,5.8,5.5,7.3,9.3c0.6,1.4,1.2,2.9,1.7,4.3c0.3,0.8,0.6,1.8,0.1,2.5c-0.7,0.9-2.1,0.5-3,0c-5.3-3.2-6-11.8-1.4-15.9
	c-3.5,4.6-8.7,7.8-14.4,8.9c1.4-1.7,1.5-4.2,2.2-6.4c0.7-2.2,2.8-4.3,4.9-3.5c1.5,0.6,2.1,2.6,1.6,4.2c-0.4,1.6-1.6,2.8-2.7,4
	c0.9-1.3,2.5-2,4.1-1.9"/>
<path fill="none" stroke="#000000" stroke-miterlimit="10" d="M352.5,353.2c-9.9,4.4-20,8.5-29.7,13.2c-10.3,5.1-8.1,9.3-8.1,20.5
	c0,0.6,0,1.4,0.4,1.8c0.4,0.5,1.1,0.6,1.8,0.7c3.2,0.3,6.5,0.1,9.6-0.7"/>
<path fill="none" stroke="#000000" stroke-miterlimit="10" d="M344.6,390.3c7.2-0.4,14.4-0.9,21.6-1.3c2.8-0.2,5.7-0.3,8.4,0.3
	c8.3,2,13.2,11.3,12.9,19.9s-4.4,16.4-8.6,23.9"/>
<path fill="none" stroke="#000000" stroke-miterlimit="10" d="M340.9,393.1c-5.2,2.3-10.3,4.6-15.5,6.9c-13,5.8-26.5,12-35.5,23"/>
<path fill="none" stroke="#000000" stroke-miterlimit="10" d="M547.9,458.5c4.4-8.5,10.3-16.1,15-24.4s8.4-17.6,7.7-27.2
	c-0.6-7.4-3.7-14.3-6.8-21c-1.2-2.7-2.7-5.6-5.5-6.8c-1.4-0.6-3-0.6-4.6-0.6c-10.4-0.1-20.9,0.4-31.2,1.5
	c-25.7,2.6-47,23.4-67.3,39.4c-5.7,4.5-11.4,9.6-14,16.4"/>
<path fill="none" stroke="#000000" stroke-miterlimit="10" d="M132.9,272.3c27.3,0.2,54.6,1,81.8,2.3c-1.8,0.5-3.6,1-5.5,1.5"/>
<path fill="none" stroke="#000000" stroke-miterlimit="10" d="M78.6,319.8c38.6-2,77.3-1.1,115.8,2.9"/>
<path fill="none" stroke="#000000" stroke-miterlimit="10" d="M103.8,362.1c31-1.5,62.2-0.1,92.9,4.2"/>
<path fill="none" stroke="#000000" stroke-miterlimit="10" d="M98.3,412.3c45.4,0,90.8,0,136.2,0"/>
<text transform="matrix(1 0 0 1 132.8991 130.5144)" font-family="'YouYuan'" font-size="24px">那之后，我们每天一起上班</text>
</svg>
