<?xml version="1.0" standalone="no"?>
<!DOCTYPE svg PUBLIC "-//W3C//DTD SVG 1.1//EN" "http://www.w3.org/Graphics/SVG/1.1/DTD/svg11.dtd" >
<svg xmlns="http://www.w3.org/2000/svg">
<metadata>Generated by IcoMoon</metadata>
<defs>
<font id="chat" horiz-adv-x="1024">
<font-face units-per-em="1024" ascent="896" descent="-128" />
<missing-glyph horiz-adv-x="1024" />
<glyph unicode="&#x20;" horiz-adv-x="0" d="" />
<glyph unicode="&#xe62f;" glyph-name="add" d="M89 354.8h394v-393.4c0-7.4 2.8-13.8 8.2-19.2s12.2-8.2 20-8.2c7.8 0 14.4 2.8 20 8.2 5.4 5.4 8.2 11.8 8.2 19.2v393.4h394c7.4 0 13.8 2.8 19.2 8.2s8.2 12.2 8.2 19.8c0 7.8-2.8 14.4-8.2 19.8s-11.8 8.2-19.2 8.2h-394v392.4c0 8.2-2.8 15-8.2 20.6-5.4 5.4-12.2 8.2-20 8.2s-14.4-2.8-20-8.2c-5.4-5.4-8.2-12.4-8.2-20.6v-392.2h-394c-7.4 0-13.8-2.8-19.2-8.2s-8.2-12.2-8.2-19.8c0-7.8 2.8-14.4 8.2-19.8 5.4-5.6 11.8-8.4 19.2-8.4z" />
<glyph unicode="&#xe68d;" glyph-name="minus" d="M956.2 373.4c0-4-2.4-7.6-7-10.6s-10.4-4.4-16.8-4.4h-840.8c-6.6 0-12.2 1.4-16.8 4.4s-7 6.4-7 10.6v21c0 4 2.4 7.6 7 10.6s10.4 4.4 16.8 4.4h840.8c6.6 0 12.2-1.4 16.8-4.4s7-6.4 7-10.6v-21z" />
<glyph unicode="&#xe80d;" glyph-name="arrow-down" d="M551 149l392 392q16 16 16 39t-16 39.5-39 16.5-39-17l-353-353-353 353q-16 17-39 17t-39-16.5-16-39.5 16-39l392-392q16-17 39-17t39 17z" />
<glyph unicode="&#xe80e;" glyph-name="arrow-left" d="M277 345l392-392q16-16 39-16t39.5 16 16.5 39-17 39l-353 353 353 353q17 16 17 39t-16.5 39-39.5 16-39-16l-392-392q-17-16-17-39t17-39z" />
<glyph unicode="&#xe80f;" glyph-name="arrow-top" d="M473 619l-392-392q-16-16-16-39t16-39.5 39-16.5 39 17l353 353 353-353q16-17 39-17t39 16.5 16 39.5-16 39l-392 392q-16 17-39 17t-39-17z" />
<glyph unicode="&#xe810;" glyph-name="arrow-right" d="M747 423l-392 392q-16 16-39 16t-39.5-16-16.5-39 17-39l353-353-353-353q-17-16-17-39t16.5-39 39.5-16 39 16l392 392q17 16 17 39t-17 39z" />
<glyph unicode="&#xe900;" glyph-name="star-hollow" d="M785 243l43.4-348.8-316.4 149.4-316.4-149.2 43.4 348.8-239 256.4 343.2 66.4 168.8 307.8 168.8-307.8 343.2-66.4-239-256.6zM649.4 523l-137.4 255.2-137.4-255.2-279.4-55 194.6-212.8-35.4-289.2 257.6 123.8 257.6-123.8-35.4 289.2 194.6 212.8-279.4 55z" />
<glyph unicode="&#xe901;" glyph-name="bubble-solid" d="M1024 469.4c0-236-229.2-426.6-512-426.6-28 0-56 2-82.8 5.4-74.8-77.4-164-132-262.8-161.4-20.6-6.6-42.8-11.4-65.2-14.6-12.6-1.4-24.6 9.4-27.4 25.4v0.4c-2.8 16.6 6.8 26.6 15.4 38.6 36 47.4 77.2 87.4 104 198.6-117.8 78-193.2 198.6-193.2 334 0 235.4 229.2 426.8 512 426.8s512-190.6 512-426.6v0z" />
<glyph unicode="&#xe902;" glyph-name="search" d="M997.024-101.024c-18.752-18.752-49.152-18.752-67.872 0l-273.504 273.472c-69.312-57.696-158.4-92.448-255.648-92.448-220.928 0-400 179.072-400 400s179.072 400 400 400c220.928 0 400-179.072 400-400 0-89.056-29.44-171.008-78.656-237.472l275.68-275.68c18.752-18.72 18.752-49.12 0-67.872zM400 784c-167.904 0-304-136.096-304-304s136.096-304 304-304c167.904 0 304 136.096 304 304s-136.096 304-304 304z" />
<glyph unicode="&#xe903;" glyph-name="bubble-hollow" d="M512 810.6c-237.8 0-438.8-156-438.8-341.4 0-99.4 57.2-194 156-259.4l49.8-33.4-15.4-64c-10.8-47.4-25.2-84-40-114.6 57.8 28 110.2 66 157.2 114l24.6 25.4 32.6-4c24.6-3.4 49.8-5.4 74.2-5.4 237.8 0 438.8 156 438.8 341.4s-201.2 341.4-439 341.4v0zM1024 469.4c0-236-229.2-426.6-512-426.6-28 0-56 2-82.8 5.4-74.8-77.4-164-132-262.8-161.4-20.6-6.6-42.8-11.4-65.2-14.6h-2.8c-11.4 0-21.8 10.6-24.6 25.4v0.4c-2.8 16.6 6.8 26.6 15.4 38.6 36 47.4 77.2 87.4 104 198.6-117.8 78-193.2 198.6-193.2 334 0 236.2 229.2 426.8 512 426.8v0c282.8 0 512-190.6 512-426.6v0z" />
<glyph unicode="&#xe904;" glyph-name="gif" d="M139.636 756.364h558.545c77.119 0 139.636-62.517 139.636-139.636v0-465.455c0-77.119-62.517-139.636-139.636-139.636v0h-558.545c-77.119 0-139.636 62.517-139.636 139.636v0 465.455c0 77.119 62.517 139.636 139.636 139.636v0zM139.636 686.545c-38.56 0-69.818-31.259-69.818-69.818v0-465.455c0-38.56 31.259-69.818 69.818-69.818h558.545c38.56 0 69.818 31.259 69.818 69.818v0 465.455c0 38.56-31.259 69.818-69.818 69.818v0zM768 523.636l181.993 133.12c7.606 5.631 17.172 9.014 27.529 9.014 25.706 0 46.545-20.839 46.545-46.545 0-0.878-0.024-1.751-0.072-2.618l0.005 0.12v-468.247c-0.122-25.614-20.914-46.331-46.545-46.331-10.126 0-19.496 3.233-27.136 8.724l0.139-0.095-182.458 129.862zM837.818 276.48l116.364-82.851v376.553l-116.364-83.316zM139.636 570.182c0-0.002 0-0.004 0-0.007 0-25.706 20.839-46.545 46.545-46.545s46.545 20.839 46.545 46.545c0 0.002 0 0.005 0 0.007v0c0 0.002 0 0.004 0 0.007 0 25.706-20.839 46.545-46.545 46.545s-46.545-20.839-46.545-46.545c0-0.002 0-0.005 0-0.007v0zM279.273 290.909h46.545v46.545h46.545v-93.091h-139.636v232.727h139.636v-46.545h-93.091v-139.636zM418.909 477.091h46.545v-232.727h-46.545zM558.545 384h93.091v-46.545h-93.091zM535.273 477.091h116.364v-46.545h-93.091v-186.182h-46.545v232.727z" />
<glyph unicode="&#xe905;" glyph-name="add-circle" d="M512-128c-279.893 0-512 232.107-512 512s232.107 512 512 512 512-232.107 512-512-232.107-512-512-512zM512 827.733c-245.76 0-443.733-197.973-443.733-443.733s197.973-443.733 443.733-443.733 443.733 197.973 443.733 443.733-197.973 443.733-443.733 443.733zM757.76 349.867h-491.52c-13.653 0-34.133 13.653-34.133 34.133s20.48 34.133 34.133 34.133h484.693c20.48 0 34.133-13.653 34.133-34.133s-13.653-34.133-27.307-34.133zM512 97.28c-20.48 0-34.133 13.653-34.133 34.133v512c0 20.48 13.653 34.133 34.133 34.133 0 0 0 0 0 0 20.48-6.827 34.133-20.48 34.133-34.133v-512c0-20.48-13.653-34.133-34.133-34.133 0 0 0 0 0 0z" />
<glyph unicode="&#xe906;" glyph-name="bonus" d="M498.38 699.258c49.761 0 104.772 7.858 199.195 59.139 60.717 32.923 124.325 76.074 160.467 103.443-16.663 19.713-38.729 29.535-71.978 29.535h-586.475c-27.619 0-55.315-9.822-71.902-29.535 27.696-19.713 60.869-44.304 110.706-73.906 99.521-68.962 160.39-88.675 259.987-88.675v-0.001zM492.902 654.954c-83.010 0-154.912 9.89-254.586 69.029-60.869 39.358-116.184 78.716-132.77 88.607v-821.056c0-44.304 38.729-78.784 94.043-78.784h592.105c49.761 0 94.043 34.481 94.043 83.729v816.179c-33.25-24.659-99.597-69.029-177.052-108.455-66.424-34.482-143.88-49.249-215.782-49.249zM660.505 377.846v-25.743c0-6.458-6.458-12.828-12.916-12.828h-128.72v-57.946h128.72c6.458 0 12.916-6.37 12.916-12.828v-25.743c0-6.458-6.458-12.916-12.916-12.916h-128.72v-70.774c0-6.458-6.37-12.916-12.916-12.916h-25.656c-6.458 0-12.917 6.37-12.917 12.916v64.315h-128.632c-6.458 0-12.917 6.458-12.917 12.916v25.743c0 6.458 6.458 12.916 12.917 12.916h128.72v57.858h-128.72c-6.458 0-12.917 6.458-12.917 12.827v32.203c0 6.458 6.458 12.916 12.917 12.916h70.774l-77.232 128.72c-6.458 6.458 0 12.827 6.458 19.285l25.743 12.916c6.458 6.37 12.916 0 19.374-6.458l89.971-154.375h51.489l83.602 154.375c6.458 6.458 12.916 6.458 19.374 6.458l25.743-12.916c6.458-6.458 6.458-12.828 6.458-19.286l-77.232-128.72h64.316c6.46 0.002 12.918-6.456 12.918-12.914z" />
<glyph unicode="&#xe907;" glyph-name="cancel" d="M512 896c-282.77 0-512-229.23-512-512s229.23-512 512-512v0c282.77 0 512 229.23 512 512s-229.23 512-512 512v0zM512-71.040c-251.312 0-455.040 203.728-455.040 455.040s203.728 455.040 455.040 455.040v0c251.312 0 455.040-203.728 455.040-455.040s-203.728-455.040-455.040-455.040v0zM741.76 613.76c-5.119 5.246-12.26 8.499-20.16 8.499s-15.041-3.253-20.154-8.493l-192.006-192.006-192 192c-2.789 1.015-6.008 1.603-9.364 1.603-15.552 0-28.16-12.608-28.16-28.16 0-4.051 0.855-7.902 2.395-11.382l-0.071 0.18 192-192-192-192c-5.159-5.159-8.351-12.287-8.351-20.16 0-15.746 12.765-28.511 28.511-28.511 7.873 0 15.001 3.191 20.16 8.351l192 192 192-192c3.245-1.414 7.026-2.237 10.998-2.237 15.552 0 28.16 12.608 28.16 28.16 0 5.313-1.471 10.283-4.029 14.523l0.071-0.127-192 192 192 192c4.508 4.974 7.267 11.605 7.267 18.88s-2.759 13.906-7.288 18.904l0.021-0.024z" />
<glyph unicode="&#xe908;" glyph-name="user-solid" d="M874.048 21.952c-199.936-199.936-524.16-199.936-724.096 0s-199.936 524.16 0 724.096c199.936 199.936 524.16 199.936 724.096 0s199.936-524.16 0-724.096zM512 704c-70.72 0-128-57.28-128-128s57.28-192 128-192c70.72 0 128 121.28 128 192s-57.28 128-128 128zM768 256c0 76.736-60.416 109.12-147.136 121.344-36.288-32.832-77.44-57.344-108.864-57.344s-72.576 24.512-108.864 57.344c-86.72-12.224-147.136-44.608-147.136-121.344v-64c0-35.328 28.672-64 64-64h384c35.328 0 64 28.672 64 64v64z" />
<glyph unicode="&#xe909;" glyph-name="user-hollow" d="M832 128c-34.016-13.376-40-14.88-64-16 0 73.376-46.88 137.728-117.504 174.752-41.216-38.24-91.136-60.192-143.296-56.928-51.776-0.768-95.776 21.184-131.808 57.888-71.68-36.864-119.392-101.696-119.392-175.712-36 3.136-45.984-7.392-64 16 0 88.8 56.576 167.008 142.432 212.928-23.072 39.008-40.608 86.048-51.648 138.528-18.016 142.432 83.68 257.632 229.216 256.544 144.544 0.896 248.384-114.176 237.792-254.56-8.608-53.408-28.32-102.624-55.52-143.168 83.168-46.24 137.728-123.104 137.728-210.272zM512.224 672.224c-106.208 0.256-177.888-87.808-161.696-196.16 19.104-109.248 82.496-192.8 159.68-192.832 77.344-2.496 153.312 84 169.216 193.408 13.088 107.968-61.6 195.68-167.2 195.584zM512-128c-282.784 0-512 229.216-512 512s229.216 512 512 512c282.784 0 512-229.216 512-512s-229.216-512-512-512zM512 832c-247.424 0-448-200.576-448-448s200.576-448 448-448c247.424 0 448 200.576 448 448s-200.576 448-448 448z" />
<glyph unicode="&#xe90a;" glyph-name="collect" d="M746.045 538.542c-2.842 8.656-10.238 15.052-19.283 16.404l-0.132 0.016-133.018 19.354-59.474 120.571c-3.985 7.997-12.104 13.394-21.483 13.394-0.034 0-0.069 0-0.103 0h0.005c-0.018 0-0.038 0-0.059 0-9.404 0-17.547-5.401-21.495-13.271l-0.063-0.139-59.479-120.556-133.038-19.354c-9.172-1.316-16.577-7.686-19.372-16.154l-0.048-0.169c-0.774-2.252-1.221-4.847-1.221-7.547 0-6.747 2.791-12.841 7.282-17.192l0.006-0.006 96.236-93.798-22.682-132.536c-0.229-1.241-0.359-2.669-0.359-4.128 0-7.951 3.885-14.994 9.86-19.336l0.069-0.048c3.89-2.879 8.782-4.608 14.078-4.608 0.013 0 0.027 0 0.040 0h-0.002c3.917 0 7.813 0.973 11.244 2.796l118.994 62.536 118.948-62.546c3.261-1.735 7.13-2.755 11.237-2.76h0.001c0.022 0 0.048 0 0.074 0 5.276 0 10.15 1.721 14.091 4.633l-0.065-0.046c6.035 4.446 9.907 11.525 9.907 19.508 0 1.421-0.123 2.814-0.358 4.168l0.021-0.144-22.728 132.516 96.261 93.804c4.497 4.361 7.289 10.459 7.289 17.21 0 2.655-0.432 5.21-1.229 7.597l0.049-0.169zM392.376 308.383l21.811 127.462-92.549 90.214c-0.742 0.715-1.203 1.717-1.203 2.826 0 0.441 0.073 0.866 0.207 1.262l-0.008-0.028c0.467 1.41 1.676 2.45 3.153 2.665l0.021 0.003 127.969 13.491 57.206 115.932c-0.266 0.518-0.422 1.13-0.422 1.779 0 2.186 1.772 3.958 3.958 3.958s3.958-1.772 3.958-3.958c0-0.633-0.148-1.231-0.412-1.761l0.010 0.023 57.196-115.968 127.959-13.491c1.116-0.159 2.601-0.932 3.108-2.57l0.026-0.087c0.125-0.368 0.197-0.792 0.197-1.233 0-1.11-0.458-2.114-1.195-2.832l-0.001-0.001-92.585-90.22 21.862-127.493c0.034-0.193 0.053-0.414 0.053-0.64 0-1.305-0.643-2.46-1.629-3.166l-0.012-0.008c-0.608-0.454-1.374-0.727-2.203-0.727-0.014 0-0.027 0-0.041 0h0.002c-0.002 0-0.004 0-0.006 0-0.684 0-1.329 0.169-1.895 0.466l0.022-0.011-114.406 60.145-114.488-60.17c-0.526-0.292-1.153-0.464-1.82-0.464-0.858 0-1.649 0.284-2.285 0.763l0.010-0.007-0.041 0.036c-0.966 0.714-1.586 1.85-1.586 3.13 0 0.24 0.022 0.475 0.064 0.704l-0.004-0.024zM628.818 286.239l-0.236-0.266-0.594 0.317c0.276-0.010 0.553-0.051 0.829-0.051zM392.279 283.786c1.751 1.464 3.159 2.432 3.932 2.432 0.266 0 0.527 0.041 0.788 0.051l-4.721-2.483zM183.967-47.58c-12.725 0-23.040 10.315-23.040 23.040v0 732.713c0 59.218 43.602 107.402 97.193 107.402h508.764c53.591 0 97.188-48.179 97.188-107.402v-732.713c-0.002-12.723-10.317-23.036-23.040-23.036-3.86 0-7.498 0.949-10.694 2.627l0.126-0.060-315.469 162.888-320.589-162.959c-3.036-1.575-6.627-2.499-10.435-2.499-0.002 0-0.003 0-0.005 0v0zM258.12 769.495c-28.18 0-51.113-27.51-51.113-61.322v-695.158l297.631 151.296c3.036 1.575 6.628 2.499 10.436 2.499 3.863 0 7.505-0.951 10.702-2.631l-0.126 0.060 292.347-150.953v694.886c0 33.812-22.932 61.322-51.108 61.322h-508.769z" />
<glyph unicode="&#xe90b;" glyph-name="drawing-board" d="M398.643 310.497c0.369-41.134-32.758-74.772-73.948-75.023-41.17-0.328-74.68 32.763-74.9 73.897-0.364 41.15 32.747 74.665 73.81 75.044 41.185 0.271 74.823-32.86 75.038-73.918zM362.23 458.952c-41.14-0.292-74.793 32.788-75.054 74.010-0.323 41.062 32.68 74.613 73.886 74.88 41.047 0.378 74.793-32.661 74.937-73.826 0.435-41.21-32.768-74.685-73.77-75.064zM659.446 608.44c0.143-41.062-32.804-74.793-73.938-75.064-41.165-0.343-74.773 32.763-75.024 73.882-0.399 41.185 32.692 74.7 73.938 75.028 40.98 0.236 74.66-32.804 75.024-73.846zM212.546 18.273c170.824-14.141 109.656 167.296 267.705 168.97l68.454-57.093c17.050-206.213-235.192-252.252-336.158-111.877zM736.358 283.253c53.136 83.375 217.734 363.009 217.734 363.009 13.096 23.183-16 47.406-36.332 30.295 0 0-244.762-212.793-316.948-280.238-57.063-53.335-57.293-77.696-75.776-165.612l62.53-52.121c82.929 34.048 106.793 38.691 148.792 104.668zM266.301 104.249c-77.603 67.79-127.36 166.866-128.215 277.35-1.638 205.185 164.096 373.515 369.44 375.19 142.934 0.762 241.305-70.938 241.924-128.36-41.859-35.759-21.708-18.057-1.544-0.369l63.481 54.575c-37.607 82.775-155.73 150.635-304.477 148.653-246.701-2.017-445.27-203.515-443.304-450.293 0.854-108.427 40.314-207.427 105.124-284.315 35.67-18.325 79.058-12.247 97.571 7.567zM742.871 175.249c39.424-73.39-50.335-125.471-132.014-148.67-11.34-33.976-29.896-64.087-51.17-86.057 195.697 21.965 337.46 160.276 233.334 293.78-17.090-25.492-33.387-44.59-50.15-59.054z" />
<glyph unicode="&#xe90c;" glyph-name="file" d="M918.369 653.502h-466.092v54.839c0 27.411-27.411 54.839-54.839 54.839h-246.747c-27.411 0-71.278-32.899-71.278-60.313v-658.004c0-27.411 43.866-49.342 65.802-49.342h767.665c27.411 0 38.388 21.932 38.388 49.342v548.334c5.482 27.411-5.482 60.313-32.899 60.313zM134.249 708.348h274.172v-54.839h-274.172v54.839zM901.916 50.337h-767.665v548.334h767.665v-548.334z" />
<glyph unicode="&#xe90d;" glyph-name="image" d="M959.884 768c0.040-0.034 0.082-0.076 0.116-0.116v-767.77c-0.034-0.040-0.076-0.082-0.116-0.116h-895.77c-0.040 0.034-0.082 0.076-0.114 0.116v767.772c0.034 0.040 0.076 0.082 0.114 0.114h895.77zM960 832h-896c-35.2 0-64-28.8-64-64v-768c0-35.2 28.8-64 64-64h896c35.2 0 64 28.8 64 64v768c0 35.2-28.8 64-64 64v0zM832 608c0-53.020-42.98-96-96-96s-96 42.98-96 96 42.98 96 96 96 96-42.98 96-96zM896 64h-768v128l224 384 256-320h64l224 192z" />
<glyph unicode="&#xe90e;" glyph-name="moon" d="M348.64 653.632c0-241.6 165.728-437.44 370.144-437.44 50.816 0 99.232 12.16 143.328 34.016-54.24-142.72-191.872-244.352-353.632-244.352-209.056 0-378.56 169.504-378.56 378.56 0 154.24 92.416 286.688 224.736 345.696-3.712-24.896-6.016-50.336-6.016-76.48z" />
<glyph unicode="&#xe90f;" glyph-name="camera" d="M304 288c0-114.876 93.124-208 208-208s208 93.124 208 208-93.124 208-208 208-208-93.124-208-208zM960 640h-224c-16 64-32 128-96 128h-256c-64 0-80-64-96-128h-224c-35.2 0-64-28.8-64-64v-576c0-35.2 28.8-64 64-64h896c35.2 0 64 28.8 64 64v576c0 35.2-28.8 64-64 64zM512 4c-156.85 0-284 127.148-284 284 0 156.85 127.15 284 284 284 156.852 0 284-127.15 284-284 0-156.852-127.146-284-284-284zM960 448h-128v64h128v-64z" />
<glyph unicode="&#xe910;" glyph-name="setting" horiz-adv-x="1130" d="M375.721-41.436c-5.728 0-11.398 0.955-16.853 2.836l-0.122 0.043c-52.462 18.333-100.335 46.084-142.291 82.48-15.373 13.398-21.456 34.586-15.553 54.029 10.064 33.051 6.207 67.585-10.855 97.264-17.044 29.639-44.899 50.233-78.429 57.986-19.896 4.586-35.227 20.55-39.040 40.666-5.255 27.739-7.92 55.436-7.92 82.322 0 26.889 2.665 54.587 7.919 82.322 3.813 20.114 19.142 36.079 39.055 40.672 33.505 7.741 61.355 28.339 78.409 57.994 17.068 29.664 20.924 64.19 10.861 97.226-5.931 19.494 0.169 40.704 15.535 54.044 41.932 36.404 89.814 64.157 142.315 82.49 19.308 6.75 40.787 1.419 54.709-13.584 23.419-25.199 55.071-39.086 89.109-39.086 34.031 0 65.679 13.888 89.115 39.105 13.919 15.003 35.408 20.33 54.727 13.549 52.449-18.3 100.339-46.050 142.285-82.461 15.38-13.364 21.469-34.579 15.526-54.059-10.052-33.013-6.195-67.548 10.868-97.225 17.046-29.655 44.906-50.25 78.446-57.993 19.902-4.592 35.228-20.558 39.040-40.678 5.258-27.798 7.922-55.489 7.922-82.315 0-26.821-2.664-54.513-7.919-82.308-3.82-20.136-19.149-36.098-39.056-40.684-33.518-7.731-61.376-28.325-78.436-57.987-17.060-29.672-20.923-64.219-10.877-97.271 5.94-19.44-0.145-40.66-15.518-54.018-42.032-36.438-89.901-64.182-142.31-82.482l-0.143-0.050c-19.319-6.642-40.747-1.28-54.59 13.665-23.397 25.177-55.044 39.064-89.079 39.064-34.041 0-65.693-13.887-89.124-39.101-9.695-10.45-23.452-16.455-37.724-16.455zM502.569 78.543c49.278 0 95.223-18.929 130.303-53.488 39.147 14.632 75.217 35.547 107.422 62.284-12.297 47.788-5.67 97.172 18.946 139.988 24.662 42.877 64.024 73.35 111.471 86.529 3.562 21.132 5.367 42.071 5.367 62.336 0 20.268-1.805 41.202-5.368 62.342-47.469 13.191-86.828 43.668-111.47 86.537-24.625 42.832-31.242 92.222-18.928 139.971-32.15 26.724-68.23 47.639-107.452 62.285-35.094-34.559-81.028-53.481-130.288-53.481-49.276 0-95.218 18.925-130.302 53.482-39.227-14.66-75.299-35.576-107.446-62.301 12.319-47.751 5.701-97.149-18.937-139.97-24.647-42.861-64-73.338-111.441-86.527-3.56-21.092-5.363-42.026-5.363-62.34 0-20.311 1.802-41.244 5.363-62.339 47.46-13.204 86.812-43.677 111.452-86.524 24.626-42.836 31.243-92.229 18.932-139.972 32.137-26.702 68.224-47.634 107.432-62.299 35.093 34.566 81.031 53.486 130.308 53.486zM502.578 202.008c-96.046 0-174.185 78.14-174.185 174.185s78.14 174.185 174.185 174.185c96.046 0 174.185-78.14 174.185-174.185s-78.14-174.185-174.185-174.185zM502.578 485.957c-60.523 0-109.764-49.24-109.764-109.764s49.24-109.764 109.764-109.764c60.524 0 109.764 49.24 109.764 109.764s-49.241 109.764-109.764 109.764z" />
<glyph unicode="&#xe911;" glyph-name="signal" d="M716.672-6.016l-162.944 371.584c26.112 14.784 44.48 41.728 44.48 73.856 0 47.616-38.592 86.208-86.208 86.208s-86.208-38.592-86.208-86.208c0-32.128 18.368-59.072 44.416-73.856l-162.944-371.584c-14.080-32.256 3.136-58.624 38.336-58.624h332.8c35.2 0 52.416 26.368 38.272 58.624zM379.52-0.64l132.48 302.016 132.416-301.952-264.896-0.064zM331.52 244.352l27.776 63.296c-30.72 35.52-49.984 81.28-49.984 131.776 0 111.808 90.944 202.688 202.688 202.688s202.688-90.944 202.688-202.688c0-50.56-19.264-96.256-49.984-131.776l27.776-63.296c52.672 48.768 86.208 117.824 86.208 195.136 0 147.072-119.616 266.688-266.688 266.688s-266.688-119.68-266.688-266.688c0-77.312 33.536-146.432 86.208-195.136zM273.28 111.488l26.88 61.312c-78.784 62.72-130.368 158.336-130.368 266.624 0 188.672 153.536 342.208 342.208 342.208s342.208-153.472 342.208-342.208c0-108.352-51.584-203.904-130.368-266.624l26.88-61.312c101.312 73.92 167.488 193.216 167.488 327.936 0 224-182.208 406.208-406.208 406.208s-406.208-182.208-406.208-406.208c0-134.72 66.176-253.952 167.488-327.936z" />
<glyph unicode="&#xe912;" glyph-name="sun" d="M904.952 410.197h-78.591c-14.41 0-26.199-11.788-26.199-26.199 0-14.406 11.788-26.194 26.199-26.194h78.591c14.406 0 26.194 11.787 26.194 26.194 0 14.41-11.787 26.199-26.194 26.199v0zM763.487 598.812l55.015 55.011c10.477 10.481 10.477 26.199 0 36.679-10.481 10.477-26.198 10.477-36.675 0l-55.014-55.015c-10.478-10.477-10.478-26.198 0-36.675 10.481-9.17 27.504-9.17 36.674 0v0zM512.002 619.771c-129.676 0-235.773-106.096-235.773-235.773 0-129.671 106.096-235.768 235.773-235.768 129.671 0 235.768 106.096 235.768 235.768 0 129.676-106.096 235.773-235.768 235.773v0zM512.002 672.163c14.406 0 26.194 11.788 26.194 26.199v78.586c0 14.41-11.787 26.199-26.194 26.199-14.41 0-26.199-11.788-26.199-26.199v-78.586c0-14.41 11.788-26.199 26.199-26.199v0zM270.989 588.332c10.481-10.477 26.199-10.477 36.679 0 10.477 10.481 10.477 26.199 0 36.679l-55.015 55.011c-10.477 10.481-26.198 10.481-36.675 0-10.481-10.478-10.481-26.199 0-36.675l55.011-55.015zM197.638 410.197h-78.586c-14.41 0-26.199-11.788-26.199-26.199 0-14.406 11.788-26.194 26.199-26.194h78.586c14.41 0 26.199 11.787 26.199 26.194 0 14.41-11.788 26.199-26.199 26.199v0zM286.71 195.382l-55.014-55.011c-10.478-10.481-10.478-26.198 0-36.675 10.481-10.481 26.198-10.481 36.675 0l55.014 55.011c10.478 10.481 10.478 26.199 0 36.675-10.481 10.481-26.198 10.481-36.675 0v0zM512.002 95.838c-14.41 0-26.199-11.788-26.199-26.199v-78.591c0-14.406 11.788-26.194 26.199-26.194 14.406 0 26.194 11.787 26.194 26.194v78.591c0 14.41-11.787 26.199-26.194 26.199v0zM753.010 179.665c-10.481 10.481-26.198 10.481-36.675 0-10.481-10.478-10.481-26.195 0-36.675l55.011-55.011c10.481-10.481 26.199-10.481 36.675 0 10.481 10.477 10.481 26.195 0 36.675l-55.011 55.011z" />
<glyph unicode="&#xe913;" glyph-name="video" d="M0 768v-768h1024v768h-1024zM192 64h-128v128h128v-128zM192 320h-128v128h128v-128zM192 576h-128v128h128v-128zM768 64h-512v640h512v-640zM960 64h-128v128h128v-128zM960 320h-128v128h128v-128zM960 576h-128v128h128v-128zM384 576v-384l256 192z" />
<glyph unicode="&#xe914;" glyph-name="vip" d="M747.2 0h-470.4c-46.4 0-84.8 32-94.4 76.8l-118.4 588.8c-3.2 12.8 3.2 27.2 16 33.6 11.2 6.4 27.2 4.8 36.8-3.2l198.4-169.6 171.2 228.8c12.8 16 38.4 16 51.2 0l171.2-228.8 198.4 169.6c9.6 9.6 25.6 9.6 36.8 3.2s17.6-20.8 16-33.6l-118.4-588.8c-9.6-44.8-48-76.8-94.4-76.8zM145.6 587.2l99.2-497.6c3.2-14.4 16-25.6 32-25.6h470.4c16 0 28.8 11.2 32 25.6l99.2 497.6-153.6-131.2c-6.4-6.4-16-8-24-8-8 1.6-17.6 4.8-22.4 12.8l-166.4 222.4-166.4-222.4c-4.8-6.4-12.8-11.2-22.4-12.8-8-1.6-17.6 1.6-24 8l-153.6 131.2zM512 160c-11.2 0-22.4 6.4-27.2 16l-96 160c-9.6 14.4-4.8 35.2 11.2 43.2 14.4 9.6 35.2 4.8 43.2-11.2l68.8-113.6 68.8 113.6c9.6 14.4 28.8 20.8 43.2 11.2s20.8-28.8 11.2-43.2l-96-160c-4.8-9.6-16-16-27.2-16z" />
<glyph unicode="&#xe915;" glyph-name="wallet" d="M584 384q0-15.008 10.496-25.504t25.504-10.496 25.504 10.496 10.496 25.504-10.496 25.504-25.504 10.496-25.504-10.496-10.496-25.504zM952 768h-880q-30.016 0-51.008-20.992t-20.992-51.008v-624q0-30.016 20.992-51.008t51.008-20.992h880q30.016 0 51.008 20.992t20.992 51.008v624q0 30.016-20.992 51.008t-51.008 20.992zM952 328h-432v112h432v-112zM952 512h-432q-30.016 0-51.008-20.992t-20.992-51.008v-112q0-30.016 20.992-51.008t51.008-20.992h432v-184h-880v624h880v-184z" />
<glyph unicode="&#xe91e;" glyph-name="audio" d="M480 192c88.366 0 160 71.634 160 160v384c0 88.366-71.634 160-160 160s-160-71.634-160-160v-384c0-88.366 71.636-160 160-160zM704 448v-96c0-123.71-100.29-224-224-224-123.712 0-224 100.29-224 224v96h-64v-96c0-148.238 112.004-270.3 256-286.22v-129.78h-128v-64h320v64h-128v129.78c143.994 15.92 256 137.982 256 286.22v96h-64z" />
<glyph unicode="&#xe938;" glyph-name="qrcode" d="M320 832h-256v-256h256v256zM384 896v0-384h-384v384h384zM128 768h128v-128h-128zM960 832h-256v-256h256v256zM1024 896v0-384h-384v384h384zM768 768h128v-128h-128zM320 192h-256v-256h256v256zM384 256v0-384h-384v384h384zM128 128h128v-128h-128zM448 896h64v-64h-64zM512 832h64v-64h-64zM448 768h64v-64h-64zM512 704h64v-64h-64zM448 640h64v-64h-64zM512 576h64v-64h-64zM448 512h64v-64h-64zM448 384h64v-64h-64zM512 320h64v-64h-64zM448 256h64v-64h-64zM512 192h64v-64h-64zM448 128h64v-64h-64zM512 64h64v-64h-64zM448 0h64v-64h-64zM512-64h64v-64h-64zM960 384h64v-64h-64zM64 384h64v-64h-64zM128 448h64v-64h-64zM0 448h64v-64h-64zM256 448h64v-64h-64zM320 384h64v-64h-64zM384 448h64v-64h-64zM576 384h64v-64h-64zM640 448h64v-64h-64zM704 384h64v-64h-64zM768 448h64v-64h-64zM832 384h64v-64h-64zM896 448h64v-64h-64zM960 256h64v-64h-64zM576 256h64v-64h-64zM640 320h64v-64h-64zM704 256h64v-64h-64zM832 256h64v-64h-64zM896 320h64v-64h-64zM960 128h64v-64h-64zM576 128h64v-64h-64zM640 192h64v-64h-64zM768 192h64v-64h-64zM832 128h64v-64h-64zM896 192h64v-64h-64zM960 0h64v-64h-64zM640 64h64v-64h-64zM704 0h64v-64h-64zM768 64h64v-64h-64zM832 0h64v-64h-64zM640-64h64v-64h-64zM768-64h64v-64h-64zM896-64h64v-64h-64z" />
<glyph unicode="&#xe942;" glyph-name="phone" d="M704 256c-64-64-64-128-128-128s-128 64-192 128-128 128-128 192 64 64 128 128-128 256-192 256-192-192-192-192c0-128 131.5-387.5 256-512s384-256 512-256c0 0 192 128 192 192s-192 256-256 192z" />
<glyph unicode="&#xe972;" glyph-name="users" horiz-adv-x="1152" d="M768 125.388v52.78c70.498 39.728 128 138.772 128 237.832 0 159.058 0 288-192 288s-192-128.942-192-288c0-99.060 57.502-198.104 128-237.832v-52.78c-217.102-17.748-384-124.42-384-253.388h896c0 128.968-166.898 235.64-384 253.388zM327.196 100.672c55.31 36.15 124.080 63.636 199.788 80.414-15.054 17.784-28.708 37.622-40.492 59.020-30.414 55.234-46.492 116.058-46.492 175.894 0 86.042 0 167.31 30.6 233.762 29.706 64.504 83.128 104.496 159.222 119.488-16.914 76.48-61.94 126.75-181.822 126.75-192 0-192-128.942-192-288 0-99.060 57.502-198.104 128-237.832v-52.78c-217.102-17.748-384-124.42-384-253.388h279.006c14.518 12.91 30.596 25.172 48.19 36.672z" />
<glyph unicode="&#xe9d9;" glyph-name="star-solid" d="M1024 498.95l-353.78 51.408-158.22 320.582-158.216-320.582-353.784-51.408 256-249.538-60.432-352.352 316.432 166.358 316.432-166.358-60.434 352.352 256.002 249.538z" />
<glyph unicode="&#xe9e1;" glyph-name="smile" d="M512-128c282.77 0 512 229.23 512 512s-229.23 512-512 512-512-229.23-512-512 229.23-512 512-512zM512 800c229.75 0 416-186.25 416-416s-186.25-416-416-416-416 186.25-416 416 186.25 416 416 416zM256 576c0 35.346 28.654 64 64 64s64-28.654 64-64c0-35.346-28.654-64-64-64s-64 28.654-64 64zM640 576c0 35.346 28.654 64 64 64s64-28.654 64-64c0-35.346-28.654-64-64-64s-64 28.654-64 64zM704.098 268.74l82.328-49.396c-55.962-93.070-157.916-155.344-274.426-155.344s-218.464 62.274-274.426 155.344l82.328 49.396c39.174-65.148 110.542-108.74 192.098-108.74s152.924 43.592 192.098 108.74z" />
</font>
</defs>
</svg>
